G04 EAGLE Gerber RS-274X export*
G75*
%MOIN*%
%FSLAX35Y35*%
%LPD*%
%INSilk screen CMP*%
%IPPOS*%
%AMOC8*
5,1,8,0,0,1.08239X$1,22.5*%
G01*
G04 Define Apertures*
%ADD10C,0.006000*%
%ADD11C,0.004000*%
%ADD12C,0.005000*%
%ADD13C,0.003000*%
D10*
X435644Y283289D02*
X434044Y283289D01*
X434044Y283288D02*
X433974Y283286D01*
X433905Y283280D01*
X433836Y283270D01*
X433767Y283257D01*
X433700Y283239D01*
X433633Y283218D01*
X433568Y283193D01*
X433504Y283165D01*
X433442Y283133D01*
X433382Y283097D01*
X433324Y283059D01*
X433268Y283017D01*
X433215Y282972D01*
X433164Y282924D01*
X433116Y282873D01*
X433071Y282820D01*
X433029Y282764D01*
X432991Y282706D01*
X432955Y282646D01*
X432923Y282584D01*
X432895Y282520D01*
X432870Y282455D01*
X432849Y282388D01*
X432831Y282321D01*
X432818Y282252D01*
X432808Y282183D01*
X432802Y282114D01*
X432800Y282044D01*
X432802Y281974D01*
X432808Y281905D01*
X432818Y281836D01*
X432831Y281767D01*
X432849Y281700D01*
X432870Y281633D01*
X432895Y281568D01*
X432923Y281504D01*
X432955Y281442D01*
X432991Y281382D01*
X433029Y281324D01*
X433071Y281268D01*
X433116Y281215D01*
X433164Y281164D01*
X433215Y281116D01*
X433268Y281071D01*
X433324Y281029D01*
X433382Y280991D01*
X433442Y280955D01*
X433504Y280923D01*
X433568Y280895D01*
X433633Y280870D01*
X433700Y280849D01*
X433767Y280831D01*
X433836Y280818D01*
X433905Y280808D01*
X433974Y280802D01*
X434044Y280800D01*
X435644Y280800D01*
X435644Y284000D01*
X435645Y284000D02*
X435643Y284064D01*
X435637Y284129D01*
X435628Y284192D01*
X435614Y284255D01*
X435597Y284317D01*
X435576Y284378D01*
X435551Y284438D01*
X435523Y284496D01*
X435491Y284552D01*
X435456Y284606D01*
X435418Y284658D01*
X435377Y284708D01*
X435332Y284754D01*
X435286Y284799D01*
X435236Y284840D01*
X435184Y284878D01*
X435130Y284913D01*
X435074Y284945D01*
X435016Y284973D01*
X434956Y284998D01*
X434895Y285019D01*
X434833Y285036D01*
X434770Y285050D01*
X434707Y285059D01*
X434642Y285065D01*
X434578Y285067D01*
X433156Y285067D01*
X438606Y285067D02*
X438606Y280800D01*
X438606Y285067D02*
X440739Y285067D01*
X440739Y284356D01*
X445491Y287200D02*
X445491Y280800D01*
X443713Y280800D01*
X443649Y280802D01*
X443584Y280808D01*
X443521Y280817D01*
X443458Y280831D01*
X443396Y280848D01*
X443335Y280869D01*
X443275Y280894D01*
X443217Y280922D01*
X443161Y280954D01*
X443107Y280989D01*
X443055Y281027D01*
X443005Y281068D01*
X442959Y281113D01*
X442914Y281159D01*
X442873Y281209D01*
X442835Y281261D01*
X442800Y281315D01*
X442768Y281371D01*
X442740Y281429D01*
X442715Y281489D01*
X442694Y281550D01*
X442677Y281612D01*
X442663Y281675D01*
X442654Y281738D01*
X442648Y281803D01*
X442646Y281867D01*
X442646Y284000D01*
X442648Y284064D01*
X442654Y284129D01*
X442663Y284192D01*
X442677Y284255D01*
X442694Y284317D01*
X442715Y284378D01*
X442740Y284438D01*
X442768Y284496D01*
X442800Y284552D01*
X442835Y284606D01*
X442873Y284658D01*
X442914Y284708D01*
X442959Y284754D01*
X443005Y284799D01*
X443055Y284840D01*
X443107Y284878D01*
X443161Y284913D01*
X443217Y284945D01*
X443275Y284973D01*
X443335Y284998D01*
X443396Y285019D01*
X443458Y285036D01*
X443521Y285050D01*
X443584Y285059D01*
X443649Y285065D01*
X443713Y285067D01*
X445491Y285067D01*
X448419Y285067D02*
X448419Y281867D01*
X448421Y281803D01*
X448427Y281738D01*
X448436Y281675D01*
X448450Y281612D01*
X448467Y281550D01*
X448488Y281489D01*
X448513Y281429D01*
X448541Y281371D01*
X448573Y281315D01*
X448608Y281261D01*
X448646Y281209D01*
X448687Y281159D01*
X448732Y281113D01*
X448778Y281068D01*
X448828Y281027D01*
X448880Y280989D01*
X448934Y280954D01*
X448990Y280922D01*
X449048Y280894D01*
X449108Y280869D01*
X449169Y280848D01*
X449231Y280831D01*
X449294Y280817D01*
X449357Y280808D01*
X449422Y280802D01*
X449486Y280800D01*
X451263Y280800D01*
X451263Y285067D01*
X453944Y285067D02*
X453944Y280800D01*
X453766Y286844D02*
X453766Y287200D01*
X454122Y287200D01*
X454122Y286844D01*
X453766Y286844D01*
X456624Y285067D02*
X456624Y280800D01*
X456624Y285067D02*
X458402Y285067D01*
X458466Y285065D01*
X458531Y285059D01*
X458594Y285050D01*
X458657Y285036D01*
X458719Y285019D01*
X458780Y284998D01*
X458840Y284973D01*
X458898Y284945D01*
X458954Y284913D01*
X459008Y284878D01*
X459060Y284840D01*
X459110Y284799D01*
X459156Y284754D01*
X459201Y284708D01*
X459242Y284658D01*
X459280Y284606D01*
X459315Y284552D01*
X459347Y284496D01*
X459375Y284438D01*
X459400Y284378D01*
X459421Y284317D01*
X459438Y284255D01*
X459452Y284192D01*
X459461Y284129D01*
X459467Y284064D01*
X459469Y284000D01*
X459469Y280800D01*
X462163Y282222D02*
X462163Y283644D01*
X462165Y283718D01*
X462171Y283793D01*
X462181Y283866D01*
X462194Y283940D01*
X462211Y284012D01*
X462233Y284083D01*
X462257Y284154D01*
X462286Y284222D01*
X462318Y284290D01*
X462354Y284355D01*
X462392Y284418D01*
X462435Y284480D01*
X462480Y284539D01*
X462528Y284596D01*
X462579Y284650D01*
X462633Y284701D01*
X462690Y284749D01*
X462749Y284794D01*
X462811Y284837D01*
X462874Y284875D01*
X462939Y284911D01*
X463007Y284943D01*
X463075Y284972D01*
X463146Y284996D01*
X463217Y285018D01*
X463289Y285035D01*
X463363Y285048D01*
X463436Y285058D01*
X463511Y285064D01*
X463585Y285066D01*
X463659Y285064D01*
X463734Y285058D01*
X463807Y285048D01*
X463881Y285035D01*
X463953Y285018D01*
X464024Y284996D01*
X464095Y284972D01*
X464163Y284943D01*
X464231Y284911D01*
X464296Y284875D01*
X464359Y284837D01*
X464421Y284794D01*
X464480Y284749D01*
X464537Y284701D01*
X464591Y284650D01*
X464642Y284596D01*
X464690Y284539D01*
X464735Y284480D01*
X464778Y284418D01*
X464816Y284355D01*
X464852Y284290D01*
X464884Y284222D01*
X464913Y284154D01*
X464937Y284083D01*
X464959Y284012D01*
X464976Y283940D01*
X464989Y283866D01*
X464999Y283793D01*
X465005Y283718D01*
X465007Y283644D01*
X465007Y282222D01*
X465005Y282148D01*
X464999Y282073D01*
X464989Y282000D01*
X464976Y281926D01*
X464959Y281854D01*
X464937Y281783D01*
X464913Y281712D01*
X464884Y281644D01*
X464852Y281576D01*
X464816Y281511D01*
X464778Y281448D01*
X464735Y281386D01*
X464690Y281327D01*
X464642Y281270D01*
X464591Y281216D01*
X464537Y281165D01*
X464480Y281117D01*
X464421Y281072D01*
X464359Y281029D01*
X464296Y280991D01*
X464231Y280955D01*
X464163Y280923D01*
X464095Y280894D01*
X464024Y280870D01*
X463953Y280848D01*
X463881Y280831D01*
X463807Y280818D01*
X463734Y280808D01*
X463659Y280802D01*
X463585Y280800D01*
X463511Y280802D01*
X463436Y280808D01*
X463363Y280818D01*
X463289Y280831D01*
X463217Y280848D01*
X463146Y280870D01*
X463075Y280894D01*
X463007Y280923D01*
X462939Y280955D01*
X462874Y280991D01*
X462811Y281029D01*
X462749Y281072D01*
X462690Y281117D01*
X462633Y281165D01*
X462579Y281216D01*
X462528Y281270D01*
X462480Y281327D01*
X462435Y281386D01*
X462392Y281448D01*
X462354Y281511D01*
X462318Y281576D01*
X462286Y281644D01*
X462257Y281712D01*
X462233Y281783D01*
X462211Y281854D01*
X462194Y281926D01*
X462181Y282000D01*
X462171Y282073D01*
X462165Y282148D01*
X462163Y282222D01*
X471312Y283289D02*
X473090Y282578D01*
X471312Y283289D02*
X471257Y283313D01*
X471204Y283340D01*
X471153Y283371D01*
X471104Y283405D01*
X471058Y283442D01*
X471014Y283482D01*
X470972Y283524D01*
X470934Y283570D01*
X470898Y283617D01*
X470866Y283667D01*
X470836Y283719D01*
X470811Y283773D01*
X470788Y283828D01*
X470770Y283884D01*
X470755Y283942D01*
X470743Y284000D01*
X470736Y284059D01*
X470732Y284119D01*
X470733Y284178D01*
X470737Y284238D01*
X470745Y284297D01*
X470756Y284355D01*
X470772Y284412D01*
X470791Y284469D01*
X470813Y284524D01*
X470840Y284577D01*
X470869Y284629D01*
X470902Y284678D01*
X470938Y284726D01*
X470977Y284771D01*
X471019Y284813D01*
X471063Y284853D01*
X471110Y284889D01*
X471159Y284923D01*
X471210Y284953D01*
X471263Y284980D01*
X471318Y285004D01*
X471374Y285023D01*
X471431Y285040D01*
X471490Y285052D01*
X471548Y285061D01*
X471608Y285066D01*
X471667Y285067D01*
X471668Y285067D02*
X471786Y285063D01*
X471903Y285056D01*
X472021Y285046D01*
X472138Y285032D01*
X472254Y285015D01*
X472370Y284995D01*
X472486Y284971D01*
X472601Y284944D01*
X472715Y284913D01*
X472827Y284879D01*
X472939Y284842D01*
X473050Y284801D01*
X473160Y284758D01*
X473268Y284711D01*
X473089Y282578D02*
X473144Y282554D01*
X473197Y282527D01*
X473248Y282496D01*
X473297Y282462D01*
X473343Y282425D01*
X473387Y282385D01*
X473429Y282343D01*
X473467Y282297D01*
X473503Y282250D01*
X473535Y282200D01*
X473565Y282148D01*
X473590Y282094D01*
X473613Y282039D01*
X473631Y281983D01*
X473646Y281925D01*
X473658Y281867D01*
X473665Y281808D01*
X473669Y281748D01*
X473668Y281689D01*
X473664Y281629D01*
X473656Y281570D01*
X473645Y281512D01*
X473629Y281455D01*
X473610Y281398D01*
X473588Y281343D01*
X473561Y281290D01*
X473532Y281238D01*
X473499Y281189D01*
X473463Y281141D01*
X473424Y281096D01*
X473382Y281054D01*
X473338Y281014D01*
X473291Y280978D01*
X473242Y280944D01*
X473191Y280914D01*
X473138Y280887D01*
X473083Y280863D01*
X473027Y280844D01*
X472970Y280827D01*
X472911Y280815D01*
X472853Y280806D01*
X472793Y280801D01*
X472734Y280800D01*
X472580Y280804D01*
X472427Y280812D01*
X472274Y280824D01*
X472121Y280840D01*
X471969Y280859D01*
X471817Y280883D01*
X471666Y280910D01*
X471516Y280942D01*
X471366Y280977D01*
X471217Y281016D01*
X471070Y281059D01*
X470923Y281105D01*
X470778Y281155D01*
X476317Y280800D02*
X476317Y287200D01*
X476317Y285067D02*
X478095Y285067D01*
X478159Y285065D01*
X478224Y285059D01*
X478287Y285050D01*
X478350Y285036D01*
X478412Y285019D01*
X478473Y284998D01*
X478533Y284973D01*
X478591Y284945D01*
X478647Y284913D01*
X478701Y284878D01*
X478753Y284840D01*
X478803Y284799D01*
X478849Y284754D01*
X478894Y284708D01*
X478935Y284658D01*
X478973Y284606D01*
X479008Y284552D01*
X479040Y284496D01*
X479068Y284438D01*
X479093Y284378D01*
X479114Y284317D01*
X479131Y284255D01*
X479145Y284192D01*
X479154Y284129D01*
X479160Y284064D01*
X479162Y284000D01*
X479162Y280800D01*
X481842Y280800D02*
X481842Y285067D01*
X481664Y286844D02*
X481664Y287200D01*
X482020Y287200D01*
X482020Y286844D01*
X481664Y286844D01*
X485384Y280800D02*
X487162Y280800D01*
X485384Y280800D02*
X485320Y280802D01*
X485255Y280808D01*
X485192Y280817D01*
X485129Y280831D01*
X485067Y280848D01*
X485006Y280869D01*
X484946Y280894D01*
X484888Y280922D01*
X484832Y280954D01*
X484778Y280989D01*
X484726Y281027D01*
X484676Y281068D01*
X484630Y281113D01*
X484585Y281159D01*
X484544Y281209D01*
X484506Y281261D01*
X484471Y281315D01*
X484439Y281371D01*
X484411Y281429D01*
X484386Y281489D01*
X484365Y281550D01*
X484348Y281612D01*
X484334Y281675D01*
X484325Y281738D01*
X484319Y281803D01*
X484317Y281867D01*
X484317Y283644D01*
X484318Y283644D02*
X484320Y283718D01*
X484326Y283793D01*
X484336Y283866D01*
X484349Y283940D01*
X484366Y284012D01*
X484388Y284083D01*
X484412Y284154D01*
X484441Y284222D01*
X484473Y284290D01*
X484509Y284355D01*
X484547Y284418D01*
X484590Y284480D01*
X484635Y284539D01*
X484683Y284596D01*
X484734Y284650D01*
X484788Y284701D01*
X484845Y284749D01*
X484904Y284794D01*
X484966Y284837D01*
X485029Y284875D01*
X485094Y284911D01*
X485162Y284943D01*
X485230Y284972D01*
X485301Y284996D01*
X485372Y285018D01*
X485444Y285035D01*
X485518Y285048D01*
X485591Y285058D01*
X485666Y285064D01*
X485740Y285066D01*
X485814Y285064D01*
X485889Y285058D01*
X485962Y285048D01*
X486036Y285035D01*
X486108Y285018D01*
X486179Y284996D01*
X486250Y284972D01*
X486318Y284943D01*
X486386Y284911D01*
X486451Y284875D01*
X486514Y284837D01*
X486576Y284794D01*
X486635Y284749D01*
X486692Y284701D01*
X486746Y284650D01*
X486797Y284596D01*
X486845Y284539D01*
X486890Y284480D01*
X486933Y284418D01*
X486971Y284355D01*
X487007Y284290D01*
X487039Y284222D01*
X487068Y284154D01*
X487092Y284083D01*
X487114Y284012D01*
X487131Y283940D01*
X487144Y283866D01*
X487154Y283793D01*
X487160Y283718D01*
X487162Y283644D01*
X487162Y282933D01*
X484317Y282933D01*
X489744Y281867D02*
X489744Y287200D01*
X489744Y281867D02*
X489746Y281803D01*
X489752Y281738D01*
X489761Y281675D01*
X489775Y281612D01*
X489792Y281550D01*
X489813Y281489D01*
X489838Y281429D01*
X489866Y281371D01*
X489898Y281315D01*
X489933Y281261D01*
X489971Y281209D01*
X490012Y281159D01*
X490057Y281113D01*
X490103Y281068D01*
X490153Y281027D01*
X490205Y280989D01*
X490259Y280954D01*
X490315Y280922D01*
X490373Y280894D01*
X490433Y280869D01*
X490494Y280848D01*
X490556Y280831D01*
X490619Y280817D01*
X490682Y280808D01*
X490747Y280802D01*
X490811Y280800D01*
X495749Y280800D02*
X495749Y287200D01*
X495749Y280800D02*
X493971Y280800D01*
X493907Y280802D01*
X493842Y280808D01*
X493779Y280817D01*
X493716Y280831D01*
X493654Y280848D01*
X493593Y280869D01*
X493533Y280894D01*
X493475Y280922D01*
X493419Y280954D01*
X493365Y280989D01*
X493313Y281027D01*
X493263Y281068D01*
X493217Y281113D01*
X493172Y281159D01*
X493131Y281209D01*
X493093Y281261D01*
X493058Y281315D01*
X493026Y281371D01*
X492998Y281429D01*
X492973Y281489D01*
X492952Y281550D01*
X492935Y281612D01*
X492921Y281675D01*
X492912Y281738D01*
X492906Y281803D01*
X492904Y281867D01*
X492904Y284000D01*
X492906Y284064D01*
X492912Y284129D01*
X492921Y284192D01*
X492935Y284255D01*
X492952Y284317D01*
X492973Y284378D01*
X492998Y284438D01*
X493026Y284496D01*
X493058Y284552D01*
X493093Y284606D01*
X493131Y284658D01*
X493172Y284708D01*
X493217Y284754D01*
X493263Y284799D01*
X493313Y284840D01*
X493365Y284878D01*
X493419Y284913D01*
X493475Y284945D01*
X493533Y284973D01*
X493593Y284998D01*
X493654Y285019D01*
X493716Y285036D01*
X493779Y285050D01*
X493842Y285059D01*
X493907Y285065D01*
X493971Y285067D01*
X495749Y285067D01*
X434222Y270300D02*
X432800Y274567D01*
X435644Y274567D02*
X434222Y270300D01*
X438995Y270300D02*
X440773Y270300D01*
X438995Y270300D02*
X438931Y270302D01*
X438866Y270308D01*
X438803Y270317D01*
X438740Y270331D01*
X438678Y270348D01*
X438617Y270369D01*
X438557Y270394D01*
X438499Y270422D01*
X438443Y270454D01*
X438389Y270489D01*
X438337Y270527D01*
X438287Y270568D01*
X438241Y270613D01*
X438196Y270659D01*
X438155Y270709D01*
X438117Y270761D01*
X438082Y270815D01*
X438050Y270871D01*
X438022Y270929D01*
X437997Y270989D01*
X437976Y271050D01*
X437959Y271112D01*
X437945Y271175D01*
X437936Y271238D01*
X437930Y271303D01*
X437928Y271367D01*
X437928Y273144D01*
X437929Y273144D02*
X437931Y273218D01*
X437937Y273293D01*
X437947Y273366D01*
X437960Y273440D01*
X437977Y273512D01*
X437999Y273583D01*
X438023Y273654D01*
X438052Y273722D01*
X438084Y273790D01*
X438120Y273855D01*
X438158Y273918D01*
X438201Y273980D01*
X438246Y274039D01*
X438294Y274096D01*
X438345Y274150D01*
X438399Y274201D01*
X438456Y274249D01*
X438515Y274294D01*
X438577Y274337D01*
X438640Y274375D01*
X438705Y274411D01*
X438773Y274443D01*
X438841Y274472D01*
X438912Y274496D01*
X438983Y274518D01*
X439055Y274535D01*
X439129Y274548D01*
X439202Y274558D01*
X439277Y274564D01*
X439351Y274566D01*
X439425Y274564D01*
X439500Y274558D01*
X439573Y274548D01*
X439647Y274535D01*
X439719Y274518D01*
X439790Y274496D01*
X439861Y274472D01*
X439929Y274443D01*
X439997Y274411D01*
X440062Y274375D01*
X440125Y274337D01*
X440187Y274294D01*
X440246Y274249D01*
X440303Y274201D01*
X440357Y274150D01*
X440408Y274096D01*
X440456Y274039D01*
X440501Y273980D01*
X440544Y273918D01*
X440582Y273855D01*
X440618Y273790D01*
X440650Y273722D01*
X440679Y273654D01*
X440703Y273583D01*
X440725Y273512D01*
X440742Y273440D01*
X440755Y273366D01*
X440765Y273293D01*
X440771Y273218D01*
X440773Y273144D01*
X440773Y272433D01*
X437928Y272433D01*
X443500Y270300D02*
X443500Y274567D01*
X445634Y274567D01*
X445634Y273856D01*
X452862Y276700D02*
X452941Y276698D01*
X453019Y276692D01*
X453097Y276683D01*
X453174Y276669D01*
X453251Y276652D01*
X453326Y276631D01*
X453401Y276606D01*
X453474Y276578D01*
X453546Y276546D01*
X453616Y276511D01*
X453685Y276472D01*
X453751Y276430D01*
X453815Y276385D01*
X453877Y276337D01*
X453936Y276286D01*
X453993Y276231D01*
X454048Y276174D01*
X454099Y276115D01*
X454147Y276053D01*
X454192Y275989D01*
X454234Y275923D01*
X454273Y275854D01*
X454308Y275784D01*
X454340Y275712D01*
X454368Y275639D01*
X454393Y275564D01*
X454414Y275489D01*
X454431Y275412D01*
X454445Y275335D01*
X454454Y275257D01*
X454460Y275179D01*
X454462Y275100D01*
X452862Y276700D02*
X452773Y276698D01*
X452684Y276692D01*
X452595Y276683D01*
X452507Y276669D01*
X452420Y276652D01*
X452333Y276631D01*
X452247Y276606D01*
X452163Y276578D01*
X452080Y276545D01*
X451998Y276510D01*
X451918Y276470D01*
X451840Y276428D01*
X451763Y276382D01*
X451689Y276333D01*
X451617Y276280D01*
X451547Y276225D01*
X451480Y276166D01*
X451415Y276105D01*
X451353Y276041D01*
X451294Y275974D01*
X451238Y275905D01*
X451185Y275833D01*
X451135Y275759D01*
X451088Y275683D01*
X451045Y275606D01*
X451005Y275526D01*
X450968Y275445D01*
X450935Y275362D01*
X450906Y275277D01*
X453929Y273855D02*
X453986Y273913D01*
X454042Y273974D01*
X454094Y274037D01*
X454143Y274102D01*
X454189Y274170D01*
X454231Y274240D01*
X454271Y274312D01*
X454306Y274385D01*
X454339Y274461D01*
X454367Y274537D01*
X454392Y274615D01*
X454413Y274694D01*
X454431Y274774D01*
X454444Y274855D01*
X454454Y274936D01*
X454460Y275018D01*
X454462Y275100D01*
X453929Y273856D02*
X450906Y270300D01*
X454462Y270300D01*
X457061Y273500D02*
X457063Y273641D01*
X457069Y273781D01*
X457078Y273922D01*
X457091Y274062D01*
X457108Y274202D01*
X457128Y274341D01*
X457153Y274479D01*
X457181Y274617D01*
X457212Y274754D01*
X457248Y274891D01*
X457287Y275026D01*
X457329Y275160D01*
X457375Y275293D01*
X457425Y275425D01*
X457478Y275555D01*
X457534Y275684D01*
X457594Y275811D01*
X457593Y275811D02*
X457618Y275877D01*
X457646Y275942D01*
X457678Y276006D01*
X457713Y276067D01*
X457752Y276127D01*
X457793Y276185D01*
X457838Y276240D01*
X457886Y276292D01*
X457936Y276342D01*
X457989Y276390D01*
X458044Y276434D01*
X458102Y276475D01*
X458162Y276513D01*
X458224Y276548D01*
X458288Y276579D01*
X458353Y276607D01*
X458420Y276632D01*
X458487Y276652D01*
X458556Y276669D01*
X458626Y276683D01*
X458696Y276692D01*
X458767Y276698D01*
X458838Y276700D01*
X458909Y276698D01*
X458980Y276692D01*
X459050Y276683D01*
X459120Y276669D01*
X459189Y276652D01*
X459256Y276632D01*
X459323Y276607D01*
X459388Y276579D01*
X459452Y276548D01*
X459514Y276513D01*
X459574Y276475D01*
X459632Y276434D01*
X459687Y276390D01*
X459740Y276342D01*
X459790Y276292D01*
X459838Y276240D01*
X459883Y276185D01*
X459924Y276127D01*
X459963Y276067D01*
X459998Y276006D01*
X460030Y275942D01*
X460058Y275877D01*
X460083Y275811D01*
X460143Y275684D01*
X460199Y275555D01*
X460252Y275425D01*
X460302Y275293D01*
X460348Y275160D01*
X460390Y275026D01*
X460429Y274891D01*
X460465Y274754D01*
X460496Y274617D01*
X460524Y274479D01*
X460549Y274341D01*
X460569Y274202D01*
X460586Y274062D01*
X460599Y273922D01*
X460608Y273781D01*
X460614Y273641D01*
X460616Y273500D01*
X457061Y273500D02*
X457063Y273359D01*
X457069Y273219D01*
X457078Y273078D01*
X457091Y272938D01*
X457108Y272798D01*
X457128Y272659D01*
X457153Y272521D01*
X457181Y272383D01*
X457212Y272246D01*
X457248Y272109D01*
X457287Y271974D01*
X457329Y271840D01*
X457375Y271707D01*
X457425Y271575D01*
X457478Y271445D01*
X457534Y271316D01*
X457594Y271189D01*
X457593Y271189D02*
X457618Y271123D01*
X457646Y271058D01*
X457678Y270994D01*
X457713Y270933D01*
X457752Y270873D01*
X457793Y270815D01*
X457838Y270760D01*
X457886Y270708D01*
X457936Y270658D01*
X457989Y270610D01*
X458044Y270566D01*
X458102Y270525D01*
X458162Y270487D01*
X458224Y270452D01*
X458288Y270421D01*
X458353Y270393D01*
X458420Y270368D01*
X458487Y270348D01*
X458556Y270331D01*
X458626Y270317D01*
X458696Y270308D01*
X458767Y270302D01*
X458838Y270300D01*
X460083Y271189D02*
X460143Y271316D01*
X460199Y271445D01*
X460252Y271575D01*
X460302Y271707D01*
X460348Y271840D01*
X460390Y271974D01*
X460429Y272109D01*
X460465Y272246D01*
X460496Y272383D01*
X460524Y272521D01*
X460549Y272659D01*
X460569Y272798D01*
X460586Y272938D01*
X460599Y273078D01*
X460608Y273219D01*
X460614Y273359D01*
X460616Y273500D01*
X460083Y271189D02*
X460058Y271123D01*
X460030Y271058D01*
X459998Y270994D01*
X459963Y270933D01*
X459924Y270873D01*
X459883Y270815D01*
X459838Y270760D01*
X459790Y270708D01*
X459740Y270658D01*
X459687Y270610D01*
X459631Y270566D01*
X459574Y270525D01*
X459514Y270487D01*
X459452Y270452D01*
X459388Y270421D01*
X459323Y270393D01*
X459256Y270368D01*
X459189Y270348D01*
X459120Y270331D01*
X459050Y270317D01*
X458980Y270308D01*
X458909Y270302D01*
X458838Y270300D01*
X457416Y271722D02*
X460261Y275278D01*
X465170Y276700D02*
X465249Y276698D01*
X465327Y276692D01*
X465405Y276683D01*
X465482Y276669D01*
X465559Y276652D01*
X465634Y276631D01*
X465709Y276606D01*
X465782Y276578D01*
X465854Y276546D01*
X465924Y276511D01*
X465993Y276472D01*
X466059Y276430D01*
X466123Y276385D01*
X466185Y276337D01*
X466244Y276286D01*
X466301Y276231D01*
X466356Y276174D01*
X466407Y276115D01*
X466455Y276053D01*
X466500Y275989D01*
X466542Y275923D01*
X466581Y275854D01*
X466616Y275784D01*
X466648Y275712D01*
X466676Y275639D01*
X466701Y275564D01*
X466722Y275489D01*
X466739Y275412D01*
X466753Y275335D01*
X466762Y275257D01*
X466768Y275179D01*
X466770Y275100D01*
X465170Y276700D02*
X465081Y276698D01*
X464992Y276692D01*
X464903Y276683D01*
X464815Y276669D01*
X464728Y276652D01*
X464641Y276631D01*
X464555Y276606D01*
X464471Y276578D01*
X464388Y276545D01*
X464306Y276510D01*
X464226Y276470D01*
X464148Y276428D01*
X464071Y276382D01*
X463997Y276333D01*
X463925Y276280D01*
X463855Y276225D01*
X463788Y276166D01*
X463723Y276105D01*
X463661Y276041D01*
X463602Y275974D01*
X463546Y275905D01*
X463493Y275833D01*
X463443Y275759D01*
X463396Y275683D01*
X463353Y275606D01*
X463313Y275526D01*
X463276Y275445D01*
X463243Y275362D01*
X463214Y275277D01*
X466238Y273855D02*
X466295Y273913D01*
X466351Y273974D01*
X466403Y274037D01*
X466452Y274102D01*
X466498Y274170D01*
X466540Y274240D01*
X466580Y274312D01*
X466615Y274385D01*
X466648Y274461D01*
X466676Y274537D01*
X466701Y274615D01*
X466722Y274694D01*
X466740Y274774D01*
X466753Y274855D01*
X466763Y274936D01*
X466769Y275018D01*
X466771Y275100D01*
X466237Y273856D02*
X463215Y270300D01*
X466770Y270300D01*
X469369Y270300D02*
X471146Y270300D01*
X471229Y270302D01*
X471312Y270308D01*
X471395Y270318D01*
X471478Y270331D01*
X471559Y270349D01*
X471640Y270370D01*
X471719Y270395D01*
X471797Y270424D01*
X471874Y270456D01*
X471949Y270492D01*
X472023Y270531D01*
X472094Y270574D01*
X472164Y270620D01*
X472231Y270670D01*
X472296Y270722D01*
X472358Y270777D01*
X472418Y270836D01*
X472475Y270897D01*
X472529Y270960D01*
X472580Y271026D01*
X472627Y271095D01*
X472672Y271165D01*
X472713Y271238D01*
X472750Y271312D01*
X472785Y271388D01*
X472815Y271466D01*
X472842Y271544D01*
X472865Y271625D01*
X472885Y271706D01*
X472900Y271788D01*
X472912Y271870D01*
X472920Y271953D01*
X472924Y272036D01*
X472924Y272120D01*
X472920Y272203D01*
X472912Y272286D01*
X472900Y272368D01*
X472885Y272450D01*
X472865Y272531D01*
X472842Y272612D01*
X472815Y272690D01*
X472785Y272768D01*
X472750Y272844D01*
X472713Y272918D01*
X472672Y272991D01*
X472627Y273061D01*
X472580Y273130D01*
X472529Y273196D01*
X472475Y273259D01*
X472418Y273320D01*
X472358Y273379D01*
X472296Y273434D01*
X472231Y273486D01*
X472164Y273536D01*
X472094Y273582D01*
X472023Y273625D01*
X471949Y273664D01*
X471874Y273700D01*
X471797Y273732D01*
X471719Y273761D01*
X471640Y273786D01*
X471559Y273807D01*
X471478Y273825D01*
X471395Y273838D01*
X471312Y273848D01*
X471229Y273854D01*
X471146Y273856D01*
X471502Y276700D02*
X469369Y276700D01*
X471502Y276700D02*
X471576Y276698D01*
X471651Y276692D01*
X471724Y276682D01*
X471798Y276669D01*
X471870Y276652D01*
X471941Y276630D01*
X472012Y276606D01*
X472080Y276577D01*
X472148Y276545D01*
X472213Y276509D01*
X472276Y276471D01*
X472338Y276428D01*
X472397Y276383D01*
X472454Y276335D01*
X472508Y276284D01*
X472559Y276230D01*
X472607Y276173D01*
X472652Y276114D01*
X472695Y276052D01*
X472733Y275989D01*
X472769Y275924D01*
X472801Y275856D01*
X472830Y275788D01*
X472854Y275717D01*
X472876Y275646D01*
X472893Y275574D01*
X472906Y275500D01*
X472916Y275427D01*
X472922Y275352D01*
X472924Y275278D01*
X472922Y275204D01*
X472916Y275129D01*
X472906Y275056D01*
X472893Y274982D01*
X472876Y274910D01*
X472854Y274839D01*
X472830Y274768D01*
X472801Y274700D01*
X472769Y274632D01*
X472733Y274567D01*
X472695Y274504D01*
X472652Y274442D01*
X472607Y274383D01*
X472559Y274326D01*
X472508Y274272D01*
X472454Y274221D01*
X472397Y274173D01*
X472338Y274128D01*
X472276Y274085D01*
X472213Y274047D01*
X472148Y274011D01*
X472080Y273979D01*
X472012Y273950D01*
X471941Y273926D01*
X471870Y273904D01*
X471798Y273887D01*
X471724Y273874D01*
X471651Y273864D01*
X471576Y273858D01*
X471502Y273856D01*
X470080Y273856D01*
X475276Y270656D02*
X475276Y270300D01*
X475276Y270656D02*
X475632Y270656D01*
X475632Y270300D01*
X475276Y270300D01*
X477984Y273500D02*
X477986Y273641D01*
X477992Y273781D01*
X478001Y273922D01*
X478014Y274062D01*
X478031Y274202D01*
X478051Y274341D01*
X478076Y274479D01*
X478104Y274617D01*
X478135Y274754D01*
X478171Y274891D01*
X478210Y275026D01*
X478252Y275160D01*
X478298Y275293D01*
X478348Y275425D01*
X478401Y275555D01*
X478457Y275684D01*
X478517Y275811D01*
X478542Y275877D01*
X478570Y275942D01*
X478602Y276006D01*
X478637Y276067D01*
X478676Y276127D01*
X478717Y276185D01*
X478762Y276240D01*
X478810Y276292D01*
X478860Y276342D01*
X478913Y276390D01*
X478968Y276434D01*
X479026Y276475D01*
X479086Y276513D01*
X479148Y276548D01*
X479212Y276579D01*
X479277Y276607D01*
X479344Y276632D01*
X479411Y276652D01*
X479480Y276669D01*
X479550Y276683D01*
X479620Y276692D01*
X479691Y276698D01*
X479762Y276700D01*
X479833Y276698D01*
X479904Y276692D01*
X479974Y276683D01*
X480044Y276669D01*
X480113Y276652D01*
X480180Y276632D01*
X480247Y276607D01*
X480312Y276579D01*
X480376Y276548D01*
X480438Y276513D01*
X480498Y276475D01*
X480556Y276434D01*
X480611Y276390D01*
X480664Y276342D01*
X480714Y276292D01*
X480762Y276240D01*
X480807Y276185D01*
X480848Y276127D01*
X480887Y276067D01*
X480922Y276006D01*
X480954Y275942D01*
X480982Y275877D01*
X481007Y275811D01*
X481067Y275684D01*
X481123Y275555D01*
X481176Y275425D01*
X481226Y275293D01*
X481272Y275160D01*
X481314Y275026D01*
X481353Y274891D01*
X481389Y274754D01*
X481420Y274617D01*
X481448Y274479D01*
X481473Y274341D01*
X481493Y274202D01*
X481510Y274062D01*
X481523Y273922D01*
X481532Y273781D01*
X481538Y273641D01*
X481540Y273500D01*
X477984Y273500D02*
X477986Y273359D01*
X477992Y273219D01*
X478001Y273078D01*
X478014Y272938D01*
X478031Y272798D01*
X478051Y272659D01*
X478076Y272521D01*
X478104Y272383D01*
X478135Y272246D01*
X478171Y272109D01*
X478210Y271974D01*
X478252Y271840D01*
X478298Y271707D01*
X478348Y271575D01*
X478401Y271445D01*
X478457Y271316D01*
X478517Y271189D01*
X478542Y271123D01*
X478570Y271058D01*
X478602Y270994D01*
X478637Y270933D01*
X478676Y270873D01*
X478717Y270815D01*
X478762Y270760D01*
X478810Y270708D01*
X478860Y270658D01*
X478913Y270610D01*
X478968Y270566D01*
X479026Y270525D01*
X479086Y270487D01*
X479148Y270452D01*
X479212Y270421D01*
X479277Y270393D01*
X479344Y270368D01*
X479411Y270348D01*
X479480Y270331D01*
X479550Y270317D01*
X479620Y270308D01*
X479691Y270302D01*
X479762Y270300D01*
X481007Y271189D02*
X481067Y271316D01*
X481123Y271445D01*
X481176Y271575D01*
X481226Y271707D01*
X481272Y271840D01*
X481314Y271974D01*
X481353Y272109D01*
X481389Y272246D01*
X481420Y272383D01*
X481448Y272521D01*
X481473Y272659D01*
X481493Y272798D01*
X481510Y272938D01*
X481523Y273078D01*
X481532Y273219D01*
X481538Y273359D01*
X481540Y273500D01*
X481007Y271189D02*
X480982Y271123D01*
X480954Y271058D01*
X480922Y270994D01*
X480887Y270933D01*
X480848Y270873D01*
X480807Y270815D01*
X480762Y270760D01*
X480714Y270708D01*
X480664Y270658D01*
X480611Y270610D01*
X480555Y270566D01*
X480498Y270525D01*
X480438Y270487D01*
X480376Y270452D01*
X480312Y270421D01*
X480247Y270393D01*
X480180Y270368D01*
X480113Y270348D01*
X480044Y270331D01*
X479974Y270317D01*
X479904Y270308D01*
X479833Y270302D01*
X479762Y270300D01*
X478340Y271722D02*
X481184Y275278D01*
X484138Y270300D02*
X486272Y270300D01*
X486346Y270302D01*
X486421Y270308D01*
X486494Y270318D01*
X486568Y270331D01*
X486640Y270348D01*
X486711Y270370D01*
X486782Y270394D01*
X486850Y270423D01*
X486918Y270455D01*
X486983Y270491D01*
X487046Y270529D01*
X487108Y270572D01*
X487167Y270617D01*
X487224Y270665D01*
X487278Y270716D01*
X487329Y270770D01*
X487377Y270827D01*
X487422Y270886D01*
X487465Y270948D01*
X487503Y271011D01*
X487539Y271076D01*
X487571Y271144D01*
X487600Y271212D01*
X487624Y271283D01*
X487646Y271354D01*
X487663Y271426D01*
X487676Y271500D01*
X487686Y271573D01*
X487692Y271648D01*
X487694Y271722D01*
X487694Y272433D01*
X487692Y272507D01*
X487686Y272582D01*
X487676Y272655D01*
X487663Y272729D01*
X487646Y272801D01*
X487624Y272872D01*
X487600Y272943D01*
X487571Y273011D01*
X487539Y273079D01*
X487503Y273144D01*
X487465Y273207D01*
X487422Y273269D01*
X487377Y273328D01*
X487329Y273385D01*
X487278Y273439D01*
X487224Y273490D01*
X487167Y273538D01*
X487108Y273583D01*
X487046Y273626D01*
X486983Y273664D01*
X486918Y273700D01*
X486850Y273732D01*
X486782Y273761D01*
X486711Y273785D01*
X486640Y273807D01*
X486568Y273824D01*
X486494Y273837D01*
X486421Y273847D01*
X486346Y273853D01*
X486272Y273855D01*
X486272Y273856D02*
X484138Y273856D01*
X484138Y276700D01*
X487694Y276700D01*
X490046Y270656D02*
X490046Y270300D01*
X490046Y270656D02*
X490402Y270656D01*
X490402Y270300D01*
X490046Y270300D01*
X492754Y270300D02*
X494532Y270300D01*
X494615Y270302D01*
X494698Y270308D01*
X494781Y270318D01*
X494864Y270331D01*
X494945Y270349D01*
X495026Y270370D01*
X495105Y270395D01*
X495183Y270424D01*
X495260Y270456D01*
X495335Y270492D01*
X495409Y270531D01*
X495480Y270574D01*
X495550Y270620D01*
X495617Y270670D01*
X495682Y270722D01*
X495744Y270777D01*
X495804Y270836D01*
X495861Y270897D01*
X495915Y270960D01*
X495966Y271026D01*
X496013Y271095D01*
X496058Y271165D01*
X496099Y271238D01*
X496136Y271312D01*
X496171Y271388D01*
X496201Y271466D01*
X496228Y271544D01*
X496251Y271625D01*
X496271Y271706D01*
X496286Y271788D01*
X496298Y271870D01*
X496306Y271953D01*
X496310Y272036D01*
X496310Y272120D01*
X496306Y272203D01*
X496298Y272286D01*
X496286Y272368D01*
X496271Y272450D01*
X496251Y272531D01*
X496228Y272612D01*
X496201Y272690D01*
X496171Y272768D01*
X496136Y272844D01*
X496099Y272918D01*
X496058Y272991D01*
X496013Y273061D01*
X495966Y273130D01*
X495915Y273196D01*
X495861Y273259D01*
X495804Y273320D01*
X495744Y273379D01*
X495682Y273434D01*
X495617Y273486D01*
X495550Y273536D01*
X495480Y273582D01*
X495409Y273625D01*
X495335Y273664D01*
X495260Y273700D01*
X495183Y273732D01*
X495105Y273761D01*
X495026Y273786D01*
X494945Y273807D01*
X494864Y273825D01*
X494781Y273838D01*
X494698Y273848D01*
X494615Y273854D01*
X494532Y273856D01*
X494887Y276700D02*
X492754Y276700D01*
X494887Y276700D02*
X494961Y276698D01*
X495036Y276692D01*
X495109Y276682D01*
X495183Y276669D01*
X495255Y276652D01*
X495326Y276630D01*
X495397Y276606D01*
X495465Y276577D01*
X495533Y276545D01*
X495598Y276509D01*
X495661Y276471D01*
X495723Y276428D01*
X495782Y276383D01*
X495839Y276335D01*
X495893Y276284D01*
X495944Y276230D01*
X495992Y276173D01*
X496037Y276114D01*
X496080Y276052D01*
X496118Y275989D01*
X496154Y275924D01*
X496186Y275856D01*
X496215Y275788D01*
X496239Y275717D01*
X496261Y275646D01*
X496278Y275574D01*
X496291Y275500D01*
X496301Y275427D01*
X496307Y275352D01*
X496309Y275278D01*
X496307Y275204D01*
X496301Y275129D01*
X496291Y275056D01*
X496278Y274982D01*
X496261Y274910D01*
X496239Y274839D01*
X496215Y274768D01*
X496186Y274700D01*
X496154Y274632D01*
X496118Y274567D01*
X496080Y274504D01*
X496037Y274442D01*
X495992Y274383D01*
X495944Y274326D01*
X495893Y274272D01*
X495839Y274221D01*
X495782Y274173D01*
X495723Y274128D01*
X495661Y274085D01*
X495598Y274047D01*
X495533Y274011D01*
X495465Y273979D01*
X495397Y273950D01*
X495326Y273926D01*
X495255Y273904D01*
X495183Y273887D01*
X495109Y273874D01*
X495036Y273864D01*
X494961Y273858D01*
X494887Y273856D01*
X493465Y273856D01*
X498908Y273500D02*
X498910Y273641D01*
X498916Y273781D01*
X498925Y273922D01*
X498938Y274062D01*
X498955Y274202D01*
X498975Y274341D01*
X499000Y274479D01*
X499028Y274617D01*
X499059Y274754D01*
X499095Y274891D01*
X499134Y275026D01*
X499176Y275160D01*
X499222Y275293D01*
X499272Y275425D01*
X499325Y275555D01*
X499381Y275684D01*
X499441Y275811D01*
X499466Y275877D01*
X499494Y275942D01*
X499526Y276006D01*
X499561Y276067D01*
X499600Y276127D01*
X499641Y276185D01*
X499686Y276240D01*
X499734Y276292D01*
X499784Y276342D01*
X499837Y276390D01*
X499892Y276434D01*
X499950Y276475D01*
X500010Y276513D01*
X500072Y276548D01*
X500136Y276579D01*
X500201Y276607D01*
X500268Y276632D01*
X500335Y276652D01*
X500404Y276669D01*
X500474Y276683D01*
X500544Y276692D01*
X500615Y276698D01*
X500686Y276700D01*
X500757Y276698D01*
X500828Y276692D01*
X500898Y276683D01*
X500968Y276669D01*
X501037Y276652D01*
X501104Y276632D01*
X501171Y276607D01*
X501236Y276579D01*
X501300Y276548D01*
X501362Y276513D01*
X501422Y276475D01*
X501480Y276434D01*
X501535Y276390D01*
X501588Y276342D01*
X501638Y276292D01*
X501686Y276240D01*
X501731Y276185D01*
X501772Y276127D01*
X501811Y276067D01*
X501846Y276006D01*
X501878Y275942D01*
X501906Y275877D01*
X501931Y275811D01*
X501930Y275811D02*
X501990Y275684D01*
X502046Y275555D01*
X502099Y275425D01*
X502149Y275293D01*
X502195Y275160D01*
X502237Y275026D01*
X502276Y274891D01*
X502312Y274754D01*
X502343Y274617D01*
X502371Y274479D01*
X502396Y274341D01*
X502416Y274202D01*
X502433Y274062D01*
X502446Y273922D01*
X502455Y273781D01*
X502461Y273641D01*
X502463Y273500D01*
X498908Y273500D02*
X498910Y273359D01*
X498916Y273219D01*
X498925Y273078D01*
X498938Y272938D01*
X498955Y272798D01*
X498975Y272659D01*
X499000Y272521D01*
X499028Y272383D01*
X499059Y272246D01*
X499095Y272109D01*
X499134Y271974D01*
X499176Y271840D01*
X499222Y271707D01*
X499272Y271575D01*
X499325Y271445D01*
X499381Y271316D01*
X499441Y271189D01*
X499466Y271123D01*
X499494Y271058D01*
X499526Y270994D01*
X499561Y270933D01*
X499600Y270873D01*
X499641Y270815D01*
X499686Y270760D01*
X499734Y270708D01*
X499784Y270658D01*
X499837Y270610D01*
X499892Y270566D01*
X499950Y270525D01*
X500010Y270487D01*
X500072Y270452D01*
X500136Y270421D01*
X500201Y270393D01*
X500268Y270368D01*
X500335Y270348D01*
X500404Y270331D01*
X500474Y270317D01*
X500544Y270308D01*
X500615Y270302D01*
X500686Y270300D01*
X501930Y271189D02*
X501990Y271316D01*
X502046Y271445D01*
X502099Y271575D01*
X502149Y271707D01*
X502195Y271840D01*
X502237Y271974D01*
X502276Y272109D01*
X502312Y272246D01*
X502343Y272383D01*
X502371Y272521D01*
X502396Y272659D01*
X502416Y272798D01*
X502433Y272938D01*
X502446Y273078D01*
X502455Y273219D01*
X502461Y273359D01*
X502463Y273500D01*
X501931Y271189D02*
X501906Y271123D01*
X501878Y271058D01*
X501846Y270994D01*
X501811Y270933D01*
X501772Y270873D01*
X501731Y270815D01*
X501686Y270760D01*
X501638Y270708D01*
X501588Y270658D01*
X501535Y270610D01*
X501479Y270566D01*
X501422Y270525D01*
X501362Y270487D01*
X501300Y270452D01*
X501236Y270421D01*
X501171Y270393D01*
X501104Y270368D01*
X501037Y270348D01*
X500968Y270331D01*
X500898Y270317D01*
X500828Y270308D01*
X500757Y270302D01*
X500686Y270300D01*
X499263Y271722D02*
X502108Y275278D01*
X508523Y276700D02*
X508523Y270300D01*
X510301Y270300D01*
X510365Y270302D01*
X510430Y270308D01*
X510493Y270317D01*
X510556Y270331D01*
X510618Y270348D01*
X510679Y270369D01*
X510739Y270394D01*
X510797Y270422D01*
X510853Y270454D01*
X510907Y270489D01*
X510959Y270527D01*
X511009Y270568D01*
X511055Y270613D01*
X511100Y270659D01*
X511141Y270709D01*
X511179Y270761D01*
X511214Y270815D01*
X511246Y270871D01*
X511274Y270929D01*
X511299Y270989D01*
X511320Y271050D01*
X511337Y271112D01*
X511351Y271175D01*
X511360Y271238D01*
X511366Y271303D01*
X511368Y271367D01*
X511368Y273500D01*
X511366Y273564D01*
X511360Y273629D01*
X511351Y273692D01*
X511337Y273755D01*
X511320Y273817D01*
X511299Y273878D01*
X511274Y273938D01*
X511246Y273996D01*
X511214Y274052D01*
X511179Y274106D01*
X511141Y274158D01*
X511100Y274208D01*
X511055Y274254D01*
X511009Y274299D01*
X510959Y274340D01*
X510907Y274378D01*
X510853Y274413D01*
X510797Y274445D01*
X510739Y274473D01*
X510679Y274498D01*
X510618Y274519D01*
X510556Y274536D01*
X510493Y274550D01*
X510430Y274559D01*
X510365Y274565D01*
X510301Y274567D01*
X508523Y274567D01*
X513623Y268167D02*
X514334Y268167D01*
X516467Y274567D01*
X513623Y274567D02*
X515045Y270300D01*
X522272Y270300D02*
X522272Y274567D01*
X524405Y274567D01*
X524405Y273856D01*
X526327Y274567D02*
X526327Y270300D01*
X526150Y276344D02*
X526150Y276700D01*
X526505Y276700D01*
X526505Y276344D01*
X526150Y276344D01*
X529390Y275811D02*
X529330Y275684D01*
X529274Y275555D01*
X529221Y275425D01*
X529171Y275293D01*
X529125Y275160D01*
X529083Y275026D01*
X529044Y274891D01*
X529008Y274754D01*
X528977Y274617D01*
X528949Y274479D01*
X528924Y274341D01*
X528904Y274202D01*
X528887Y274062D01*
X528874Y273922D01*
X528865Y273781D01*
X528859Y273641D01*
X528857Y273500D01*
X529390Y275811D02*
X529415Y275877D01*
X529443Y275942D01*
X529475Y276006D01*
X529510Y276067D01*
X529549Y276127D01*
X529590Y276185D01*
X529635Y276240D01*
X529683Y276292D01*
X529733Y276342D01*
X529786Y276390D01*
X529841Y276434D01*
X529899Y276475D01*
X529959Y276513D01*
X530021Y276548D01*
X530085Y276579D01*
X530150Y276607D01*
X530217Y276632D01*
X530284Y276652D01*
X530353Y276669D01*
X530423Y276683D01*
X530493Y276692D01*
X530564Y276698D01*
X530635Y276700D01*
X530706Y276698D01*
X530777Y276692D01*
X530847Y276683D01*
X530917Y276669D01*
X530986Y276652D01*
X531053Y276632D01*
X531120Y276607D01*
X531185Y276579D01*
X531249Y276548D01*
X531311Y276513D01*
X531371Y276475D01*
X531429Y276434D01*
X531484Y276390D01*
X531537Y276342D01*
X531587Y276292D01*
X531635Y276240D01*
X531680Y276185D01*
X531721Y276127D01*
X531760Y276067D01*
X531795Y276006D01*
X531827Y275942D01*
X531855Y275877D01*
X531880Y275811D01*
X531940Y275684D01*
X531996Y275555D01*
X532049Y275425D01*
X532099Y275293D01*
X532145Y275160D01*
X532187Y275026D01*
X532226Y274891D01*
X532262Y274754D01*
X532293Y274617D01*
X532321Y274479D01*
X532346Y274341D01*
X532366Y274202D01*
X532383Y274062D01*
X532396Y273922D01*
X532405Y273781D01*
X532411Y273641D01*
X532413Y273500D01*
X528858Y273500D02*
X528860Y273359D01*
X528866Y273219D01*
X528875Y273078D01*
X528888Y272938D01*
X528905Y272798D01*
X528925Y272659D01*
X528950Y272521D01*
X528978Y272383D01*
X529009Y272246D01*
X529045Y272109D01*
X529084Y271974D01*
X529126Y271840D01*
X529172Y271707D01*
X529222Y271575D01*
X529275Y271445D01*
X529331Y271316D01*
X529391Y271189D01*
X529390Y271189D02*
X529415Y271123D01*
X529443Y271058D01*
X529475Y270994D01*
X529510Y270933D01*
X529549Y270873D01*
X529590Y270815D01*
X529635Y270760D01*
X529683Y270708D01*
X529733Y270658D01*
X529786Y270610D01*
X529841Y270566D01*
X529899Y270525D01*
X529959Y270487D01*
X530021Y270452D01*
X530085Y270421D01*
X530150Y270393D01*
X530217Y270368D01*
X530284Y270348D01*
X530353Y270331D01*
X530423Y270317D01*
X530493Y270308D01*
X530564Y270302D01*
X530635Y270300D01*
X531880Y271189D02*
X531940Y271316D01*
X531996Y271445D01*
X532049Y271575D01*
X532099Y271707D01*
X532145Y271840D01*
X532187Y271974D01*
X532226Y272109D01*
X532262Y272246D01*
X532293Y272383D01*
X532321Y272521D01*
X532346Y272659D01*
X532366Y272798D01*
X532383Y272938D01*
X532396Y273078D01*
X532405Y273219D01*
X532411Y273359D01*
X532413Y273500D01*
X531880Y271189D02*
X531855Y271123D01*
X531827Y271058D01*
X531795Y270994D01*
X531760Y270933D01*
X531721Y270873D01*
X531680Y270815D01*
X531635Y270760D01*
X531587Y270708D01*
X531537Y270658D01*
X531484Y270610D01*
X531428Y270566D01*
X531371Y270525D01*
X531311Y270487D01*
X531249Y270452D01*
X531185Y270421D01*
X531120Y270393D01*
X531053Y270368D01*
X530986Y270348D01*
X530917Y270331D01*
X530847Y270317D01*
X530777Y270308D01*
X530706Y270302D01*
X530635Y270300D01*
X529213Y271722D02*
X532057Y275278D01*
X535011Y275278D02*
X536789Y276700D01*
X536789Y270300D01*
X535011Y270300D02*
X538567Y270300D01*
X541165Y275278D02*
X542943Y276700D01*
X542943Y270300D01*
X541165Y270300D02*
X544721Y270300D01*
X547319Y271722D02*
X548742Y276700D01*
X547319Y271722D02*
X550875Y271722D01*
X549808Y273144D02*
X549808Y270300D01*
X553690Y270300D02*
X553690Y276700D01*
X556535Y274567D02*
X553690Y272433D01*
X554935Y273322D02*
X556535Y270300D01*
X558547Y270300D02*
X561392Y274567D01*
X558547Y274567D02*
X561392Y270300D01*
D11*
X384233Y216831D02*
X382700Y212231D01*
X385767Y212231D02*
X384233Y216831D01*
X385383Y213381D02*
X383083Y213381D01*
X387456Y212231D02*
X388989Y212231D01*
X388989Y212232D02*
X389051Y212234D01*
X389112Y212239D01*
X389173Y212249D01*
X389234Y212262D01*
X389293Y212278D01*
X389351Y212298D01*
X389408Y212322D01*
X389464Y212349D01*
X389518Y212379D01*
X389570Y212413D01*
X389619Y212449D01*
X389667Y212489D01*
X389712Y212531D01*
X389754Y212576D01*
X389794Y212624D01*
X389830Y212673D01*
X389864Y212725D01*
X389894Y212779D01*
X389921Y212835D01*
X389945Y212892D01*
X389965Y212950D01*
X389981Y213009D01*
X389994Y213070D01*
X390004Y213131D01*
X390009Y213192D01*
X390011Y213254D01*
X390011Y213765D01*
X390009Y213827D01*
X390004Y213888D01*
X389994Y213949D01*
X389981Y214010D01*
X389965Y214069D01*
X389945Y214127D01*
X389921Y214184D01*
X389894Y214240D01*
X389864Y214294D01*
X389830Y214346D01*
X389794Y214395D01*
X389754Y214443D01*
X389712Y214488D01*
X389667Y214530D01*
X389619Y214570D01*
X389570Y214606D01*
X389518Y214640D01*
X389464Y214670D01*
X389408Y214697D01*
X389351Y214721D01*
X389293Y214741D01*
X389234Y214757D01*
X389173Y214770D01*
X389112Y214780D01*
X389051Y214785D01*
X388989Y214787D01*
X387456Y214787D01*
X387456Y216831D01*
X390011Y216831D01*
X382700Y222231D02*
X384233Y226831D01*
X385767Y222231D01*
X385383Y223381D02*
X383083Y223381D01*
X387456Y223254D02*
X388478Y226831D01*
X387456Y223254D02*
X390011Y223254D01*
X389244Y224276D02*
X389244Y222231D01*
X382700Y232231D02*
X384233Y236831D01*
X385767Y232231D01*
X385383Y233381D02*
X383083Y233381D01*
X387456Y232231D02*
X388733Y232231D01*
X388803Y232233D01*
X388874Y232239D01*
X388943Y232248D01*
X389012Y232262D01*
X389081Y232279D01*
X389148Y232300D01*
X389214Y232325D01*
X389278Y232353D01*
X389341Y232385D01*
X389402Y232420D01*
X389461Y232459D01*
X389518Y232500D01*
X389572Y232545D01*
X389624Y232593D01*
X389673Y232643D01*
X389720Y232697D01*
X389763Y232752D01*
X389803Y232810D01*
X389840Y232870D01*
X389873Y232932D01*
X389903Y232996D01*
X389930Y233061D01*
X389953Y233127D01*
X389972Y233195D01*
X389987Y233264D01*
X389999Y233333D01*
X390007Y233403D01*
X390011Y233474D01*
X390011Y233544D01*
X390007Y233615D01*
X389999Y233685D01*
X389987Y233754D01*
X389972Y233823D01*
X389953Y233891D01*
X389930Y233957D01*
X389903Y234022D01*
X389873Y234086D01*
X389840Y234148D01*
X389803Y234208D01*
X389763Y234266D01*
X389720Y234321D01*
X389673Y234375D01*
X389624Y234425D01*
X389572Y234473D01*
X389518Y234518D01*
X389461Y234559D01*
X389402Y234598D01*
X389341Y234633D01*
X389278Y234665D01*
X389214Y234693D01*
X389148Y234718D01*
X389081Y234739D01*
X389012Y234756D01*
X388943Y234770D01*
X388874Y234779D01*
X388803Y234785D01*
X388733Y234787D01*
X388989Y236831D02*
X387456Y236831D01*
X388989Y236831D02*
X389052Y236829D01*
X389115Y236823D01*
X389177Y236814D01*
X389238Y236800D01*
X389299Y236783D01*
X389358Y236762D01*
X389416Y236737D01*
X389473Y236709D01*
X389527Y236678D01*
X389579Y236643D01*
X389630Y236605D01*
X389678Y236564D01*
X389723Y236520D01*
X389765Y236474D01*
X389805Y236425D01*
X389841Y236374D01*
X389874Y236320D01*
X389904Y236265D01*
X389930Y236207D01*
X389953Y236149D01*
X389972Y236089D01*
X389987Y236028D01*
X389999Y235966D01*
X390007Y235903D01*
X390011Y235840D01*
X390011Y235778D01*
X390007Y235715D01*
X389999Y235652D01*
X389987Y235590D01*
X389972Y235529D01*
X389953Y235469D01*
X389930Y235411D01*
X389904Y235353D01*
X389874Y235298D01*
X389841Y235244D01*
X389805Y235193D01*
X389765Y235144D01*
X389723Y235098D01*
X389678Y235054D01*
X389630Y235013D01*
X389579Y234975D01*
X389527Y234940D01*
X389473Y234909D01*
X389416Y234881D01*
X389358Y234856D01*
X389299Y234835D01*
X389238Y234818D01*
X389177Y234804D01*
X389115Y234795D01*
X389052Y234789D01*
X388989Y234787D01*
X387967Y234787D01*
X382700Y242231D02*
X384233Y246831D01*
X385767Y242231D01*
X385383Y243381D02*
X383083Y243381D01*
X388861Y246831D02*
X388928Y246829D01*
X388995Y246823D01*
X389061Y246814D01*
X389126Y246800D01*
X389191Y246783D01*
X389254Y246762D01*
X389316Y246737D01*
X389377Y246709D01*
X389436Y246677D01*
X389493Y246642D01*
X389548Y246603D01*
X389600Y246562D01*
X389650Y246517D01*
X389697Y246470D01*
X389742Y246420D01*
X389783Y246368D01*
X389822Y246313D01*
X389857Y246256D01*
X389889Y246197D01*
X389917Y246136D01*
X389942Y246074D01*
X389963Y246011D01*
X389980Y245946D01*
X389994Y245881D01*
X390003Y245815D01*
X390009Y245748D01*
X390011Y245681D01*
X388861Y246831D02*
X388787Y246829D01*
X388713Y246824D01*
X388639Y246814D01*
X388566Y246801D01*
X388493Y246785D01*
X388422Y246764D01*
X388352Y246740D01*
X388283Y246713D01*
X388215Y246682D01*
X388149Y246648D01*
X388085Y246611D01*
X388023Y246570D01*
X387963Y246526D01*
X387905Y246480D01*
X387849Y246430D01*
X387796Y246378D01*
X387746Y246323D01*
X387699Y246266D01*
X387655Y246206D01*
X387613Y246144D01*
X387575Y246081D01*
X387540Y246015D01*
X387509Y245948D01*
X387481Y245879D01*
X387456Y245809D01*
X389628Y244787D02*
X389675Y244834D01*
X389719Y244884D01*
X389761Y244936D01*
X389800Y244990D01*
X389835Y245046D01*
X389868Y245104D01*
X389898Y245164D01*
X389924Y245225D01*
X389947Y245288D01*
X389966Y245352D01*
X389982Y245416D01*
X389995Y245482D01*
X390004Y245548D01*
X390009Y245614D01*
X390011Y245681D01*
X389628Y244787D02*
X387456Y242231D01*
X390011Y242231D01*
X382700Y252231D02*
X384233Y256831D01*
X385767Y252231D01*
X385383Y253381D02*
X383083Y253381D01*
X387456Y255809D02*
X388733Y256831D01*
X388733Y252231D01*
X387456Y252231D02*
X390011Y252231D01*
X382700Y262231D02*
X384233Y266831D01*
X385767Y262231D01*
X385383Y263381D02*
X383083Y263381D01*
X387455Y264531D02*
X387457Y264646D01*
X387462Y264760D01*
X387471Y264874D01*
X387483Y264988D01*
X387498Y265102D01*
X387517Y265215D01*
X387540Y265327D01*
X387565Y265439D01*
X387595Y265550D01*
X387627Y265660D01*
X387663Y265769D01*
X387702Y265877D01*
X387744Y265983D01*
X387790Y266088D01*
X387838Y266192D01*
X387838Y266193D02*
X387859Y266248D01*
X387883Y266301D01*
X387910Y266353D01*
X387941Y266403D01*
X387974Y266451D01*
X388011Y266497D01*
X388050Y266541D01*
X388092Y266582D01*
X388136Y266620D01*
X388183Y266656D01*
X388232Y266688D01*
X388283Y266718D01*
X388335Y266744D01*
X388389Y266767D01*
X388444Y266787D01*
X388501Y266803D01*
X388558Y266816D01*
X388616Y266825D01*
X388674Y266830D01*
X388733Y266832D01*
X388792Y266830D01*
X388850Y266825D01*
X388908Y266816D01*
X388965Y266803D01*
X389022Y266787D01*
X389077Y266767D01*
X389131Y266744D01*
X389183Y266718D01*
X389234Y266688D01*
X389283Y266656D01*
X389330Y266620D01*
X389374Y266582D01*
X389416Y266541D01*
X389455Y266497D01*
X389492Y266451D01*
X389525Y266403D01*
X389556Y266353D01*
X389583Y266301D01*
X389607Y266248D01*
X389628Y266193D01*
X389628Y266192D02*
X389676Y266088D01*
X389722Y265983D01*
X389764Y265877D01*
X389803Y265769D01*
X389839Y265660D01*
X389871Y265550D01*
X389901Y265439D01*
X389926Y265327D01*
X389949Y265215D01*
X389968Y265102D01*
X389983Y264988D01*
X389995Y264874D01*
X390004Y264760D01*
X390009Y264646D01*
X390011Y264531D01*
X387455Y264531D02*
X387457Y264416D01*
X387462Y264302D01*
X387471Y264188D01*
X387483Y264074D01*
X387498Y263960D01*
X387517Y263847D01*
X387540Y263735D01*
X387565Y263623D01*
X387595Y263512D01*
X387627Y263402D01*
X387663Y263293D01*
X387702Y263185D01*
X387744Y263079D01*
X387790Y262974D01*
X387838Y262870D01*
X387859Y262815D01*
X387883Y262762D01*
X387910Y262710D01*
X387941Y262660D01*
X387974Y262612D01*
X388011Y262566D01*
X388050Y262522D01*
X388092Y262481D01*
X388136Y262443D01*
X388183Y262407D01*
X388232Y262375D01*
X388283Y262345D01*
X388335Y262319D01*
X388389Y262296D01*
X388444Y262276D01*
X388501Y262260D01*
X388558Y262247D01*
X388616Y262238D01*
X388674Y262233D01*
X388733Y262231D01*
X389628Y262870D02*
X389676Y262974D01*
X389722Y263079D01*
X389764Y263185D01*
X389803Y263293D01*
X389839Y263402D01*
X389871Y263512D01*
X389901Y263623D01*
X389926Y263735D01*
X389949Y263847D01*
X389968Y263960D01*
X389983Y264074D01*
X389995Y264188D01*
X390004Y264302D01*
X390009Y264416D01*
X390011Y264531D01*
X389628Y262870D02*
X389607Y262815D01*
X389583Y262762D01*
X389556Y262710D01*
X389525Y262660D01*
X389492Y262612D01*
X389455Y262566D01*
X389416Y262522D01*
X389374Y262481D01*
X389330Y262443D01*
X389283Y262407D01*
X389234Y262375D01*
X389183Y262345D01*
X389131Y262319D01*
X389077Y262296D01*
X389022Y262276D01*
X388965Y262260D01*
X388908Y262247D01*
X388850Y262238D01*
X388792Y262233D01*
X388733Y262231D01*
X387711Y263254D02*
X389756Y265809D01*
X384233Y282231D02*
X382700Y286831D01*
X385767Y286831D02*
X384233Y282231D01*
X387383Y282231D02*
X387383Y285298D01*
X387256Y286576D02*
X387256Y286831D01*
X387511Y286831D01*
X387511Y286576D01*
X387256Y286576D01*
X389361Y285298D02*
X389361Y282231D01*
X389361Y285298D02*
X390639Y285298D01*
X390694Y285296D01*
X390748Y285290D01*
X390802Y285280D01*
X390855Y285267D01*
X390907Y285250D01*
X390958Y285229D01*
X391007Y285204D01*
X391054Y285176D01*
X391099Y285145D01*
X391141Y285111D01*
X391181Y285073D01*
X391219Y285033D01*
X391253Y284991D01*
X391284Y284946D01*
X391312Y284899D01*
X391337Y284850D01*
X391358Y284799D01*
X391375Y284747D01*
X391388Y284694D01*
X391398Y284640D01*
X391404Y284586D01*
X391406Y284531D01*
X391406Y282231D01*
X385256Y294787D02*
X384489Y294787D01*
X385256Y294787D02*
X385256Y292231D01*
X383722Y292231D01*
X383722Y292232D02*
X383660Y292234D01*
X383599Y292239D01*
X383538Y292249D01*
X383477Y292262D01*
X383418Y292278D01*
X383360Y292298D01*
X383303Y292322D01*
X383247Y292349D01*
X383193Y292379D01*
X383141Y292413D01*
X383092Y292449D01*
X383044Y292489D01*
X382999Y292531D01*
X382957Y292576D01*
X382917Y292624D01*
X382881Y292673D01*
X382847Y292725D01*
X382817Y292779D01*
X382790Y292835D01*
X382766Y292892D01*
X382746Y292950D01*
X382730Y293009D01*
X382717Y293070D01*
X382707Y293131D01*
X382702Y293192D01*
X382700Y293254D01*
X382700Y295809D01*
X382702Y295871D01*
X382707Y295932D01*
X382717Y295993D01*
X382730Y296054D01*
X382746Y296113D01*
X382766Y296171D01*
X382790Y296228D01*
X382817Y296284D01*
X382847Y296338D01*
X382881Y296390D01*
X382917Y296439D01*
X382957Y296487D01*
X382999Y296532D01*
X383044Y296574D01*
X383092Y296613D01*
X383141Y296650D01*
X383193Y296684D01*
X383247Y296714D01*
X383303Y296741D01*
X383360Y296765D01*
X383418Y296785D01*
X383477Y296801D01*
X383538Y296814D01*
X383599Y296824D01*
X383660Y296829D01*
X383722Y296831D01*
X385256Y296831D01*
X387456Y295298D02*
X387456Y292231D01*
X387456Y295298D02*
X388733Y295298D01*
X388788Y295296D01*
X388842Y295290D01*
X388896Y295280D01*
X388949Y295267D01*
X389001Y295250D01*
X389052Y295229D01*
X389101Y295204D01*
X389148Y295176D01*
X389193Y295145D01*
X389235Y295111D01*
X389275Y295073D01*
X389313Y295033D01*
X389347Y294991D01*
X389378Y294946D01*
X389406Y294899D01*
X389431Y294850D01*
X389452Y294799D01*
X389469Y294747D01*
X389482Y294694D01*
X389492Y294640D01*
X389498Y294586D01*
X389500Y294531D01*
X389500Y292231D01*
X393527Y292231D02*
X393527Y296831D01*
X393527Y292231D02*
X392249Y292231D01*
X392194Y292233D01*
X392140Y292239D01*
X392086Y292249D01*
X392033Y292262D01*
X391981Y292279D01*
X391930Y292300D01*
X391881Y292325D01*
X391834Y292353D01*
X391789Y292384D01*
X391747Y292418D01*
X391707Y292456D01*
X391669Y292496D01*
X391635Y292538D01*
X391604Y292583D01*
X391576Y292630D01*
X391551Y292679D01*
X391530Y292730D01*
X391513Y292782D01*
X391500Y292835D01*
X391490Y292889D01*
X391484Y292943D01*
X391482Y292998D01*
X391482Y294531D01*
X391484Y294586D01*
X391490Y294640D01*
X391500Y294694D01*
X391513Y294747D01*
X391530Y294799D01*
X391551Y294850D01*
X391576Y294899D01*
X391604Y294946D01*
X391635Y294991D01*
X391669Y295033D01*
X391707Y295073D01*
X391747Y295111D01*
X391789Y295145D01*
X391834Y295176D01*
X391881Y295204D01*
X391930Y295229D01*
X391981Y295250D01*
X392033Y295267D01*
X392086Y295280D01*
X392140Y295290D01*
X392194Y295296D01*
X392249Y295298D01*
X393527Y295298D01*
X385256Y304787D02*
X384489Y304787D01*
X385256Y304787D02*
X385256Y302231D01*
X383722Y302231D01*
X383722Y302232D02*
X383660Y302234D01*
X383599Y302239D01*
X383538Y302249D01*
X383477Y302262D01*
X383418Y302278D01*
X383360Y302298D01*
X383303Y302322D01*
X383247Y302349D01*
X383193Y302379D01*
X383141Y302413D01*
X383092Y302449D01*
X383044Y302489D01*
X382999Y302531D01*
X382957Y302576D01*
X382917Y302624D01*
X382881Y302673D01*
X382847Y302725D01*
X382817Y302779D01*
X382790Y302835D01*
X382766Y302892D01*
X382746Y302950D01*
X382730Y303009D01*
X382717Y303070D01*
X382707Y303131D01*
X382702Y303192D01*
X382700Y303254D01*
X382700Y305809D01*
X382702Y305871D01*
X382707Y305932D01*
X382717Y305993D01*
X382730Y306054D01*
X382746Y306113D01*
X382766Y306171D01*
X382790Y306228D01*
X382817Y306284D01*
X382847Y306338D01*
X382881Y306390D01*
X382917Y306439D01*
X382957Y306487D01*
X382999Y306532D01*
X383044Y306574D01*
X383092Y306613D01*
X383141Y306650D01*
X383193Y306684D01*
X383247Y306714D01*
X383303Y306741D01*
X383360Y306765D01*
X383418Y306785D01*
X383477Y306801D01*
X383538Y306814D01*
X383599Y306824D01*
X383660Y306829D01*
X383722Y306831D01*
X385256Y306831D01*
X387456Y305298D02*
X387456Y302231D01*
X387456Y305298D02*
X388733Y305298D01*
X388788Y305296D01*
X388842Y305290D01*
X388896Y305280D01*
X388949Y305267D01*
X389001Y305250D01*
X389052Y305229D01*
X389101Y305204D01*
X389148Y305176D01*
X389193Y305145D01*
X389235Y305111D01*
X389275Y305073D01*
X389313Y305033D01*
X389347Y304991D01*
X389378Y304946D01*
X389406Y304899D01*
X389431Y304850D01*
X389452Y304799D01*
X389469Y304747D01*
X389482Y304694D01*
X389492Y304640D01*
X389498Y304586D01*
X389500Y304531D01*
X389500Y302231D01*
X393527Y302231D02*
X393527Y306831D01*
X393527Y302231D02*
X392249Y302231D01*
X392194Y302233D01*
X392140Y302239D01*
X392086Y302249D01*
X392033Y302262D01*
X391981Y302279D01*
X391930Y302300D01*
X391881Y302325D01*
X391834Y302353D01*
X391789Y302384D01*
X391747Y302418D01*
X391707Y302456D01*
X391669Y302496D01*
X391635Y302538D01*
X391604Y302583D01*
X391576Y302630D01*
X391551Y302679D01*
X391530Y302730D01*
X391513Y302782D01*
X391500Y302835D01*
X391490Y302889D01*
X391484Y302943D01*
X391482Y302998D01*
X391482Y304531D01*
X391484Y304586D01*
X391490Y304640D01*
X391500Y304694D01*
X391513Y304747D01*
X391530Y304799D01*
X391551Y304850D01*
X391576Y304899D01*
X391604Y304946D01*
X391635Y304991D01*
X391669Y305033D01*
X391707Y305073D01*
X391747Y305111D01*
X391789Y305145D01*
X391834Y305176D01*
X391881Y305204D01*
X391930Y305229D01*
X391981Y305250D01*
X392033Y305267D01*
X392086Y305280D01*
X392140Y305290D01*
X392194Y305296D01*
X392249Y305298D01*
X393527Y305298D01*
X384233Y312231D02*
X382700Y312231D01*
X384233Y312232D02*
X384295Y312234D01*
X384356Y312239D01*
X384417Y312249D01*
X384478Y312262D01*
X384537Y312278D01*
X384595Y312298D01*
X384652Y312322D01*
X384708Y312349D01*
X384762Y312379D01*
X384814Y312413D01*
X384863Y312449D01*
X384911Y312489D01*
X384956Y312531D01*
X384998Y312576D01*
X385038Y312624D01*
X385074Y312673D01*
X385108Y312725D01*
X385138Y312779D01*
X385165Y312835D01*
X385189Y312892D01*
X385209Y312950D01*
X385225Y313009D01*
X385238Y313070D01*
X385248Y313131D01*
X385253Y313192D01*
X385255Y313254D01*
X385256Y313254D02*
X385256Y313765D01*
X385255Y313765D02*
X385253Y313827D01*
X385248Y313888D01*
X385238Y313949D01*
X385225Y314010D01*
X385209Y314069D01*
X385189Y314127D01*
X385165Y314184D01*
X385138Y314240D01*
X385108Y314294D01*
X385074Y314346D01*
X385038Y314395D01*
X384998Y314443D01*
X384956Y314488D01*
X384911Y314530D01*
X384863Y314570D01*
X384814Y314606D01*
X384762Y314640D01*
X384708Y314670D01*
X384652Y314697D01*
X384595Y314721D01*
X384537Y314741D01*
X384478Y314757D01*
X384417Y314770D01*
X384356Y314780D01*
X384295Y314785D01*
X384233Y314787D01*
X382700Y314787D01*
X382700Y316831D01*
X385256Y316831D01*
X386944Y316831D02*
X388478Y312231D01*
X390011Y316831D01*
X383978Y322231D02*
X382700Y322231D01*
X383978Y322231D02*
X384048Y322233D01*
X384119Y322239D01*
X384188Y322248D01*
X384257Y322262D01*
X384326Y322279D01*
X384393Y322300D01*
X384459Y322325D01*
X384523Y322353D01*
X384586Y322385D01*
X384647Y322420D01*
X384706Y322459D01*
X384763Y322500D01*
X384817Y322545D01*
X384869Y322593D01*
X384918Y322643D01*
X384965Y322697D01*
X385008Y322752D01*
X385048Y322810D01*
X385085Y322870D01*
X385118Y322932D01*
X385148Y322996D01*
X385175Y323061D01*
X385198Y323127D01*
X385217Y323195D01*
X385232Y323264D01*
X385244Y323333D01*
X385252Y323403D01*
X385256Y323474D01*
X385256Y323544D01*
X385252Y323615D01*
X385244Y323685D01*
X385232Y323754D01*
X385217Y323823D01*
X385198Y323891D01*
X385175Y323957D01*
X385148Y324022D01*
X385118Y324086D01*
X385085Y324148D01*
X385048Y324208D01*
X385008Y324266D01*
X384965Y324321D01*
X384918Y324375D01*
X384869Y324425D01*
X384817Y324473D01*
X384763Y324518D01*
X384706Y324559D01*
X384647Y324598D01*
X384586Y324633D01*
X384523Y324665D01*
X384459Y324693D01*
X384393Y324718D01*
X384326Y324739D01*
X384257Y324756D01*
X384188Y324770D01*
X384119Y324779D01*
X384048Y324785D01*
X383978Y324787D01*
X384233Y326831D02*
X382700Y326831D01*
X384233Y326831D02*
X384296Y326829D01*
X384359Y326823D01*
X384421Y326814D01*
X384482Y326800D01*
X384543Y326783D01*
X384602Y326762D01*
X384660Y326737D01*
X384717Y326709D01*
X384771Y326678D01*
X384823Y326643D01*
X384874Y326605D01*
X384922Y326564D01*
X384967Y326520D01*
X385009Y326474D01*
X385049Y326425D01*
X385085Y326374D01*
X385118Y326320D01*
X385148Y326265D01*
X385174Y326207D01*
X385197Y326149D01*
X385216Y326089D01*
X385231Y326028D01*
X385243Y325966D01*
X385251Y325903D01*
X385255Y325840D01*
X385255Y325778D01*
X385251Y325715D01*
X385243Y325652D01*
X385231Y325590D01*
X385216Y325529D01*
X385197Y325469D01*
X385174Y325411D01*
X385148Y325353D01*
X385118Y325298D01*
X385085Y325244D01*
X385049Y325193D01*
X385009Y325144D01*
X384967Y325098D01*
X384922Y325054D01*
X384874Y325013D01*
X384823Y324975D01*
X384771Y324940D01*
X384717Y324909D01*
X384660Y324881D01*
X384602Y324856D01*
X384543Y324835D01*
X384482Y324818D01*
X384421Y324804D01*
X384359Y324795D01*
X384296Y324789D01*
X384233Y324787D01*
X383211Y324787D01*
X386944Y326831D02*
X388478Y322231D01*
X390011Y326831D01*
X391700Y322231D02*
X392978Y322231D01*
X393048Y322233D01*
X393119Y322239D01*
X393188Y322248D01*
X393257Y322262D01*
X393326Y322279D01*
X393393Y322300D01*
X393459Y322325D01*
X393523Y322353D01*
X393586Y322385D01*
X393647Y322420D01*
X393706Y322459D01*
X393763Y322500D01*
X393817Y322545D01*
X393869Y322593D01*
X393918Y322643D01*
X393965Y322697D01*
X394008Y322752D01*
X394048Y322810D01*
X394085Y322870D01*
X394118Y322932D01*
X394148Y322996D01*
X394175Y323061D01*
X394198Y323127D01*
X394217Y323195D01*
X394232Y323264D01*
X394244Y323333D01*
X394252Y323403D01*
X394256Y323474D01*
X394256Y323544D01*
X394252Y323615D01*
X394244Y323685D01*
X394232Y323754D01*
X394217Y323823D01*
X394198Y323891D01*
X394175Y323957D01*
X394148Y324022D01*
X394118Y324086D01*
X394085Y324148D01*
X394048Y324208D01*
X394008Y324266D01*
X393965Y324321D01*
X393918Y324375D01*
X393869Y324425D01*
X393817Y324473D01*
X393763Y324518D01*
X393706Y324559D01*
X393647Y324598D01*
X393586Y324633D01*
X393523Y324665D01*
X393459Y324693D01*
X393393Y324718D01*
X393326Y324739D01*
X393257Y324756D01*
X393188Y324770D01*
X393119Y324779D01*
X393048Y324785D01*
X392978Y324787D01*
X393233Y326831D02*
X391700Y326831D01*
X393233Y326831D02*
X393296Y326829D01*
X393359Y326823D01*
X393421Y326814D01*
X393482Y326800D01*
X393543Y326783D01*
X393602Y326762D01*
X393660Y326737D01*
X393717Y326709D01*
X393771Y326678D01*
X393823Y326643D01*
X393874Y326605D01*
X393922Y326564D01*
X393967Y326520D01*
X394009Y326474D01*
X394049Y326425D01*
X394085Y326374D01*
X394118Y326320D01*
X394148Y326265D01*
X394174Y326207D01*
X394197Y326149D01*
X394216Y326089D01*
X394231Y326028D01*
X394243Y325966D01*
X394251Y325903D01*
X394255Y325840D01*
X394255Y325778D01*
X394251Y325715D01*
X394243Y325652D01*
X394231Y325590D01*
X394216Y325529D01*
X394197Y325469D01*
X394174Y325411D01*
X394148Y325353D01*
X394118Y325298D01*
X394085Y325244D01*
X394049Y325193D01*
X394009Y325144D01*
X393967Y325098D01*
X393922Y325054D01*
X393874Y325013D01*
X393823Y324975D01*
X393771Y324940D01*
X393717Y324909D01*
X393660Y324881D01*
X393602Y324856D01*
X393543Y324835D01*
X393482Y324818D01*
X393421Y324804D01*
X393359Y324795D01*
X393296Y324789D01*
X393233Y324787D01*
X392211Y324787D01*
X382700Y332231D02*
X382700Y336831D01*
X383978Y336831D01*
X383978Y336832D02*
X384048Y336830D01*
X384119Y336824D01*
X384188Y336815D01*
X384257Y336801D01*
X384326Y336784D01*
X384393Y336763D01*
X384459Y336738D01*
X384523Y336710D01*
X384586Y336678D01*
X384647Y336643D01*
X384706Y336604D01*
X384763Y336563D01*
X384817Y336518D01*
X384869Y336470D01*
X384918Y336420D01*
X384965Y336366D01*
X385008Y336311D01*
X385048Y336253D01*
X385085Y336193D01*
X385118Y336131D01*
X385148Y336067D01*
X385175Y336002D01*
X385198Y335936D01*
X385217Y335868D01*
X385232Y335799D01*
X385244Y335730D01*
X385252Y335660D01*
X385256Y335589D01*
X385256Y335519D01*
X385252Y335448D01*
X385244Y335378D01*
X385232Y335309D01*
X385217Y335240D01*
X385198Y335172D01*
X385175Y335106D01*
X385148Y335041D01*
X385118Y334977D01*
X385085Y334915D01*
X385048Y334855D01*
X385008Y334797D01*
X384965Y334742D01*
X384918Y334688D01*
X384869Y334638D01*
X384817Y334590D01*
X384763Y334545D01*
X384706Y334504D01*
X384647Y334465D01*
X384586Y334430D01*
X384523Y334398D01*
X384459Y334370D01*
X384393Y334345D01*
X384326Y334324D01*
X384257Y334307D01*
X384188Y334293D01*
X384119Y334284D01*
X384048Y334278D01*
X383978Y334276D01*
X382700Y334276D01*
X384233Y334276D02*
X385256Y332231D01*
X387893Y332231D02*
X389171Y332231D01*
X387893Y332231D02*
X387838Y332233D01*
X387784Y332239D01*
X387730Y332249D01*
X387677Y332262D01*
X387625Y332279D01*
X387574Y332300D01*
X387525Y332325D01*
X387478Y332353D01*
X387433Y332384D01*
X387391Y332418D01*
X387351Y332456D01*
X387313Y332496D01*
X387279Y332538D01*
X387248Y332583D01*
X387220Y332630D01*
X387195Y332679D01*
X387174Y332730D01*
X387157Y332782D01*
X387144Y332835D01*
X387134Y332889D01*
X387128Y332943D01*
X387126Y332998D01*
X387127Y332998D02*
X387127Y334276D01*
X387129Y334339D01*
X387135Y334402D01*
X387144Y334464D01*
X387158Y334525D01*
X387175Y334586D01*
X387196Y334645D01*
X387221Y334703D01*
X387249Y334760D01*
X387280Y334814D01*
X387315Y334866D01*
X387353Y334917D01*
X387394Y334965D01*
X387438Y335010D01*
X387484Y335052D01*
X387533Y335092D01*
X387584Y335128D01*
X387638Y335161D01*
X387693Y335191D01*
X387751Y335217D01*
X387809Y335240D01*
X387869Y335259D01*
X387930Y335274D01*
X387992Y335286D01*
X388055Y335294D01*
X388118Y335298D01*
X388180Y335298D01*
X388243Y335294D01*
X388306Y335286D01*
X388368Y335274D01*
X388429Y335259D01*
X388489Y335240D01*
X388547Y335217D01*
X388605Y335191D01*
X388660Y335161D01*
X388714Y335128D01*
X388765Y335092D01*
X388814Y335052D01*
X388860Y335010D01*
X388904Y334965D01*
X388945Y334917D01*
X388983Y334866D01*
X389018Y334814D01*
X389049Y334760D01*
X389077Y334703D01*
X389102Y334645D01*
X389123Y334586D01*
X389140Y334525D01*
X389154Y334464D01*
X389163Y334402D01*
X389169Y334339D01*
X389171Y334276D01*
X389171Y333765D01*
X387127Y333765D01*
X391410Y334020D02*
X392688Y333509D01*
X391410Y334020D02*
X391363Y334041D01*
X391318Y334066D01*
X391275Y334093D01*
X391235Y334124D01*
X391196Y334158D01*
X391161Y334195D01*
X391128Y334234D01*
X391099Y334276D01*
X391073Y334320D01*
X391050Y334366D01*
X391031Y334413D01*
X391016Y334462D01*
X391005Y334512D01*
X390997Y334563D01*
X390993Y334614D01*
X390994Y334665D01*
X390998Y334716D01*
X391006Y334766D01*
X391018Y334816D01*
X391034Y334864D01*
X391053Y334912D01*
X391076Y334957D01*
X391102Y335001D01*
X391132Y335042D01*
X391165Y335082D01*
X391201Y335118D01*
X391239Y335152D01*
X391280Y335182D01*
X391323Y335210D01*
X391369Y335233D01*
X391416Y335254D01*
X391464Y335271D01*
X391513Y335283D01*
X391564Y335293D01*
X391614Y335298D01*
X391665Y335299D01*
X391665Y335298D02*
X391764Y335295D01*
X391863Y335288D01*
X391961Y335278D01*
X392059Y335265D01*
X392157Y335249D01*
X392254Y335229D01*
X392350Y335206D01*
X392445Y335179D01*
X392539Y335150D01*
X392632Y335117D01*
X392725Y335081D01*
X392815Y335042D01*
X392688Y333510D02*
X392735Y333489D01*
X392780Y333464D01*
X392823Y333437D01*
X392863Y333406D01*
X392902Y333372D01*
X392937Y333335D01*
X392970Y333296D01*
X392999Y333254D01*
X393025Y333210D01*
X393048Y333164D01*
X393067Y333117D01*
X393082Y333068D01*
X393093Y333018D01*
X393101Y332967D01*
X393105Y332916D01*
X393104Y332865D01*
X393100Y332814D01*
X393092Y332764D01*
X393080Y332714D01*
X393064Y332666D01*
X393045Y332618D01*
X393022Y332573D01*
X392996Y332529D01*
X392966Y332488D01*
X392933Y332448D01*
X392897Y332412D01*
X392859Y332378D01*
X392818Y332348D01*
X392775Y332320D01*
X392729Y332297D01*
X392682Y332276D01*
X392634Y332259D01*
X392585Y332247D01*
X392534Y332237D01*
X392484Y332232D01*
X392433Y332231D01*
X392432Y332231D02*
X392302Y332235D01*
X392171Y332243D01*
X392042Y332255D01*
X391912Y332270D01*
X391783Y332290D01*
X391655Y332313D01*
X391527Y332340D01*
X391400Y332371D01*
X391275Y332406D01*
X391150Y332445D01*
X391027Y332487D01*
X395693Y332231D02*
X396971Y332231D01*
X395693Y332231D02*
X395638Y332233D01*
X395584Y332239D01*
X395530Y332249D01*
X395477Y332262D01*
X395425Y332279D01*
X395374Y332300D01*
X395325Y332325D01*
X395278Y332353D01*
X395233Y332384D01*
X395191Y332418D01*
X395151Y332456D01*
X395113Y332496D01*
X395079Y332538D01*
X395048Y332583D01*
X395020Y332630D01*
X394995Y332679D01*
X394974Y332730D01*
X394957Y332782D01*
X394944Y332835D01*
X394934Y332889D01*
X394928Y332943D01*
X394926Y332998D01*
X394927Y332998D02*
X394927Y334276D01*
X394929Y334339D01*
X394935Y334402D01*
X394944Y334464D01*
X394958Y334525D01*
X394975Y334586D01*
X394996Y334645D01*
X395021Y334703D01*
X395049Y334760D01*
X395080Y334814D01*
X395115Y334866D01*
X395153Y334917D01*
X395194Y334965D01*
X395238Y335010D01*
X395284Y335052D01*
X395333Y335092D01*
X395384Y335128D01*
X395438Y335161D01*
X395493Y335191D01*
X395551Y335217D01*
X395609Y335240D01*
X395669Y335259D01*
X395730Y335274D01*
X395792Y335286D01*
X395855Y335294D01*
X395918Y335298D01*
X395980Y335298D01*
X396043Y335294D01*
X396106Y335286D01*
X396168Y335274D01*
X396229Y335259D01*
X396289Y335240D01*
X396347Y335217D01*
X396405Y335191D01*
X396460Y335161D01*
X396514Y335128D01*
X396565Y335092D01*
X396614Y335052D01*
X396660Y335010D01*
X396704Y334965D01*
X396745Y334917D01*
X396783Y334866D01*
X396818Y334814D01*
X396849Y334760D01*
X396877Y334703D01*
X396902Y334645D01*
X396923Y334586D01*
X396940Y334525D01*
X396954Y334464D01*
X396963Y334402D01*
X396969Y334339D01*
X396971Y334276D01*
X396971Y333765D01*
X394927Y333765D01*
X398446Y335298D02*
X399979Y335298D01*
X398957Y336831D02*
X398957Y332998D01*
X398959Y332943D01*
X398965Y332889D01*
X398975Y332835D01*
X398988Y332782D01*
X399005Y332730D01*
X399026Y332679D01*
X399051Y332630D01*
X399079Y332583D01*
X399110Y332538D01*
X399144Y332496D01*
X399182Y332456D01*
X399222Y332418D01*
X399264Y332384D01*
X399309Y332353D01*
X399356Y332325D01*
X399405Y332300D01*
X399456Y332279D01*
X399508Y332262D01*
X399561Y332249D01*
X399615Y332239D01*
X399669Y332233D01*
X399724Y332231D01*
X399979Y332231D01*
X383211Y342231D02*
X383211Y346831D01*
X382700Y342231D02*
X383722Y342231D01*
X383722Y346831D02*
X382700Y346831D01*
X385533Y345554D02*
X385533Y343509D01*
X385533Y345554D02*
X385535Y345624D01*
X385541Y345695D01*
X385550Y345764D01*
X385564Y345833D01*
X385581Y345902D01*
X385602Y345969D01*
X385627Y346035D01*
X385655Y346099D01*
X385687Y346162D01*
X385722Y346223D01*
X385761Y346282D01*
X385802Y346339D01*
X385847Y346393D01*
X385895Y346445D01*
X385945Y346494D01*
X385999Y346541D01*
X386054Y346584D01*
X386112Y346624D01*
X386172Y346661D01*
X386234Y346694D01*
X386298Y346724D01*
X386363Y346751D01*
X386429Y346774D01*
X386497Y346793D01*
X386566Y346808D01*
X386635Y346820D01*
X386705Y346828D01*
X386776Y346832D01*
X386846Y346832D01*
X386917Y346828D01*
X386987Y346820D01*
X387056Y346808D01*
X387125Y346793D01*
X387193Y346774D01*
X387259Y346751D01*
X387324Y346724D01*
X387388Y346694D01*
X387450Y346661D01*
X387510Y346624D01*
X387568Y346584D01*
X387623Y346541D01*
X387677Y346494D01*
X387727Y346445D01*
X387775Y346393D01*
X387820Y346339D01*
X387861Y346282D01*
X387900Y346223D01*
X387935Y346162D01*
X387967Y346099D01*
X387995Y346035D01*
X388020Y345969D01*
X388041Y345902D01*
X388058Y345833D01*
X388072Y345764D01*
X388081Y345695D01*
X388087Y345624D01*
X388089Y345554D01*
X388089Y343509D01*
X388087Y343439D01*
X388081Y343368D01*
X388072Y343299D01*
X388058Y343230D01*
X388041Y343161D01*
X388020Y343094D01*
X387995Y343028D01*
X387967Y342964D01*
X387935Y342901D01*
X387900Y342840D01*
X387861Y342781D01*
X387820Y342724D01*
X387775Y342670D01*
X387727Y342618D01*
X387677Y342569D01*
X387623Y342522D01*
X387568Y342479D01*
X387510Y342439D01*
X387450Y342402D01*
X387388Y342369D01*
X387324Y342339D01*
X387259Y342312D01*
X387193Y342289D01*
X387125Y342270D01*
X387056Y342255D01*
X386987Y342243D01*
X386917Y342235D01*
X386846Y342231D01*
X386776Y342231D01*
X386705Y342235D01*
X386635Y342243D01*
X386566Y342255D01*
X386497Y342270D01*
X386429Y342289D01*
X386363Y342312D01*
X386298Y342339D01*
X386234Y342369D01*
X386172Y342402D01*
X386112Y342439D01*
X386054Y342479D01*
X385999Y342522D01*
X385945Y342569D01*
X385895Y342618D01*
X385847Y342670D01*
X385802Y342724D01*
X385761Y342781D01*
X385722Y342840D01*
X385687Y342901D01*
X385655Y342964D01*
X385627Y343028D01*
X385602Y343094D01*
X385581Y343161D01*
X385564Y343230D01*
X385550Y343299D01*
X385541Y343368D01*
X385535Y343439D01*
X385533Y343509D01*
X390212Y342231D02*
X390212Y346831D01*
X391490Y346831D01*
X391490Y346832D02*
X391560Y346830D01*
X391631Y346824D01*
X391700Y346815D01*
X391769Y346801D01*
X391838Y346784D01*
X391905Y346763D01*
X391971Y346738D01*
X392035Y346710D01*
X392098Y346678D01*
X392159Y346643D01*
X392218Y346604D01*
X392275Y346563D01*
X392329Y346518D01*
X392381Y346470D01*
X392430Y346420D01*
X392477Y346366D01*
X392520Y346311D01*
X392560Y346253D01*
X392597Y346193D01*
X392630Y346131D01*
X392660Y346067D01*
X392687Y346002D01*
X392710Y345936D01*
X392729Y345868D01*
X392744Y345799D01*
X392756Y345730D01*
X392764Y345660D01*
X392768Y345589D01*
X392768Y345519D01*
X392764Y345448D01*
X392756Y345378D01*
X392744Y345309D01*
X392729Y345240D01*
X392710Y345172D01*
X392687Y345106D01*
X392660Y345041D01*
X392630Y344977D01*
X392597Y344915D01*
X392560Y344855D01*
X392520Y344797D01*
X392477Y344742D01*
X392430Y344688D01*
X392381Y344638D01*
X392329Y344590D01*
X392275Y344545D01*
X392218Y344504D01*
X392159Y344465D01*
X392098Y344430D01*
X392035Y344398D01*
X391971Y344370D01*
X391905Y344345D01*
X391838Y344324D01*
X391769Y344307D01*
X391700Y344293D01*
X391631Y344284D01*
X391560Y344278D01*
X391490Y344276D01*
X390212Y344276D01*
X391746Y344276D02*
X392768Y342231D01*
X395406Y342231D02*
X396683Y342231D01*
X395406Y342231D02*
X395351Y342233D01*
X395297Y342239D01*
X395243Y342249D01*
X395190Y342262D01*
X395138Y342279D01*
X395087Y342300D01*
X395038Y342325D01*
X394991Y342353D01*
X394946Y342384D01*
X394904Y342418D01*
X394864Y342456D01*
X394826Y342496D01*
X394792Y342538D01*
X394761Y342583D01*
X394733Y342630D01*
X394708Y342679D01*
X394687Y342730D01*
X394670Y342782D01*
X394657Y342835D01*
X394647Y342889D01*
X394641Y342943D01*
X394639Y342998D01*
X394639Y344276D01*
X394641Y344339D01*
X394647Y344402D01*
X394656Y344464D01*
X394670Y344525D01*
X394687Y344586D01*
X394708Y344645D01*
X394733Y344703D01*
X394761Y344760D01*
X394792Y344814D01*
X394827Y344866D01*
X394865Y344917D01*
X394906Y344965D01*
X394950Y345010D01*
X394996Y345052D01*
X395045Y345092D01*
X395096Y345128D01*
X395150Y345161D01*
X395205Y345191D01*
X395263Y345217D01*
X395321Y345240D01*
X395381Y345259D01*
X395442Y345274D01*
X395504Y345286D01*
X395567Y345294D01*
X395630Y345298D01*
X395692Y345298D01*
X395755Y345294D01*
X395818Y345286D01*
X395880Y345274D01*
X395941Y345259D01*
X396001Y345240D01*
X396059Y345217D01*
X396117Y345191D01*
X396172Y345161D01*
X396226Y345128D01*
X396277Y345092D01*
X396326Y345052D01*
X396372Y345010D01*
X396416Y344965D01*
X396457Y344917D01*
X396495Y344866D01*
X396530Y344814D01*
X396561Y344760D01*
X396589Y344703D01*
X396614Y344645D01*
X396635Y344586D01*
X396652Y344525D01*
X396666Y344464D01*
X396675Y344402D01*
X396681Y344339D01*
X396683Y344276D01*
X396683Y343765D01*
X394639Y343765D01*
X398786Y342231D02*
X398786Y346065D01*
X398785Y346065D02*
X398787Y346120D01*
X398793Y346174D01*
X398803Y346228D01*
X398816Y346281D01*
X398833Y346333D01*
X398854Y346384D01*
X398879Y346433D01*
X398907Y346480D01*
X398938Y346525D01*
X398972Y346567D01*
X399010Y346607D01*
X399050Y346645D01*
X399092Y346679D01*
X399137Y346710D01*
X399184Y346738D01*
X399233Y346763D01*
X399284Y346784D01*
X399336Y346801D01*
X399389Y346814D01*
X399443Y346824D01*
X399497Y346830D01*
X399552Y346832D01*
X399552Y346831D02*
X399808Y346831D01*
X399808Y345298D02*
X398274Y345298D01*
X555094Y216831D02*
X555094Y212231D01*
X555094Y216831D02*
X556372Y216831D01*
X556372Y216832D02*
X556441Y216830D01*
X556510Y216825D01*
X556579Y216815D01*
X556647Y216802D01*
X556714Y216785D01*
X556780Y216765D01*
X556845Y216741D01*
X556909Y216714D01*
X556971Y216683D01*
X557031Y216649D01*
X557089Y216612D01*
X557145Y216571D01*
X557199Y216528D01*
X557251Y216482D01*
X557300Y216433D01*
X557346Y216381D01*
X557389Y216327D01*
X557430Y216271D01*
X557467Y216213D01*
X557501Y216153D01*
X557532Y216091D01*
X557559Y216027D01*
X557583Y215962D01*
X557603Y215896D01*
X557620Y215829D01*
X557633Y215761D01*
X557643Y215692D01*
X557648Y215623D01*
X557650Y215554D01*
X557650Y213509D01*
X557648Y213440D01*
X557643Y213371D01*
X557633Y213302D01*
X557620Y213234D01*
X557603Y213167D01*
X557583Y213101D01*
X557559Y213036D01*
X557532Y212972D01*
X557501Y212910D01*
X557467Y212850D01*
X557430Y212792D01*
X557389Y212736D01*
X557346Y212682D01*
X557300Y212630D01*
X557251Y212581D01*
X557199Y212535D01*
X557145Y212492D01*
X557089Y212451D01*
X557031Y212414D01*
X556971Y212380D01*
X556909Y212349D01*
X556845Y212322D01*
X556780Y212298D01*
X556714Y212278D01*
X556647Y212261D01*
X556579Y212248D01*
X556510Y212238D01*
X556441Y212233D01*
X556372Y212231D01*
X555094Y212231D01*
X559744Y214531D02*
X559746Y214646D01*
X559751Y214760D01*
X559760Y214874D01*
X559772Y214988D01*
X559787Y215102D01*
X559806Y215215D01*
X559829Y215327D01*
X559854Y215439D01*
X559884Y215550D01*
X559916Y215660D01*
X559952Y215769D01*
X559991Y215877D01*
X560033Y215983D01*
X560079Y216088D01*
X560127Y216192D01*
X560127Y216193D02*
X560148Y216248D01*
X560172Y216301D01*
X560199Y216353D01*
X560230Y216403D01*
X560263Y216451D01*
X560300Y216497D01*
X560339Y216541D01*
X560381Y216582D01*
X560425Y216620D01*
X560472Y216656D01*
X560521Y216688D01*
X560572Y216718D01*
X560624Y216744D01*
X560678Y216767D01*
X560733Y216787D01*
X560790Y216803D01*
X560847Y216816D01*
X560905Y216825D01*
X560963Y216830D01*
X561022Y216832D01*
X561081Y216830D01*
X561139Y216825D01*
X561197Y216816D01*
X561254Y216803D01*
X561311Y216787D01*
X561366Y216767D01*
X561420Y216744D01*
X561472Y216718D01*
X561523Y216688D01*
X561572Y216656D01*
X561619Y216620D01*
X561663Y216582D01*
X561705Y216541D01*
X561744Y216497D01*
X561781Y216451D01*
X561814Y216403D01*
X561845Y216353D01*
X561872Y216301D01*
X561896Y216248D01*
X561917Y216193D01*
X561917Y216192D02*
X561965Y216088D01*
X562011Y215983D01*
X562053Y215877D01*
X562092Y215769D01*
X562128Y215660D01*
X562160Y215550D01*
X562190Y215439D01*
X562215Y215327D01*
X562238Y215215D01*
X562257Y215102D01*
X562272Y214988D01*
X562284Y214874D01*
X562293Y214760D01*
X562298Y214646D01*
X562300Y214531D01*
X559744Y214531D02*
X559746Y214416D01*
X559751Y214302D01*
X559760Y214188D01*
X559772Y214074D01*
X559787Y213960D01*
X559806Y213847D01*
X559829Y213735D01*
X559854Y213623D01*
X559884Y213512D01*
X559916Y213402D01*
X559952Y213293D01*
X559991Y213185D01*
X560033Y213079D01*
X560079Y212974D01*
X560127Y212870D01*
X560148Y212815D01*
X560172Y212762D01*
X560199Y212710D01*
X560230Y212660D01*
X560263Y212612D01*
X560300Y212566D01*
X560339Y212522D01*
X560381Y212481D01*
X560425Y212443D01*
X560472Y212407D01*
X560521Y212375D01*
X560572Y212345D01*
X560624Y212319D01*
X560678Y212296D01*
X560733Y212276D01*
X560790Y212260D01*
X560847Y212247D01*
X560905Y212238D01*
X560963Y212233D01*
X561022Y212231D01*
X561917Y212870D02*
X561965Y212974D01*
X562011Y213079D01*
X562053Y213185D01*
X562092Y213293D01*
X562128Y213402D01*
X562160Y213512D01*
X562190Y213623D01*
X562215Y213735D01*
X562238Y213847D01*
X562257Y213960D01*
X562272Y214074D01*
X562284Y214188D01*
X562293Y214302D01*
X562298Y214416D01*
X562300Y214531D01*
X561917Y212870D02*
X561896Y212815D01*
X561872Y212762D01*
X561845Y212710D01*
X561814Y212660D01*
X561781Y212612D01*
X561744Y212566D01*
X561705Y212522D01*
X561663Y212481D01*
X561619Y212443D01*
X561572Y212407D01*
X561523Y212375D01*
X561472Y212345D01*
X561420Y212319D01*
X561366Y212296D01*
X561311Y212276D01*
X561254Y212260D01*
X561197Y212247D01*
X561139Y212238D01*
X561081Y212233D01*
X561022Y212231D01*
X560000Y213254D02*
X562044Y215809D01*
X555094Y222231D02*
X555094Y226831D01*
X556372Y226831D01*
X556372Y226832D02*
X556441Y226830D01*
X556510Y226825D01*
X556579Y226815D01*
X556647Y226802D01*
X556714Y226785D01*
X556780Y226765D01*
X556845Y226741D01*
X556909Y226714D01*
X556971Y226683D01*
X557031Y226649D01*
X557089Y226612D01*
X557145Y226571D01*
X557199Y226528D01*
X557251Y226482D01*
X557300Y226433D01*
X557346Y226381D01*
X557389Y226327D01*
X557430Y226271D01*
X557467Y226213D01*
X557501Y226153D01*
X557532Y226091D01*
X557559Y226027D01*
X557583Y225962D01*
X557603Y225896D01*
X557620Y225829D01*
X557633Y225761D01*
X557643Y225692D01*
X557648Y225623D01*
X557650Y225554D01*
X557650Y223509D01*
X557648Y223440D01*
X557643Y223371D01*
X557633Y223302D01*
X557620Y223234D01*
X557603Y223167D01*
X557583Y223101D01*
X557559Y223036D01*
X557532Y222972D01*
X557501Y222910D01*
X557467Y222850D01*
X557430Y222792D01*
X557389Y222736D01*
X557346Y222682D01*
X557300Y222630D01*
X557251Y222581D01*
X557199Y222535D01*
X557145Y222492D01*
X557089Y222451D01*
X557031Y222414D01*
X556971Y222380D01*
X556909Y222349D01*
X556845Y222322D01*
X556780Y222298D01*
X556714Y222278D01*
X556647Y222261D01*
X556579Y222248D01*
X556510Y222238D01*
X556441Y222233D01*
X556372Y222231D01*
X555094Y222231D01*
X559744Y225809D02*
X561022Y226831D01*
X561022Y222231D01*
X559744Y222231D02*
X562300Y222231D01*
X555094Y232231D02*
X555094Y236831D01*
X556372Y236831D01*
X556372Y236832D02*
X556441Y236830D01*
X556510Y236825D01*
X556579Y236815D01*
X556647Y236802D01*
X556714Y236785D01*
X556780Y236765D01*
X556845Y236741D01*
X556909Y236714D01*
X556971Y236683D01*
X557031Y236649D01*
X557089Y236612D01*
X557145Y236571D01*
X557199Y236528D01*
X557251Y236482D01*
X557300Y236433D01*
X557346Y236381D01*
X557389Y236327D01*
X557430Y236271D01*
X557467Y236213D01*
X557501Y236153D01*
X557532Y236091D01*
X557559Y236027D01*
X557583Y235962D01*
X557603Y235896D01*
X557620Y235829D01*
X557633Y235761D01*
X557643Y235692D01*
X557648Y235623D01*
X557650Y235554D01*
X557650Y233509D01*
X557648Y233440D01*
X557643Y233371D01*
X557633Y233302D01*
X557620Y233234D01*
X557603Y233167D01*
X557583Y233101D01*
X557559Y233036D01*
X557532Y232972D01*
X557501Y232910D01*
X557467Y232850D01*
X557430Y232792D01*
X557389Y232736D01*
X557346Y232682D01*
X557300Y232630D01*
X557251Y232581D01*
X557199Y232535D01*
X557145Y232492D01*
X557089Y232451D01*
X557031Y232414D01*
X556971Y232380D01*
X556909Y232349D01*
X556845Y232322D01*
X556780Y232298D01*
X556714Y232278D01*
X556647Y232261D01*
X556579Y232248D01*
X556510Y232238D01*
X556441Y232233D01*
X556372Y232231D01*
X555094Y232231D01*
X561150Y236831D02*
X561217Y236829D01*
X561284Y236823D01*
X561350Y236814D01*
X561415Y236800D01*
X561480Y236783D01*
X561543Y236762D01*
X561605Y236737D01*
X561666Y236709D01*
X561725Y236677D01*
X561782Y236642D01*
X561837Y236603D01*
X561889Y236562D01*
X561939Y236517D01*
X561986Y236470D01*
X562031Y236420D01*
X562072Y236368D01*
X562111Y236313D01*
X562146Y236256D01*
X562178Y236197D01*
X562206Y236136D01*
X562231Y236074D01*
X562252Y236011D01*
X562269Y235946D01*
X562283Y235881D01*
X562292Y235815D01*
X562298Y235748D01*
X562300Y235681D01*
X561150Y236831D02*
X561076Y236829D01*
X561002Y236824D01*
X560928Y236814D01*
X560855Y236801D01*
X560782Y236785D01*
X560711Y236764D01*
X560641Y236740D01*
X560572Y236713D01*
X560504Y236682D01*
X560438Y236648D01*
X560374Y236611D01*
X560312Y236570D01*
X560252Y236526D01*
X560194Y236480D01*
X560138Y236430D01*
X560085Y236378D01*
X560035Y236323D01*
X559988Y236266D01*
X559944Y236206D01*
X559902Y236144D01*
X559864Y236081D01*
X559829Y236015D01*
X559798Y235948D01*
X559770Y235879D01*
X559745Y235809D01*
X561917Y234787D02*
X561964Y234834D01*
X562008Y234884D01*
X562050Y234936D01*
X562089Y234990D01*
X562124Y235046D01*
X562157Y235104D01*
X562187Y235164D01*
X562213Y235225D01*
X562236Y235288D01*
X562255Y235352D01*
X562271Y235416D01*
X562284Y235482D01*
X562293Y235548D01*
X562298Y235614D01*
X562300Y235681D01*
X561917Y234787D02*
X559744Y232231D01*
X562300Y232231D01*
X555094Y242231D02*
X555094Y246831D01*
X556372Y246831D01*
X556372Y246832D02*
X556441Y246830D01*
X556510Y246825D01*
X556579Y246815D01*
X556647Y246802D01*
X556714Y246785D01*
X556780Y246765D01*
X556845Y246741D01*
X556909Y246714D01*
X556971Y246683D01*
X557031Y246649D01*
X557089Y246612D01*
X557145Y246571D01*
X557199Y246528D01*
X557251Y246482D01*
X557300Y246433D01*
X557346Y246381D01*
X557389Y246327D01*
X557430Y246271D01*
X557467Y246213D01*
X557501Y246153D01*
X557532Y246091D01*
X557559Y246027D01*
X557583Y245962D01*
X557603Y245896D01*
X557620Y245829D01*
X557633Y245761D01*
X557643Y245692D01*
X557648Y245623D01*
X557650Y245554D01*
X557650Y243509D01*
X557648Y243440D01*
X557643Y243371D01*
X557633Y243302D01*
X557620Y243234D01*
X557603Y243167D01*
X557583Y243101D01*
X557559Y243036D01*
X557532Y242972D01*
X557501Y242910D01*
X557467Y242850D01*
X557430Y242792D01*
X557389Y242736D01*
X557346Y242682D01*
X557300Y242630D01*
X557251Y242581D01*
X557199Y242535D01*
X557145Y242492D01*
X557089Y242451D01*
X557031Y242414D01*
X556971Y242380D01*
X556909Y242349D01*
X556845Y242322D01*
X556780Y242298D01*
X556714Y242278D01*
X556647Y242261D01*
X556579Y242248D01*
X556510Y242238D01*
X556441Y242233D01*
X556372Y242231D01*
X555094Y242231D01*
X559744Y242231D02*
X561022Y242231D01*
X561092Y242233D01*
X561163Y242239D01*
X561232Y242248D01*
X561301Y242262D01*
X561370Y242279D01*
X561437Y242300D01*
X561503Y242325D01*
X561567Y242353D01*
X561630Y242385D01*
X561691Y242420D01*
X561750Y242459D01*
X561807Y242500D01*
X561861Y242545D01*
X561913Y242593D01*
X561962Y242643D01*
X562009Y242697D01*
X562052Y242752D01*
X562092Y242810D01*
X562129Y242870D01*
X562162Y242932D01*
X562192Y242996D01*
X562219Y243061D01*
X562242Y243127D01*
X562261Y243195D01*
X562276Y243264D01*
X562288Y243333D01*
X562296Y243403D01*
X562300Y243474D01*
X562300Y243544D01*
X562296Y243615D01*
X562288Y243685D01*
X562276Y243754D01*
X562261Y243823D01*
X562242Y243891D01*
X562219Y243957D01*
X562192Y244022D01*
X562162Y244086D01*
X562129Y244148D01*
X562092Y244208D01*
X562052Y244266D01*
X562009Y244321D01*
X561962Y244375D01*
X561913Y244425D01*
X561861Y244473D01*
X561807Y244518D01*
X561750Y244559D01*
X561691Y244598D01*
X561630Y244633D01*
X561567Y244665D01*
X561503Y244693D01*
X561437Y244718D01*
X561370Y244739D01*
X561301Y244756D01*
X561232Y244770D01*
X561163Y244779D01*
X561092Y244785D01*
X561022Y244787D01*
X561278Y246831D02*
X559744Y246831D01*
X561278Y246831D02*
X561341Y246829D01*
X561404Y246823D01*
X561466Y246814D01*
X561527Y246800D01*
X561588Y246783D01*
X561647Y246762D01*
X561705Y246737D01*
X561762Y246709D01*
X561816Y246678D01*
X561868Y246643D01*
X561919Y246605D01*
X561967Y246564D01*
X562012Y246520D01*
X562054Y246474D01*
X562094Y246425D01*
X562130Y246374D01*
X562163Y246320D01*
X562193Y246265D01*
X562219Y246207D01*
X562242Y246149D01*
X562261Y246089D01*
X562276Y246028D01*
X562288Y245966D01*
X562296Y245903D01*
X562300Y245840D01*
X562300Y245778D01*
X562296Y245715D01*
X562288Y245652D01*
X562276Y245590D01*
X562261Y245529D01*
X562242Y245469D01*
X562219Y245411D01*
X562193Y245353D01*
X562163Y245298D01*
X562130Y245244D01*
X562094Y245193D01*
X562054Y245144D01*
X562012Y245098D01*
X561967Y245054D01*
X561919Y245013D01*
X561868Y244975D01*
X561816Y244940D01*
X561762Y244909D01*
X561705Y244881D01*
X561647Y244856D01*
X561588Y244835D01*
X561527Y244818D01*
X561466Y244804D01*
X561404Y244795D01*
X561341Y244789D01*
X561278Y244787D01*
X560256Y244787D01*
X555094Y252231D02*
X555094Y256831D01*
X556372Y256831D01*
X556372Y256832D02*
X556441Y256830D01*
X556510Y256825D01*
X556579Y256815D01*
X556647Y256802D01*
X556714Y256785D01*
X556780Y256765D01*
X556845Y256741D01*
X556909Y256714D01*
X556971Y256683D01*
X557031Y256649D01*
X557089Y256612D01*
X557145Y256571D01*
X557199Y256528D01*
X557251Y256482D01*
X557300Y256433D01*
X557346Y256381D01*
X557389Y256327D01*
X557430Y256271D01*
X557467Y256213D01*
X557501Y256153D01*
X557532Y256091D01*
X557559Y256027D01*
X557583Y255962D01*
X557603Y255896D01*
X557620Y255829D01*
X557633Y255761D01*
X557643Y255692D01*
X557648Y255623D01*
X557650Y255554D01*
X557650Y253509D01*
X557648Y253440D01*
X557643Y253371D01*
X557633Y253302D01*
X557620Y253234D01*
X557603Y253167D01*
X557583Y253101D01*
X557559Y253036D01*
X557532Y252972D01*
X557501Y252910D01*
X557467Y252850D01*
X557430Y252792D01*
X557389Y252736D01*
X557346Y252682D01*
X557300Y252630D01*
X557251Y252581D01*
X557199Y252535D01*
X557145Y252492D01*
X557089Y252451D01*
X557031Y252414D01*
X556971Y252380D01*
X556909Y252349D01*
X556845Y252322D01*
X556780Y252298D01*
X556714Y252278D01*
X556647Y252261D01*
X556579Y252248D01*
X556510Y252238D01*
X556441Y252233D01*
X556372Y252231D01*
X555094Y252231D01*
X559744Y253254D02*
X560767Y256831D01*
X559744Y253254D02*
X562300Y253254D01*
X561533Y254276D02*
X561533Y252231D01*
X555094Y262231D02*
X555094Y266831D01*
X556372Y266831D01*
X556372Y266832D02*
X556441Y266830D01*
X556510Y266825D01*
X556579Y266815D01*
X556647Y266802D01*
X556714Y266785D01*
X556780Y266765D01*
X556845Y266741D01*
X556909Y266714D01*
X556971Y266683D01*
X557031Y266649D01*
X557089Y266612D01*
X557145Y266571D01*
X557199Y266528D01*
X557251Y266482D01*
X557300Y266433D01*
X557346Y266381D01*
X557389Y266327D01*
X557430Y266271D01*
X557467Y266213D01*
X557501Y266153D01*
X557532Y266091D01*
X557559Y266027D01*
X557583Y265962D01*
X557603Y265896D01*
X557620Y265829D01*
X557633Y265761D01*
X557643Y265692D01*
X557648Y265623D01*
X557650Y265554D01*
X557650Y263509D01*
X557648Y263440D01*
X557643Y263371D01*
X557633Y263302D01*
X557620Y263234D01*
X557603Y263167D01*
X557583Y263101D01*
X557559Y263036D01*
X557532Y262972D01*
X557501Y262910D01*
X557467Y262850D01*
X557430Y262792D01*
X557389Y262736D01*
X557346Y262682D01*
X557300Y262630D01*
X557251Y262581D01*
X557199Y262535D01*
X557145Y262492D01*
X557089Y262451D01*
X557031Y262414D01*
X556971Y262380D01*
X556909Y262349D01*
X556845Y262322D01*
X556780Y262298D01*
X556714Y262278D01*
X556647Y262261D01*
X556579Y262248D01*
X556510Y262238D01*
X556441Y262233D01*
X556372Y262231D01*
X555094Y262231D01*
X559744Y262231D02*
X561278Y262231D01*
X561278Y262232D02*
X561340Y262234D01*
X561401Y262239D01*
X561462Y262249D01*
X561523Y262262D01*
X561582Y262278D01*
X561640Y262298D01*
X561697Y262322D01*
X561753Y262349D01*
X561807Y262379D01*
X561859Y262413D01*
X561908Y262449D01*
X561956Y262489D01*
X562001Y262531D01*
X562043Y262576D01*
X562083Y262624D01*
X562119Y262673D01*
X562153Y262725D01*
X562183Y262779D01*
X562210Y262835D01*
X562234Y262892D01*
X562254Y262950D01*
X562270Y263009D01*
X562283Y263070D01*
X562293Y263131D01*
X562298Y263192D01*
X562300Y263254D01*
X562300Y263765D01*
X562298Y263827D01*
X562293Y263888D01*
X562283Y263949D01*
X562270Y264010D01*
X562254Y264069D01*
X562234Y264127D01*
X562210Y264184D01*
X562183Y264240D01*
X562153Y264294D01*
X562119Y264346D01*
X562083Y264395D01*
X562043Y264443D01*
X562001Y264488D01*
X561956Y264530D01*
X561908Y264570D01*
X561859Y264606D01*
X561807Y264640D01*
X561753Y264670D01*
X561697Y264697D01*
X561640Y264721D01*
X561582Y264741D01*
X561523Y264757D01*
X561462Y264770D01*
X561401Y264780D01*
X561340Y264785D01*
X561278Y264787D01*
X559744Y264787D01*
X559744Y266831D01*
X562300Y266831D01*
X555094Y272231D02*
X555094Y276831D01*
X556372Y276831D01*
X556372Y276832D02*
X556441Y276830D01*
X556510Y276825D01*
X556579Y276815D01*
X556647Y276802D01*
X556714Y276785D01*
X556780Y276765D01*
X556845Y276741D01*
X556909Y276714D01*
X556971Y276683D01*
X557031Y276649D01*
X557089Y276612D01*
X557145Y276571D01*
X557199Y276528D01*
X557251Y276482D01*
X557300Y276433D01*
X557346Y276381D01*
X557389Y276327D01*
X557430Y276271D01*
X557467Y276213D01*
X557501Y276153D01*
X557532Y276091D01*
X557559Y276027D01*
X557583Y275962D01*
X557603Y275896D01*
X557620Y275829D01*
X557633Y275761D01*
X557643Y275692D01*
X557648Y275623D01*
X557650Y275554D01*
X557650Y273509D01*
X557648Y273440D01*
X557643Y273371D01*
X557633Y273302D01*
X557620Y273234D01*
X557603Y273167D01*
X557583Y273101D01*
X557559Y273036D01*
X557532Y272972D01*
X557501Y272910D01*
X557467Y272850D01*
X557430Y272792D01*
X557389Y272736D01*
X557346Y272682D01*
X557300Y272630D01*
X557251Y272581D01*
X557199Y272535D01*
X557145Y272492D01*
X557089Y272451D01*
X557031Y272414D01*
X556971Y272380D01*
X556909Y272349D01*
X556845Y272322D01*
X556780Y272298D01*
X556714Y272278D01*
X556647Y272261D01*
X556579Y272248D01*
X556510Y272238D01*
X556441Y272233D01*
X556372Y272231D01*
X555094Y272231D01*
X559744Y274787D02*
X561278Y274787D01*
X561340Y274785D01*
X561401Y274780D01*
X561462Y274770D01*
X561523Y274757D01*
X561582Y274741D01*
X561640Y274721D01*
X561697Y274697D01*
X561753Y274670D01*
X561807Y274640D01*
X561859Y274606D01*
X561908Y274570D01*
X561956Y274530D01*
X562001Y274488D01*
X562043Y274443D01*
X562083Y274395D01*
X562119Y274346D01*
X562153Y274294D01*
X562183Y274240D01*
X562210Y274184D01*
X562234Y274127D01*
X562254Y274069D01*
X562270Y274010D01*
X562283Y273949D01*
X562293Y273888D01*
X562298Y273827D01*
X562300Y273765D01*
X562300Y273509D01*
X562298Y273439D01*
X562292Y273368D01*
X562283Y273299D01*
X562269Y273230D01*
X562252Y273161D01*
X562231Y273094D01*
X562206Y273028D01*
X562178Y272964D01*
X562146Y272901D01*
X562111Y272840D01*
X562072Y272781D01*
X562031Y272724D01*
X561986Y272670D01*
X561938Y272618D01*
X561888Y272569D01*
X561834Y272522D01*
X561779Y272479D01*
X561721Y272439D01*
X561661Y272402D01*
X561599Y272369D01*
X561535Y272339D01*
X561470Y272312D01*
X561404Y272289D01*
X561336Y272270D01*
X561267Y272255D01*
X561198Y272243D01*
X561128Y272235D01*
X561057Y272231D01*
X560987Y272231D01*
X560916Y272235D01*
X560846Y272243D01*
X560777Y272255D01*
X560708Y272270D01*
X560640Y272289D01*
X560574Y272312D01*
X560509Y272339D01*
X560445Y272369D01*
X560383Y272402D01*
X560323Y272439D01*
X560265Y272479D01*
X560210Y272522D01*
X560156Y272569D01*
X560106Y272618D01*
X560058Y272670D01*
X560013Y272724D01*
X559972Y272781D01*
X559933Y272840D01*
X559898Y272901D01*
X559866Y272964D01*
X559838Y273028D01*
X559813Y273094D01*
X559792Y273161D01*
X559775Y273230D01*
X559761Y273299D01*
X559752Y273368D01*
X559746Y273439D01*
X559744Y273509D01*
X559744Y274787D01*
X559745Y274787D02*
X559747Y274876D01*
X559753Y274965D01*
X559762Y275054D01*
X559776Y275142D01*
X559793Y275229D01*
X559815Y275316D01*
X559840Y275402D01*
X559868Y275486D01*
X559901Y275569D01*
X559937Y275651D01*
X559976Y275731D01*
X560019Y275809D01*
X560065Y275885D01*
X560115Y275959D01*
X560167Y276031D01*
X560223Y276101D01*
X560282Y276168D01*
X560344Y276232D01*
X560408Y276294D01*
X560475Y276353D01*
X560545Y276409D01*
X560617Y276461D01*
X560691Y276511D01*
X560767Y276557D01*
X560845Y276600D01*
X560925Y276639D01*
X561007Y276675D01*
X561090Y276708D01*
X561174Y276736D01*
X561260Y276761D01*
X561347Y276783D01*
X561434Y276800D01*
X561522Y276814D01*
X561611Y276823D01*
X561700Y276829D01*
X561789Y276831D01*
X555094Y282231D02*
X555094Y286831D01*
X556372Y286831D01*
X556372Y286832D02*
X556441Y286830D01*
X556510Y286825D01*
X556579Y286815D01*
X556647Y286802D01*
X556714Y286785D01*
X556780Y286765D01*
X556845Y286741D01*
X556909Y286714D01*
X556971Y286683D01*
X557031Y286649D01*
X557089Y286612D01*
X557145Y286571D01*
X557199Y286528D01*
X557251Y286482D01*
X557300Y286433D01*
X557346Y286381D01*
X557389Y286327D01*
X557430Y286271D01*
X557467Y286213D01*
X557501Y286153D01*
X557532Y286091D01*
X557559Y286027D01*
X557583Y285962D01*
X557603Y285896D01*
X557620Y285829D01*
X557633Y285761D01*
X557643Y285692D01*
X557648Y285623D01*
X557650Y285554D01*
X557650Y283509D01*
X557648Y283440D01*
X557643Y283371D01*
X557633Y283302D01*
X557620Y283234D01*
X557603Y283167D01*
X557583Y283101D01*
X557559Y283036D01*
X557532Y282972D01*
X557501Y282910D01*
X557467Y282850D01*
X557430Y282792D01*
X557389Y282736D01*
X557346Y282682D01*
X557300Y282630D01*
X557251Y282581D01*
X557199Y282535D01*
X557145Y282492D01*
X557089Y282451D01*
X557031Y282414D01*
X556971Y282380D01*
X556909Y282349D01*
X556845Y282322D01*
X556780Y282298D01*
X556714Y282278D01*
X556647Y282261D01*
X556579Y282248D01*
X556510Y282238D01*
X556441Y282233D01*
X556372Y282231D01*
X555094Y282231D01*
X559744Y286320D02*
X559744Y286831D01*
X562300Y286831D01*
X561022Y282231D01*
X555094Y298231D02*
X555094Y302831D01*
X556372Y302831D01*
X556372Y302832D02*
X556441Y302830D01*
X556510Y302825D01*
X556579Y302815D01*
X556647Y302802D01*
X556714Y302785D01*
X556780Y302765D01*
X556845Y302741D01*
X556909Y302714D01*
X556971Y302683D01*
X557031Y302649D01*
X557089Y302612D01*
X557145Y302571D01*
X557199Y302528D01*
X557251Y302482D01*
X557300Y302433D01*
X557346Y302381D01*
X557389Y302327D01*
X557430Y302271D01*
X557467Y302213D01*
X557501Y302153D01*
X557532Y302091D01*
X557559Y302027D01*
X557583Y301962D01*
X557603Y301896D01*
X557620Y301829D01*
X557633Y301761D01*
X557643Y301692D01*
X557648Y301623D01*
X557650Y301554D01*
X557650Y299509D01*
X557648Y299440D01*
X557643Y299371D01*
X557633Y299302D01*
X557620Y299234D01*
X557603Y299167D01*
X557583Y299101D01*
X557559Y299036D01*
X557532Y298972D01*
X557501Y298910D01*
X557467Y298850D01*
X557430Y298792D01*
X557389Y298736D01*
X557346Y298682D01*
X557300Y298630D01*
X557251Y298581D01*
X557199Y298535D01*
X557145Y298492D01*
X557089Y298451D01*
X557031Y298414D01*
X556971Y298380D01*
X556909Y298349D01*
X556845Y298322D01*
X556780Y298298D01*
X556714Y298278D01*
X556647Y298261D01*
X556579Y298248D01*
X556510Y298238D01*
X556441Y298233D01*
X556372Y298231D01*
X555094Y298231D01*
X559744Y299509D02*
X559746Y299579D01*
X559752Y299650D01*
X559761Y299719D01*
X559775Y299788D01*
X559792Y299857D01*
X559813Y299924D01*
X559838Y299990D01*
X559866Y300054D01*
X559898Y300117D01*
X559933Y300178D01*
X559972Y300237D01*
X560013Y300294D01*
X560058Y300348D01*
X560106Y300400D01*
X560156Y300449D01*
X560210Y300496D01*
X560265Y300539D01*
X560323Y300579D01*
X560383Y300616D01*
X560445Y300649D01*
X560509Y300679D01*
X560574Y300706D01*
X560640Y300729D01*
X560708Y300748D01*
X560777Y300763D01*
X560846Y300775D01*
X560916Y300783D01*
X560987Y300787D01*
X561057Y300787D01*
X561128Y300783D01*
X561198Y300775D01*
X561267Y300763D01*
X561336Y300748D01*
X561404Y300729D01*
X561470Y300706D01*
X561535Y300679D01*
X561599Y300649D01*
X561661Y300616D01*
X561721Y300579D01*
X561779Y300539D01*
X561834Y300496D01*
X561888Y300449D01*
X561938Y300400D01*
X561986Y300348D01*
X562031Y300294D01*
X562072Y300237D01*
X562111Y300178D01*
X562146Y300117D01*
X562178Y300054D01*
X562206Y299990D01*
X562231Y299924D01*
X562252Y299857D01*
X562269Y299788D01*
X562283Y299719D01*
X562292Y299650D01*
X562298Y299579D01*
X562300Y299509D01*
X562298Y299439D01*
X562292Y299368D01*
X562283Y299299D01*
X562269Y299230D01*
X562252Y299161D01*
X562231Y299094D01*
X562206Y299028D01*
X562178Y298964D01*
X562146Y298901D01*
X562111Y298840D01*
X562072Y298781D01*
X562031Y298724D01*
X561986Y298670D01*
X561938Y298618D01*
X561888Y298569D01*
X561834Y298522D01*
X561779Y298479D01*
X561721Y298439D01*
X561661Y298402D01*
X561599Y298369D01*
X561535Y298339D01*
X561470Y298312D01*
X561404Y298289D01*
X561336Y298270D01*
X561267Y298255D01*
X561198Y298243D01*
X561128Y298235D01*
X561057Y298231D01*
X560987Y298231D01*
X560916Y298235D01*
X560846Y298243D01*
X560777Y298255D01*
X560708Y298270D01*
X560640Y298289D01*
X560574Y298312D01*
X560509Y298339D01*
X560445Y298369D01*
X560383Y298402D01*
X560323Y298439D01*
X560265Y298479D01*
X560210Y298522D01*
X560156Y298569D01*
X560106Y298618D01*
X560058Y298670D01*
X560013Y298724D01*
X559972Y298781D01*
X559933Y298840D01*
X559898Y298901D01*
X559866Y298964D01*
X559838Y299028D01*
X559813Y299094D01*
X559792Y299161D01*
X559775Y299230D01*
X559761Y299299D01*
X559752Y299368D01*
X559746Y299439D01*
X559744Y299509D01*
X560000Y301809D02*
X560002Y301872D01*
X560008Y301935D01*
X560017Y301997D01*
X560031Y302058D01*
X560048Y302119D01*
X560069Y302178D01*
X560094Y302236D01*
X560122Y302293D01*
X560153Y302347D01*
X560188Y302399D01*
X560226Y302450D01*
X560267Y302498D01*
X560311Y302543D01*
X560357Y302585D01*
X560406Y302625D01*
X560457Y302661D01*
X560511Y302694D01*
X560566Y302724D01*
X560624Y302750D01*
X560682Y302773D01*
X560742Y302792D01*
X560803Y302807D01*
X560865Y302819D01*
X560928Y302827D01*
X560991Y302831D01*
X561053Y302831D01*
X561116Y302827D01*
X561179Y302819D01*
X561241Y302807D01*
X561302Y302792D01*
X561362Y302773D01*
X561420Y302750D01*
X561478Y302724D01*
X561533Y302694D01*
X561587Y302661D01*
X561638Y302625D01*
X561687Y302585D01*
X561733Y302543D01*
X561777Y302498D01*
X561818Y302450D01*
X561856Y302399D01*
X561891Y302347D01*
X561922Y302293D01*
X561950Y302236D01*
X561975Y302178D01*
X561996Y302119D01*
X562013Y302058D01*
X562027Y301997D01*
X562036Y301935D01*
X562042Y301872D01*
X562044Y301809D01*
X562042Y301746D01*
X562036Y301683D01*
X562027Y301621D01*
X562013Y301560D01*
X561996Y301499D01*
X561975Y301440D01*
X561950Y301382D01*
X561922Y301325D01*
X561891Y301271D01*
X561856Y301219D01*
X561818Y301168D01*
X561777Y301120D01*
X561733Y301075D01*
X561687Y301033D01*
X561638Y300993D01*
X561587Y300957D01*
X561533Y300924D01*
X561478Y300894D01*
X561420Y300868D01*
X561362Y300845D01*
X561302Y300826D01*
X561241Y300811D01*
X561179Y300799D01*
X561116Y300791D01*
X561053Y300787D01*
X560991Y300787D01*
X560928Y300791D01*
X560865Y300799D01*
X560803Y300811D01*
X560742Y300826D01*
X560682Y300845D01*
X560624Y300868D01*
X560566Y300894D01*
X560511Y300924D01*
X560457Y300957D01*
X560406Y300993D01*
X560357Y301033D01*
X560311Y301075D01*
X560267Y301120D01*
X560226Y301168D01*
X560188Y301219D01*
X560153Y301271D01*
X560122Y301325D01*
X560094Y301382D01*
X560069Y301440D01*
X560048Y301499D01*
X560031Y301560D01*
X560017Y301621D01*
X560008Y301683D01*
X560002Y301746D01*
X560000Y301809D01*
X555094Y308231D02*
X555094Y312831D01*
X556372Y312831D01*
X556372Y312832D02*
X556441Y312830D01*
X556510Y312825D01*
X556579Y312815D01*
X556647Y312802D01*
X556714Y312785D01*
X556780Y312765D01*
X556845Y312741D01*
X556909Y312714D01*
X556971Y312683D01*
X557031Y312649D01*
X557089Y312612D01*
X557145Y312571D01*
X557199Y312528D01*
X557251Y312482D01*
X557300Y312433D01*
X557346Y312381D01*
X557389Y312327D01*
X557430Y312271D01*
X557467Y312213D01*
X557501Y312153D01*
X557532Y312091D01*
X557559Y312027D01*
X557583Y311962D01*
X557603Y311896D01*
X557620Y311829D01*
X557633Y311761D01*
X557643Y311692D01*
X557648Y311623D01*
X557650Y311554D01*
X557650Y309509D01*
X557648Y309440D01*
X557643Y309371D01*
X557633Y309302D01*
X557620Y309234D01*
X557603Y309167D01*
X557583Y309101D01*
X557559Y309036D01*
X557532Y308972D01*
X557501Y308910D01*
X557467Y308850D01*
X557430Y308792D01*
X557389Y308736D01*
X557346Y308682D01*
X557300Y308630D01*
X557251Y308581D01*
X557199Y308535D01*
X557145Y308492D01*
X557089Y308451D01*
X557031Y308414D01*
X556971Y308380D01*
X556909Y308349D01*
X556845Y308322D01*
X556780Y308298D01*
X556714Y308278D01*
X556647Y308261D01*
X556579Y308248D01*
X556510Y308238D01*
X556441Y308233D01*
X556372Y308231D01*
X555094Y308231D01*
X560767Y310276D02*
X562300Y310276D01*
X560767Y310276D02*
X560705Y310278D01*
X560644Y310283D01*
X560583Y310293D01*
X560522Y310306D01*
X560463Y310322D01*
X560405Y310342D01*
X560348Y310366D01*
X560292Y310393D01*
X560238Y310423D01*
X560186Y310457D01*
X560137Y310493D01*
X560089Y310533D01*
X560044Y310575D01*
X560002Y310620D01*
X559962Y310668D01*
X559926Y310717D01*
X559892Y310769D01*
X559862Y310823D01*
X559835Y310879D01*
X559811Y310936D01*
X559791Y310994D01*
X559775Y311053D01*
X559762Y311114D01*
X559752Y311175D01*
X559747Y311236D01*
X559745Y311298D01*
X559744Y311298D02*
X559744Y311554D01*
X559746Y311624D01*
X559752Y311695D01*
X559761Y311764D01*
X559775Y311833D01*
X559792Y311902D01*
X559813Y311969D01*
X559838Y312035D01*
X559866Y312099D01*
X559898Y312162D01*
X559933Y312223D01*
X559972Y312282D01*
X560013Y312339D01*
X560058Y312393D01*
X560106Y312445D01*
X560156Y312494D01*
X560210Y312541D01*
X560265Y312584D01*
X560323Y312624D01*
X560383Y312661D01*
X560445Y312694D01*
X560509Y312724D01*
X560574Y312751D01*
X560640Y312774D01*
X560708Y312793D01*
X560777Y312808D01*
X560846Y312820D01*
X560916Y312828D01*
X560987Y312832D01*
X561057Y312832D01*
X561128Y312828D01*
X561198Y312820D01*
X561267Y312808D01*
X561336Y312793D01*
X561404Y312774D01*
X561470Y312751D01*
X561535Y312724D01*
X561599Y312694D01*
X561661Y312661D01*
X561721Y312624D01*
X561779Y312584D01*
X561834Y312541D01*
X561888Y312494D01*
X561938Y312445D01*
X561986Y312393D01*
X562031Y312339D01*
X562072Y312282D01*
X562111Y312223D01*
X562146Y312162D01*
X562178Y312099D01*
X562206Y312035D01*
X562231Y311969D01*
X562252Y311902D01*
X562269Y311833D01*
X562283Y311764D01*
X562292Y311695D01*
X562298Y311624D01*
X562300Y311554D01*
X562300Y310276D01*
X562298Y310187D01*
X562292Y310098D01*
X562283Y310009D01*
X562269Y309921D01*
X562252Y309834D01*
X562230Y309747D01*
X562205Y309661D01*
X562177Y309577D01*
X562144Y309494D01*
X562108Y309412D01*
X562069Y309332D01*
X562026Y309254D01*
X561980Y309178D01*
X561930Y309104D01*
X561878Y309032D01*
X561822Y308962D01*
X561763Y308895D01*
X561701Y308831D01*
X561637Y308769D01*
X561570Y308710D01*
X561500Y308654D01*
X561428Y308602D01*
X561354Y308552D01*
X561278Y308506D01*
X561200Y308463D01*
X561120Y308424D01*
X561038Y308388D01*
X560955Y308355D01*
X560871Y308327D01*
X560785Y308302D01*
X560698Y308280D01*
X560611Y308263D01*
X560523Y308249D01*
X560434Y308240D01*
X560345Y308234D01*
X560256Y308232D01*
X550594Y318231D02*
X550594Y322831D01*
X551872Y322831D01*
X551872Y322832D02*
X551941Y322830D01*
X552010Y322825D01*
X552079Y322815D01*
X552147Y322802D01*
X552214Y322785D01*
X552280Y322765D01*
X552345Y322741D01*
X552409Y322714D01*
X552471Y322683D01*
X552531Y322649D01*
X552589Y322612D01*
X552645Y322571D01*
X552699Y322528D01*
X552751Y322482D01*
X552800Y322433D01*
X552846Y322381D01*
X552889Y322327D01*
X552930Y322271D01*
X552967Y322213D01*
X553001Y322153D01*
X553032Y322091D01*
X553059Y322027D01*
X553083Y321962D01*
X553103Y321896D01*
X553120Y321829D01*
X553133Y321761D01*
X553143Y321692D01*
X553148Y321623D01*
X553150Y321554D01*
X553150Y319509D01*
X553148Y319440D01*
X553143Y319371D01*
X553133Y319302D01*
X553120Y319234D01*
X553103Y319167D01*
X553083Y319101D01*
X553059Y319036D01*
X553032Y318972D01*
X553001Y318910D01*
X552967Y318850D01*
X552930Y318792D01*
X552889Y318736D01*
X552846Y318682D01*
X552800Y318630D01*
X552751Y318581D01*
X552699Y318535D01*
X552645Y318492D01*
X552589Y318451D01*
X552531Y318414D01*
X552471Y318380D01*
X552409Y318349D01*
X552345Y318322D01*
X552280Y318298D01*
X552214Y318278D01*
X552147Y318261D01*
X552079Y318248D01*
X552010Y318238D01*
X551941Y318233D01*
X551872Y318231D01*
X550594Y318231D01*
X555244Y321809D02*
X556522Y322831D01*
X556522Y318231D01*
X555244Y318231D02*
X557800Y318231D01*
X559744Y320531D02*
X559746Y320646D01*
X559751Y320760D01*
X559760Y320874D01*
X559772Y320988D01*
X559787Y321102D01*
X559806Y321215D01*
X559829Y321327D01*
X559854Y321439D01*
X559884Y321550D01*
X559916Y321660D01*
X559952Y321769D01*
X559991Y321877D01*
X560033Y321983D01*
X560079Y322088D01*
X560127Y322192D01*
X560127Y322193D02*
X560148Y322248D01*
X560172Y322301D01*
X560199Y322353D01*
X560230Y322403D01*
X560263Y322451D01*
X560300Y322497D01*
X560339Y322541D01*
X560381Y322582D01*
X560425Y322620D01*
X560472Y322656D01*
X560521Y322688D01*
X560572Y322718D01*
X560624Y322744D01*
X560678Y322767D01*
X560733Y322787D01*
X560790Y322803D01*
X560847Y322816D01*
X560905Y322825D01*
X560963Y322830D01*
X561022Y322832D01*
X561081Y322830D01*
X561139Y322825D01*
X561197Y322816D01*
X561254Y322803D01*
X561311Y322787D01*
X561366Y322767D01*
X561420Y322744D01*
X561472Y322718D01*
X561523Y322688D01*
X561572Y322656D01*
X561619Y322620D01*
X561663Y322582D01*
X561705Y322541D01*
X561744Y322497D01*
X561781Y322451D01*
X561814Y322403D01*
X561845Y322353D01*
X561872Y322301D01*
X561896Y322248D01*
X561917Y322193D01*
X561917Y322192D02*
X561965Y322088D01*
X562011Y321983D01*
X562053Y321877D01*
X562092Y321769D01*
X562128Y321660D01*
X562160Y321550D01*
X562190Y321439D01*
X562215Y321327D01*
X562238Y321215D01*
X562257Y321102D01*
X562272Y320988D01*
X562284Y320874D01*
X562293Y320760D01*
X562298Y320646D01*
X562300Y320531D01*
X559744Y320531D02*
X559746Y320416D01*
X559751Y320302D01*
X559760Y320188D01*
X559772Y320074D01*
X559787Y319960D01*
X559806Y319847D01*
X559829Y319735D01*
X559854Y319623D01*
X559884Y319512D01*
X559916Y319402D01*
X559952Y319293D01*
X559991Y319185D01*
X560033Y319079D01*
X560079Y318974D01*
X560127Y318870D01*
X560148Y318815D01*
X560172Y318762D01*
X560199Y318710D01*
X560230Y318660D01*
X560263Y318612D01*
X560300Y318566D01*
X560339Y318522D01*
X560381Y318481D01*
X560425Y318443D01*
X560472Y318407D01*
X560521Y318375D01*
X560572Y318345D01*
X560624Y318319D01*
X560678Y318296D01*
X560733Y318276D01*
X560790Y318260D01*
X560847Y318247D01*
X560905Y318238D01*
X560963Y318233D01*
X561022Y318231D01*
X561917Y318870D02*
X561965Y318974D01*
X562011Y319079D01*
X562053Y319185D01*
X562092Y319293D01*
X562128Y319402D01*
X562160Y319512D01*
X562190Y319623D01*
X562215Y319735D01*
X562238Y319847D01*
X562257Y319960D01*
X562272Y320074D01*
X562284Y320188D01*
X562293Y320302D01*
X562298Y320416D01*
X562300Y320531D01*
X561917Y318870D02*
X561896Y318815D01*
X561872Y318762D01*
X561845Y318710D01*
X561814Y318660D01*
X561781Y318612D01*
X561744Y318566D01*
X561705Y318522D01*
X561663Y318481D01*
X561619Y318443D01*
X561572Y318407D01*
X561523Y318375D01*
X561472Y318345D01*
X561420Y318319D01*
X561366Y318296D01*
X561311Y318276D01*
X561254Y318260D01*
X561197Y318247D01*
X561139Y318238D01*
X561081Y318233D01*
X561022Y318231D01*
X560000Y319254D02*
X562044Y321809D01*
X550594Y328231D02*
X550594Y332831D01*
X551872Y332831D01*
X551872Y332832D02*
X551941Y332830D01*
X552010Y332825D01*
X552079Y332815D01*
X552147Y332802D01*
X552214Y332785D01*
X552280Y332765D01*
X552345Y332741D01*
X552409Y332714D01*
X552471Y332683D01*
X552531Y332649D01*
X552589Y332612D01*
X552645Y332571D01*
X552699Y332528D01*
X552751Y332482D01*
X552800Y332433D01*
X552846Y332381D01*
X552889Y332327D01*
X552930Y332271D01*
X552967Y332213D01*
X553001Y332153D01*
X553032Y332091D01*
X553059Y332027D01*
X553083Y331962D01*
X553103Y331896D01*
X553120Y331829D01*
X553133Y331761D01*
X553143Y331692D01*
X553148Y331623D01*
X553150Y331554D01*
X553150Y329509D01*
X553148Y329440D01*
X553143Y329371D01*
X553133Y329302D01*
X553120Y329234D01*
X553103Y329167D01*
X553083Y329101D01*
X553059Y329036D01*
X553032Y328972D01*
X553001Y328910D01*
X552967Y328850D01*
X552930Y328792D01*
X552889Y328736D01*
X552846Y328682D01*
X552800Y328630D01*
X552751Y328581D01*
X552699Y328535D01*
X552645Y328492D01*
X552589Y328451D01*
X552531Y328414D01*
X552471Y328380D01*
X552409Y328349D01*
X552345Y328322D01*
X552280Y328298D01*
X552214Y328278D01*
X552147Y328261D01*
X552079Y328248D01*
X552010Y328238D01*
X551941Y328233D01*
X551872Y328231D01*
X550594Y328231D01*
X555244Y331809D02*
X556522Y332831D01*
X556522Y328231D01*
X555244Y328231D02*
X557800Y328231D01*
X559744Y331809D02*
X561022Y332831D01*
X561022Y328231D01*
X559744Y328231D02*
X562300Y328231D01*
X550594Y338231D02*
X550594Y342831D01*
X551872Y342831D01*
X551872Y342832D02*
X551941Y342830D01*
X552010Y342825D01*
X552079Y342815D01*
X552147Y342802D01*
X552214Y342785D01*
X552280Y342765D01*
X552345Y342741D01*
X552409Y342714D01*
X552471Y342683D01*
X552531Y342649D01*
X552589Y342612D01*
X552645Y342571D01*
X552699Y342528D01*
X552751Y342482D01*
X552800Y342433D01*
X552846Y342381D01*
X552889Y342327D01*
X552930Y342271D01*
X552967Y342213D01*
X553001Y342153D01*
X553032Y342091D01*
X553059Y342027D01*
X553083Y341962D01*
X553103Y341896D01*
X553120Y341829D01*
X553133Y341761D01*
X553143Y341692D01*
X553148Y341623D01*
X553150Y341554D01*
X553150Y339509D01*
X553148Y339440D01*
X553143Y339371D01*
X553133Y339302D01*
X553120Y339234D01*
X553103Y339167D01*
X553083Y339101D01*
X553059Y339036D01*
X553032Y338972D01*
X553001Y338910D01*
X552967Y338850D01*
X552930Y338792D01*
X552889Y338736D01*
X552846Y338682D01*
X552800Y338630D01*
X552751Y338581D01*
X552699Y338535D01*
X552645Y338492D01*
X552589Y338451D01*
X552531Y338414D01*
X552471Y338380D01*
X552409Y338349D01*
X552345Y338322D01*
X552280Y338298D01*
X552214Y338278D01*
X552147Y338261D01*
X552079Y338248D01*
X552010Y338238D01*
X551941Y338233D01*
X551872Y338231D01*
X550594Y338231D01*
X555244Y341809D02*
X556522Y342831D01*
X556522Y338231D01*
X555244Y338231D02*
X557800Y338231D01*
X562300Y341681D02*
X562298Y341748D01*
X562292Y341815D01*
X562283Y341881D01*
X562269Y341946D01*
X562252Y342011D01*
X562231Y342074D01*
X562206Y342136D01*
X562178Y342197D01*
X562146Y342256D01*
X562111Y342313D01*
X562072Y342368D01*
X562031Y342420D01*
X561986Y342470D01*
X561939Y342517D01*
X561889Y342562D01*
X561837Y342603D01*
X561782Y342642D01*
X561725Y342677D01*
X561666Y342709D01*
X561605Y342737D01*
X561543Y342762D01*
X561480Y342783D01*
X561415Y342800D01*
X561350Y342814D01*
X561284Y342823D01*
X561217Y342829D01*
X561150Y342831D01*
X561076Y342829D01*
X561002Y342824D01*
X560928Y342814D01*
X560855Y342801D01*
X560782Y342785D01*
X560711Y342764D01*
X560641Y342740D01*
X560572Y342713D01*
X560504Y342682D01*
X560438Y342648D01*
X560374Y342611D01*
X560312Y342570D01*
X560252Y342526D01*
X560194Y342480D01*
X560138Y342430D01*
X560085Y342378D01*
X560035Y342323D01*
X559988Y342266D01*
X559944Y342206D01*
X559902Y342144D01*
X559864Y342081D01*
X559829Y342015D01*
X559798Y341948D01*
X559770Y341879D01*
X559745Y341809D01*
X561917Y340787D02*
X561964Y340834D01*
X562008Y340884D01*
X562050Y340936D01*
X562089Y340990D01*
X562124Y341046D01*
X562157Y341104D01*
X562187Y341164D01*
X562213Y341225D01*
X562236Y341288D01*
X562255Y341352D01*
X562271Y341416D01*
X562284Y341482D01*
X562293Y341548D01*
X562298Y341614D01*
X562300Y341681D01*
X561917Y340787D02*
X559744Y338231D01*
X562300Y338231D01*
X550594Y348231D02*
X550594Y352831D01*
X551872Y352831D01*
X551872Y352832D02*
X551941Y352830D01*
X552010Y352825D01*
X552079Y352815D01*
X552147Y352802D01*
X552214Y352785D01*
X552280Y352765D01*
X552345Y352741D01*
X552409Y352714D01*
X552471Y352683D01*
X552531Y352649D01*
X552589Y352612D01*
X552645Y352571D01*
X552699Y352528D01*
X552751Y352482D01*
X552800Y352433D01*
X552846Y352381D01*
X552889Y352327D01*
X552930Y352271D01*
X552967Y352213D01*
X553001Y352153D01*
X553032Y352091D01*
X553059Y352027D01*
X553083Y351962D01*
X553103Y351896D01*
X553120Y351829D01*
X553133Y351761D01*
X553143Y351692D01*
X553148Y351623D01*
X553150Y351554D01*
X553150Y349509D01*
X553148Y349440D01*
X553143Y349371D01*
X553133Y349302D01*
X553120Y349234D01*
X553103Y349167D01*
X553083Y349101D01*
X553059Y349036D01*
X553032Y348972D01*
X553001Y348910D01*
X552967Y348850D01*
X552930Y348792D01*
X552889Y348736D01*
X552846Y348682D01*
X552800Y348630D01*
X552751Y348581D01*
X552699Y348535D01*
X552645Y348492D01*
X552589Y348451D01*
X552531Y348414D01*
X552471Y348380D01*
X552409Y348349D01*
X552345Y348322D01*
X552280Y348298D01*
X552214Y348278D01*
X552147Y348261D01*
X552079Y348248D01*
X552010Y348238D01*
X551941Y348233D01*
X551872Y348231D01*
X550594Y348231D01*
X555244Y351809D02*
X556522Y352831D01*
X556522Y348231D01*
X555244Y348231D02*
X557800Y348231D01*
X559744Y348231D02*
X561022Y348231D01*
X561092Y348233D01*
X561163Y348239D01*
X561232Y348248D01*
X561301Y348262D01*
X561370Y348279D01*
X561437Y348300D01*
X561503Y348325D01*
X561567Y348353D01*
X561630Y348385D01*
X561691Y348420D01*
X561750Y348459D01*
X561807Y348500D01*
X561861Y348545D01*
X561913Y348593D01*
X561962Y348643D01*
X562009Y348697D01*
X562052Y348752D01*
X562092Y348810D01*
X562129Y348870D01*
X562162Y348932D01*
X562192Y348996D01*
X562219Y349061D01*
X562242Y349127D01*
X562261Y349195D01*
X562276Y349264D01*
X562288Y349333D01*
X562296Y349403D01*
X562300Y349474D01*
X562300Y349544D01*
X562296Y349615D01*
X562288Y349685D01*
X562276Y349754D01*
X562261Y349823D01*
X562242Y349891D01*
X562219Y349957D01*
X562192Y350022D01*
X562162Y350086D01*
X562129Y350148D01*
X562092Y350208D01*
X562052Y350266D01*
X562009Y350321D01*
X561962Y350375D01*
X561913Y350425D01*
X561861Y350473D01*
X561807Y350518D01*
X561750Y350559D01*
X561691Y350598D01*
X561630Y350633D01*
X561567Y350665D01*
X561503Y350693D01*
X561437Y350718D01*
X561370Y350739D01*
X561301Y350756D01*
X561232Y350770D01*
X561163Y350779D01*
X561092Y350785D01*
X561022Y350787D01*
X561278Y352831D02*
X559744Y352831D01*
X561278Y352831D02*
X561341Y352829D01*
X561404Y352823D01*
X561466Y352814D01*
X561527Y352800D01*
X561588Y352783D01*
X561647Y352762D01*
X561705Y352737D01*
X561762Y352709D01*
X561816Y352678D01*
X561868Y352643D01*
X561919Y352605D01*
X561967Y352564D01*
X562012Y352520D01*
X562054Y352474D01*
X562094Y352425D01*
X562130Y352374D01*
X562163Y352320D01*
X562193Y352265D01*
X562219Y352207D01*
X562242Y352149D01*
X562261Y352089D01*
X562276Y352028D01*
X562288Y351966D01*
X562296Y351903D01*
X562300Y351840D01*
X562300Y351778D01*
X562296Y351715D01*
X562288Y351652D01*
X562276Y351590D01*
X562261Y351529D01*
X562242Y351469D01*
X562219Y351411D01*
X562193Y351353D01*
X562163Y351298D01*
X562130Y351244D01*
X562094Y351193D01*
X562054Y351144D01*
X562012Y351098D01*
X561967Y351054D01*
X561919Y351013D01*
X561868Y350975D01*
X561816Y350940D01*
X561762Y350909D01*
X561705Y350881D01*
X561647Y350856D01*
X561588Y350835D01*
X561527Y350818D01*
X561466Y350804D01*
X561404Y350795D01*
X561341Y350789D01*
X561278Y350787D01*
X560256Y350787D01*
D12*
X540500Y310500D02*
X540500Y308500D01*
X504500Y308500D01*
X504500Y310500D01*
X504500Y314500D02*
X504500Y316500D01*
X540500Y316500D01*
X540500Y314500D01*
D13*
X526717Y314350D02*
X526717Y310650D01*
X526717Y314350D02*
X527745Y314350D01*
X527808Y314348D01*
X527871Y314342D01*
X527934Y314332D01*
X527996Y314319D01*
X528057Y314302D01*
X528116Y314281D01*
X528175Y314256D01*
X528231Y314228D01*
X528286Y314196D01*
X528339Y314161D01*
X528389Y314123D01*
X528438Y314082D01*
X528483Y314038D01*
X528526Y313991D01*
X528565Y313942D01*
X528602Y313890D01*
X528635Y313836D01*
X528665Y313780D01*
X528692Y313723D01*
X528715Y313664D01*
X528734Y313603D01*
X528749Y313542D01*
X528761Y313480D01*
X528769Y313417D01*
X528773Y313354D01*
X528773Y313290D01*
X528769Y313227D01*
X528761Y313164D01*
X528749Y313102D01*
X528734Y313041D01*
X528715Y312980D01*
X528692Y312921D01*
X528665Y312864D01*
X528635Y312808D01*
X528602Y312754D01*
X528565Y312702D01*
X528526Y312653D01*
X528483Y312606D01*
X528438Y312562D01*
X528389Y312521D01*
X528339Y312483D01*
X528286Y312448D01*
X528231Y312416D01*
X528175Y312388D01*
X528116Y312363D01*
X528057Y312342D01*
X527996Y312325D01*
X527934Y312312D01*
X527871Y312302D01*
X527808Y312296D01*
X527745Y312294D01*
X526717Y312294D01*
X527950Y312294D02*
X528772Y310650D01*
X530294Y313528D02*
X531322Y314350D01*
X531322Y310650D01*
X530294Y310650D02*
X532350Y310650D01*
D12*
X445500Y311000D02*
X445500Y313000D01*
X445500Y311000D02*
X409500Y311000D01*
X409500Y313000D01*
X409500Y317000D02*
X409500Y319000D01*
X445500Y319000D01*
X445500Y317000D01*
D13*
X431717Y316850D02*
X431717Y313150D01*
X431717Y316850D02*
X432745Y316850D01*
X432808Y316848D01*
X432871Y316842D01*
X432934Y316832D01*
X432996Y316819D01*
X433057Y316802D01*
X433116Y316781D01*
X433175Y316756D01*
X433231Y316728D01*
X433286Y316696D01*
X433339Y316661D01*
X433389Y316623D01*
X433438Y316582D01*
X433483Y316538D01*
X433526Y316491D01*
X433565Y316442D01*
X433602Y316390D01*
X433635Y316336D01*
X433665Y316280D01*
X433692Y316223D01*
X433715Y316164D01*
X433734Y316103D01*
X433749Y316042D01*
X433761Y315980D01*
X433769Y315917D01*
X433773Y315854D01*
X433773Y315790D01*
X433769Y315727D01*
X433761Y315664D01*
X433749Y315602D01*
X433734Y315541D01*
X433715Y315480D01*
X433692Y315421D01*
X433665Y315364D01*
X433635Y315308D01*
X433602Y315254D01*
X433565Y315202D01*
X433526Y315153D01*
X433483Y315106D01*
X433438Y315062D01*
X433389Y315021D01*
X433339Y314983D01*
X433286Y314948D01*
X433231Y314916D01*
X433175Y314888D01*
X433116Y314863D01*
X433057Y314842D01*
X432996Y314825D01*
X432934Y314812D01*
X432871Y314802D01*
X432808Y314796D01*
X432745Y314794D01*
X431717Y314794D01*
X432950Y314794D02*
X433772Y313150D01*
X437350Y315925D02*
X437348Y315983D01*
X437343Y316041D01*
X437334Y316098D01*
X437321Y316155D01*
X437305Y316211D01*
X437285Y316266D01*
X437262Y316319D01*
X437236Y316371D01*
X437206Y316421D01*
X437173Y316469D01*
X437138Y316515D01*
X437099Y316558D01*
X437058Y316599D01*
X437015Y316638D01*
X436969Y316673D01*
X436921Y316706D01*
X436871Y316736D01*
X436819Y316762D01*
X436766Y316785D01*
X436711Y316805D01*
X436655Y316821D01*
X436598Y316834D01*
X436541Y316843D01*
X436483Y316848D01*
X436425Y316850D01*
X436357Y316848D01*
X436289Y316842D01*
X436222Y316833D01*
X436156Y316819D01*
X436090Y316802D01*
X436025Y316781D01*
X435962Y316756D01*
X435900Y316728D01*
X435840Y316696D01*
X435782Y316661D01*
X435726Y316623D01*
X435673Y316581D01*
X435621Y316537D01*
X435573Y316489D01*
X435527Y316439D01*
X435484Y316387D01*
X435444Y316332D01*
X435407Y316275D01*
X435374Y316216D01*
X435344Y316155D01*
X435318Y316092D01*
X435295Y316028D01*
X437042Y315205D02*
X437085Y315249D01*
X437126Y315296D01*
X437163Y315345D01*
X437198Y315396D01*
X437229Y315450D01*
X437257Y315505D01*
X437281Y315562D01*
X437302Y315620D01*
X437319Y315680D01*
X437333Y315740D01*
X437342Y315801D01*
X437348Y315863D01*
X437350Y315925D01*
X437042Y315206D02*
X435294Y313150D01*
X437350Y313150D01*
D12*
X463000Y315000D02*
X463000Y318000D01*
X463000Y315000D02*
X463000Y312000D01*
X467000Y315000D01*
X463000Y318000D01*
X467000Y318000D02*
X467000Y315000D01*
X467000Y312000D01*
X463000Y315000D02*
X460000Y315000D01*
X467000Y315000D02*
X470000Y315000D01*
X465000Y318000D02*
X465000Y320000D01*
X464000Y319000D01*
X465000Y320000D02*
X466000Y319000D01*
D13*
X460556Y311850D02*
X460556Y308150D01*
X462200Y308150D01*
X463669Y308150D02*
X463669Y311850D01*
X464697Y311850D01*
X464759Y311848D01*
X464821Y311843D01*
X464882Y311833D01*
X464943Y311820D01*
X465003Y311803D01*
X465062Y311783D01*
X465119Y311759D01*
X465175Y311732D01*
X465229Y311702D01*
X465281Y311668D01*
X465331Y311631D01*
X465379Y311591D01*
X465424Y311549D01*
X465466Y311504D01*
X465506Y311456D01*
X465543Y311406D01*
X465577Y311354D01*
X465607Y311300D01*
X465634Y311244D01*
X465658Y311187D01*
X465678Y311128D01*
X465695Y311068D01*
X465708Y311007D01*
X465718Y310946D01*
X465723Y310884D01*
X465725Y310822D01*
X465724Y310822D02*
X465724Y309178D01*
X465725Y309178D02*
X465723Y309116D01*
X465718Y309054D01*
X465708Y308993D01*
X465695Y308932D01*
X465678Y308872D01*
X465658Y308813D01*
X465634Y308756D01*
X465607Y308700D01*
X465577Y308646D01*
X465543Y308594D01*
X465506Y308544D01*
X465466Y308496D01*
X465424Y308451D01*
X465379Y308409D01*
X465331Y308369D01*
X465281Y308332D01*
X465229Y308298D01*
X465175Y308268D01*
X465119Y308241D01*
X465062Y308217D01*
X465003Y308197D01*
X464943Y308180D01*
X464882Y308167D01*
X464821Y308157D01*
X464759Y308152D01*
X464697Y308150D01*
X463669Y308150D01*
X467389Y311028D02*
X468417Y311850D01*
X468417Y308150D01*
X469444Y308150D02*
X467389Y308150D01*
D12*
X491500Y306000D02*
X491278Y305893D01*
X491053Y305791D01*
X490827Y305694D01*
X490597Y305603D01*
X490366Y305518D01*
X490132Y305438D01*
X489897Y305364D01*
X489660Y305296D01*
X489422Y305234D01*
X489181Y305177D01*
X488940Y305127D01*
X488697Y305082D01*
X488454Y305044D01*
X488209Y305011D01*
X487964Y304984D01*
X487718Y304964D01*
X487472Y304949D01*
X487226Y304941D01*
X486979Y304938D01*
X486733Y304942D01*
X486486Y304951D01*
X486240Y304967D01*
X485994Y304988D01*
X485749Y305016D01*
X485505Y305050D01*
X485262Y305089D01*
X485019Y305135D01*
X484778Y305186D01*
X484538Y305244D01*
X484300Y305307D01*
X484063Y305376D01*
X483828Y305451D01*
X483595Y305532D01*
X483364Y305618D01*
X483135Y305710D01*
X482908Y305807D01*
X482684Y305910D01*
X482463Y306019D01*
X482244Y306133D01*
X482028Y306252D01*
X481815Y306377D01*
X481606Y306506D01*
X481399Y306641D01*
X481196Y306781D01*
X480996Y306925D01*
X480800Y307075D01*
X480608Y307229D01*
X480419Y307388D01*
X480235Y307552D01*
X480054Y307720D01*
X479878Y307892D01*
X479706Y308069D01*
X479538Y308250D01*
X479375Y308435D01*
X479216Y308624D01*
X479062Y308816D01*
X478913Y309013D01*
X478769Y309213D01*
X478629Y309416D01*
X478495Y309623D01*
X478366Y309833D01*
X478242Y310046D01*
X478123Y310263D01*
X478010Y310482D01*
X477902Y310703D01*
X477799Y310928D01*
X477702Y311154D01*
X477610Y311383D01*
X477525Y311615D01*
X477445Y311848D01*
X477370Y312083D01*
X477302Y312320D01*
X477239Y312558D01*
X477182Y312798D01*
X477131Y313040D01*
X477086Y313282D01*
X477047Y313526D01*
X477013Y313770D01*
X476986Y314015D01*
X476965Y314261D01*
X476950Y314507D01*
X476941Y314753D01*
X476938Y315000D01*
X476941Y315247D01*
X476950Y315493D01*
X476965Y315739D01*
X476986Y315985D01*
X477013Y316230D01*
X477047Y316474D01*
X477086Y316718D01*
X477131Y316960D01*
X477182Y317202D01*
X477239Y317442D01*
X477302Y317680D01*
X477370Y317917D01*
X477445Y318152D01*
X477525Y318385D01*
X477610Y318617D01*
X477702Y318846D01*
X477799Y319072D01*
X477902Y319297D01*
X478010Y319518D01*
X478123Y319737D01*
X478242Y319954D01*
X478366Y320167D01*
X478495Y320377D01*
X478629Y320584D01*
X478769Y320787D01*
X478913Y320987D01*
X479062Y321184D01*
X479216Y321376D01*
X479375Y321565D01*
X479538Y321750D01*
X479706Y321931D01*
X479878Y322108D01*
X480054Y322280D01*
X480235Y322448D01*
X480419Y322612D01*
X480608Y322771D01*
X480800Y322925D01*
X480996Y323075D01*
X481196Y323219D01*
X481399Y323359D01*
X481606Y323494D01*
X481815Y323623D01*
X482028Y323748D01*
X482244Y323867D01*
X482463Y323981D01*
X482684Y324090D01*
X482908Y324193D01*
X483135Y324290D01*
X483364Y324382D01*
X483595Y324468D01*
X483828Y324549D01*
X484063Y324624D01*
X484300Y324693D01*
X484538Y324756D01*
X484778Y324814D01*
X485019Y324865D01*
X485262Y324911D01*
X485505Y324950D01*
X485749Y324984D01*
X485994Y325012D01*
X486240Y325033D01*
X486486Y325049D01*
X486733Y325058D01*
X486979Y325062D01*
X487226Y325059D01*
X487472Y325051D01*
X487718Y325036D01*
X487964Y325016D01*
X488209Y324989D01*
X488454Y324956D01*
X488697Y324918D01*
X488940Y324873D01*
X489181Y324823D01*
X489422Y324766D01*
X489660Y324704D01*
X489897Y324636D01*
X490132Y324562D01*
X490366Y324482D01*
X490597Y324397D01*
X490827Y324306D01*
X491053Y324209D01*
X491278Y324107D01*
X491500Y324000D01*
X491500Y306000D01*
D13*
X482322Y312214D02*
X480678Y312214D01*
X480615Y312216D01*
X480552Y312222D01*
X480489Y312232D01*
X480427Y312245D01*
X480366Y312262D01*
X480307Y312283D01*
X480248Y312308D01*
X480192Y312336D01*
X480137Y312368D01*
X480084Y312403D01*
X480034Y312441D01*
X479985Y312482D01*
X479940Y312526D01*
X479897Y312573D01*
X479858Y312622D01*
X479821Y312674D01*
X479788Y312728D01*
X479758Y312784D01*
X479731Y312841D01*
X479708Y312900D01*
X479689Y312961D01*
X479674Y313022D01*
X479662Y313084D01*
X479654Y313147D01*
X479650Y313210D01*
X479650Y313274D01*
X479654Y313337D01*
X479662Y313400D01*
X479674Y313462D01*
X479689Y313523D01*
X479708Y313584D01*
X479731Y313643D01*
X479758Y313700D01*
X479788Y313756D01*
X479821Y313810D01*
X479858Y313862D01*
X479897Y313911D01*
X479940Y313958D01*
X479985Y314002D01*
X480034Y314043D01*
X480084Y314081D01*
X480137Y314116D01*
X480192Y314148D01*
X480248Y314176D01*
X480307Y314201D01*
X480366Y314222D01*
X480427Y314239D01*
X480489Y314252D01*
X480552Y314262D01*
X480615Y314268D01*
X480678Y314270D01*
X482322Y314270D01*
X482385Y314268D01*
X482448Y314262D01*
X482511Y314252D01*
X482573Y314239D01*
X482634Y314222D01*
X482693Y314201D01*
X482752Y314176D01*
X482808Y314148D01*
X482863Y314116D01*
X482916Y314081D01*
X482966Y314043D01*
X483015Y314002D01*
X483060Y313958D01*
X483103Y313911D01*
X483142Y313862D01*
X483179Y313810D01*
X483212Y313756D01*
X483242Y313700D01*
X483269Y313643D01*
X483292Y313584D01*
X483311Y313523D01*
X483326Y313462D01*
X483338Y313400D01*
X483346Y313337D01*
X483350Y313274D01*
X483350Y313210D01*
X483346Y313147D01*
X483338Y313084D01*
X483326Y313022D01*
X483311Y312961D01*
X483292Y312900D01*
X483269Y312841D01*
X483242Y312784D01*
X483212Y312728D01*
X483179Y312674D01*
X483142Y312622D01*
X483103Y312573D01*
X483060Y312526D01*
X483015Y312482D01*
X482966Y312441D01*
X482916Y312403D01*
X482863Y312368D01*
X482808Y312336D01*
X482752Y312308D01*
X482693Y312283D01*
X482634Y312262D01*
X482573Y312245D01*
X482511Y312232D01*
X482448Y312222D01*
X482385Y312216D01*
X482322Y312214D01*
X482528Y313858D02*
X483350Y314681D01*
X480472Y315730D02*
X479650Y316758D01*
X483350Y316758D01*
X483350Y315730D02*
X483350Y317786D01*
D12*
X-8000Y-211000D02*
X-8000Y-213000D01*
X-8000Y-211000D02*
X28000Y-211000D01*
X28000Y-213000D01*
X28000Y-217000D02*
X28000Y-219000D01*
X-8000Y-219000D01*
X-8000Y-217000D01*
D13*
X150Y-216850D02*
X150Y-213150D01*
X1178Y-213150D01*
X1241Y-213152D01*
X1304Y-213158D01*
X1367Y-213168D01*
X1429Y-213181D01*
X1490Y-213198D01*
X1549Y-213219D01*
X1608Y-213244D01*
X1664Y-213272D01*
X1719Y-213304D01*
X1772Y-213339D01*
X1822Y-213377D01*
X1871Y-213418D01*
X1916Y-213462D01*
X1959Y-213509D01*
X1998Y-213558D01*
X2035Y-213610D01*
X2068Y-213664D01*
X2098Y-213720D01*
X2125Y-213777D01*
X2148Y-213836D01*
X2167Y-213897D01*
X2182Y-213958D01*
X2194Y-214020D01*
X2202Y-214083D01*
X2206Y-214146D01*
X2206Y-214210D01*
X2202Y-214273D01*
X2194Y-214336D01*
X2182Y-214398D01*
X2167Y-214459D01*
X2148Y-214520D01*
X2125Y-214579D01*
X2098Y-214636D01*
X2068Y-214692D01*
X2035Y-214746D01*
X1998Y-214798D01*
X1959Y-214847D01*
X1916Y-214894D01*
X1871Y-214938D01*
X1822Y-214979D01*
X1772Y-215017D01*
X1719Y-215052D01*
X1664Y-215084D01*
X1608Y-215112D01*
X1549Y-215137D01*
X1490Y-215158D01*
X1429Y-215175D01*
X1367Y-215188D01*
X1304Y-215198D01*
X1241Y-215204D01*
X1178Y-215206D01*
X150Y-215206D01*
X1383Y-215206D02*
X2206Y-216850D01*
X3728Y-216850D02*
X4755Y-216850D01*
X4818Y-216848D01*
X4881Y-216842D01*
X4944Y-216832D01*
X5006Y-216819D01*
X5067Y-216802D01*
X5126Y-216781D01*
X5185Y-216756D01*
X5241Y-216728D01*
X5296Y-216696D01*
X5349Y-216661D01*
X5399Y-216623D01*
X5448Y-216582D01*
X5493Y-216538D01*
X5536Y-216491D01*
X5575Y-216442D01*
X5612Y-216390D01*
X5645Y-216336D01*
X5675Y-216280D01*
X5702Y-216223D01*
X5725Y-216164D01*
X5744Y-216103D01*
X5759Y-216042D01*
X5771Y-215980D01*
X5779Y-215917D01*
X5783Y-215854D01*
X5783Y-215790D01*
X5779Y-215727D01*
X5771Y-215664D01*
X5759Y-215602D01*
X5744Y-215541D01*
X5725Y-215480D01*
X5702Y-215421D01*
X5675Y-215364D01*
X5645Y-215308D01*
X5612Y-215254D01*
X5575Y-215202D01*
X5536Y-215153D01*
X5493Y-215106D01*
X5448Y-215062D01*
X5399Y-215021D01*
X5349Y-214983D01*
X5296Y-214948D01*
X5241Y-214916D01*
X5185Y-214888D01*
X5126Y-214863D01*
X5067Y-214842D01*
X5006Y-214825D01*
X4944Y-214812D01*
X4881Y-214802D01*
X4818Y-214796D01*
X4755Y-214794D01*
X4961Y-213150D02*
X3728Y-213150D01*
X4961Y-213150D02*
X5017Y-213152D01*
X5073Y-213158D01*
X5128Y-213167D01*
X5183Y-213180D01*
X5236Y-213197D01*
X5288Y-213218D01*
X5339Y-213242D01*
X5388Y-213270D01*
X5435Y-213300D01*
X5480Y-213334D01*
X5522Y-213371D01*
X5562Y-213411D01*
X5599Y-213453D01*
X5633Y-213498D01*
X5663Y-213545D01*
X5691Y-213594D01*
X5715Y-213645D01*
X5736Y-213697D01*
X5753Y-213750D01*
X5766Y-213805D01*
X5775Y-213860D01*
X5781Y-213916D01*
X5783Y-213972D01*
X5781Y-214028D01*
X5775Y-214084D01*
X5766Y-214139D01*
X5753Y-214194D01*
X5736Y-214247D01*
X5715Y-214299D01*
X5691Y-214350D01*
X5663Y-214399D01*
X5633Y-214446D01*
X5599Y-214491D01*
X5562Y-214533D01*
X5522Y-214573D01*
X5480Y-214610D01*
X5435Y-214644D01*
X5388Y-214674D01*
X5339Y-214702D01*
X5288Y-214726D01*
X5236Y-214747D01*
X5183Y-214764D01*
X5128Y-214777D01*
X5073Y-214786D01*
X5017Y-214792D01*
X4961Y-214794D01*
X4139Y-214794D01*
D12*
X-8000Y-221000D02*
X-8000Y-223000D01*
X-8000Y-221000D02*
X28000Y-221000D01*
X28000Y-223000D01*
X28000Y-227000D02*
X28000Y-229000D01*
X-8000Y-229000D01*
X-8000Y-227000D01*
D13*
X150Y-226850D02*
X150Y-223150D01*
X1178Y-223150D01*
X1241Y-223152D01*
X1304Y-223158D01*
X1367Y-223168D01*
X1429Y-223181D01*
X1490Y-223198D01*
X1549Y-223219D01*
X1608Y-223244D01*
X1664Y-223272D01*
X1719Y-223304D01*
X1772Y-223339D01*
X1822Y-223377D01*
X1871Y-223418D01*
X1916Y-223462D01*
X1959Y-223509D01*
X1998Y-223558D01*
X2035Y-223610D01*
X2068Y-223664D01*
X2098Y-223720D01*
X2125Y-223777D01*
X2148Y-223836D01*
X2167Y-223897D01*
X2182Y-223958D01*
X2194Y-224020D01*
X2202Y-224083D01*
X2206Y-224146D01*
X2206Y-224210D01*
X2202Y-224273D01*
X2194Y-224336D01*
X2182Y-224398D01*
X2167Y-224459D01*
X2148Y-224520D01*
X2125Y-224579D01*
X2098Y-224636D01*
X2068Y-224692D01*
X2035Y-224746D01*
X1998Y-224798D01*
X1959Y-224847D01*
X1916Y-224894D01*
X1871Y-224938D01*
X1822Y-224979D01*
X1772Y-225017D01*
X1719Y-225052D01*
X1664Y-225084D01*
X1608Y-225112D01*
X1549Y-225137D01*
X1490Y-225158D01*
X1429Y-225175D01*
X1367Y-225188D01*
X1304Y-225198D01*
X1241Y-225204D01*
X1178Y-225206D01*
X150Y-225206D01*
X1383Y-225206D02*
X2206Y-226850D01*
X3728Y-226028D02*
X4550Y-223150D01*
X3728Y-226028D02*
X5783Y-226028D01*
X5166Y-225206D02*
X5166Y-226850D01*
D12*
X-8000Y-231000D02*
X-8000Y-233000D01*
X-8000Y-231000D02*
X28000Y-231000D01*
X28000Y-233000D01*
X28000Y-237000D02*
X28000Y-239000D01*
X-8000Y-239000D01*
X-8000Y-237000D01*
D13*
X150Y-236850D02*
X150Y-233150D01*
X1178Y-233150D01*
X1241Y-233152D01*
X1304Y-233158D01*
X1367Y-233168D01*
X1429Y-233181D01*
X1490Y-233198D01*
X1549Y-233219D01*
X1608Y-233244D01*
X1664Y-233272D01*
X1719Y-233304D01*
X1772Y-233339D01*
X1822Y-233377D01*
X1871Y-233418D01*
X1916Y-233462D01*
X1959Y-233509D01*
X1998Y-233558D01*
X2035Y-233610D01*
X2068Y-233664D01*
X2098Y-233720D01*
X2125Y-233777D01*
X2148Y-233836D01*
X2167Y-233897D01*
X2182Y-233958D01*
X2194Y-234020D01*
X2202Y-234083D01*
X2206Y-234146D01*
X2206Y-234210D01*
X2202Y-234273D01*
X2194Y-234336D01*
X2182Y-234398D01*
X2167Y-234459D01*
X2148Y-234520D01*
X2125Y-234579D01*
X2098Y-234636D01*
X2068Y-234692D01*
X2035Y-234746D01*
X1998Y-234798D01*
X1959Y-234847D01*
X1916Y-234894D01*
X1871Y-234938D01*
X1822Y-234979D01*
X1772Y-235017D01*
X1719Y-235052D01*
X1664Y-235084D01*
X1608Y-235112D01*
X1549Y-235137D01*
X1490Y-235158D01*
X1429Y-235175D01*
X1367Y-235188D01*
X1304Y-235198D01*
X1241Y-235204D01*
X1178Y-235206D01*
X150Y-235206D01*
X1383Y-235206D02*
X2206Y-236850D01*
X3728Y-236850D02*
X4961Y-236850D01*
X5017Y-236848D01*
X5073Y-236842D01*
X5128Y-236833D01*
X5183Y-236820D01*
X5236Y-236803D01*
X5288Y-236782D01*
X5339Y-236758D01*
X5388Y-236730D01*
X5435Y-236700D01*
X5480Y-236666D01*
X5522Y-236629D01*
X5562Y-236589D01*
X5599Y-236547D01*
X5633Y-236502D01*
X5663Y-236455D01*
X5691Y-236406D01*
X5715Y-236355D01*
X5736Y-236303D01*
X5753Y-236250D01*
X5766Y-236195D01*
X5775Y-236140D01*
X5781Y-236084D01*
X5783Y-236028D01*
X5783Y-235617D01*
X5781Y-235561D01*
X5775Y-235505D01*
X5766Y-235450D01*
X5753Y-235395D01*
X5736Y-235342D01*
X5715Y-235290D01*
X5691Y-235239D01*
X5663Y-235190D01*
X5633Y-235143D01*
X5599Y-235098D01*
X5562Y-235056D01*
X5522Y-235016D01*
X5480Y-234979D01*
X5435Y-234945D01*
X5388Y-234915D01*
X5339Y-234887D01*
X5288Y-234863D01*
X5236Y-234842D01*
X5183Y-234825D01*
X5128Y-234812D01*
X5073Y-234803D01*
X5017Y-234797D01*
X4961Y-234795D01*
X4961Y-234794D02*
X3728Y-234794D01*
X3728Y-233150D01*
X5783Y-233150D01*
D12*
X-8000Y-241000D02*
X-8000Y-243000D01*
X-8000Y-241000D02*
X28000Y-241000D01*
X28000Y-243000D01*
X28000Y-247000D02*
X28000Y-249000D01*
X-8000Y-249000D01*
X-8000Y-247000D01*
D13*
X150Y-246850D02*
X150Y-243150D01*
X1178Y-243150D01*
X1241Y-243152D01*
X1304Y-243158D01*
X1367Y-243168D01*
X1429Y-243181D01*
X1490Y-243198D01*
X1549Y-243219D01*
X1608Y-243244D01*
X1664Y-243272D01*
X1719Y-243304D01*
X1772Y-243339D01*
X1822Y-243377D01*
X1871Y-243418D01*
X1916Y-243462D01*
X1959Y-243509D01*
X1998Y-243558D01*
X2035Y-243610D01*
X2068Y-243664D01*
X2098Y-243720D01*
X2125Y-243777D01*
X2148Y-243836D01*
X2167Y-243897D01*
X2182Y-243958D01*
X2194Y-244020D01*
X2202Y-244083D01*
X2206Y-244146D01*
X2206Y-244210D01*
X2202Y-244273D01*
X2194Y-244336D01*
X2182Y-244398D01*
X2167Y-244459D01*
X2148Y-244520D01*
X2125Y-244579D01*
X2098Y-244636D01*
X2068Y-244692D01*
X2035Y-244746D01*
X1998Y-244798D01*
X1959Y-244847D01*
X1916Y-244894D01*
X1871Y-244938D01*
X1822Y-244979D01*
X1772Y-245017D01*
X1719Y-245052D01*
X1664Y-245084D01*
X1608Y-245112D01*
X1549Y-245137D01*
X1490Y-245158D01*
X1429Y-245175D01*
X1367Y-245188D01*
X1304Y-245198D01*
X1241Y-245204D01*
X1178Y-245206D01*
X150Y-245206D01*
X1383Y-245206D02*
X2206Y-246850D01*
X3728Y-244794D02*
X4961Y-244794D01*
X4961Y-244795D02*
X5017Y-244797D01*
X5073Y-244803D01*
X5128Y-244812D01*
X5183Y-244825D01*
X5236Y-244842D01*
X5288Y-244863D01*
X5339Y-244887D01*
X5388Y-244915D01*
X5435Y-244945D01*
X5480Y-244979D01*
X5522Y-245016D01*
X5562Y-245056D01*
X5599Y-245098D01*
X5633Y-245143D01*
X5663Y-245190D01*
X5691Y-245239D01*
X5715Y-245290D01*
X5736Y-245342D01*
X5753Y-245395D01*
X5766Y-245450D01*
X5775Y-245505D01*
X5781Y-245561D01*
X5783Y-245617D01*
X5783Y-245822D01*
X5781Y-245885D01*
X5775Y-245948D01*
X5765Y-246011D01*
X5752Y-246073D01*
X5735Y-246134D01*
X5714Y-246193D01*
X5689Y-246252D01*
X5661Y-246308D01*
X5629Y-246363D01*
X5594Y-246416D01*
X5556Y-246466D01*
X5515Y-246515D01*
X5471Y-246560D01*
X5424Y-246603D01*
X5375Y-246642D01*
X5323Y-246679D01*
X5269Y-246712D01*
X5213Y-246742D01*
X5156Y-246769D01*
X5097Y-246792D01*
X5036Y-246811D01*
X4975Y-246826D01*
X4913Y-246838D01*
X4850Y-246846D01*
X4787Y-246850D01*
X4723Y-246850D01*
X4660Y-246846D01*
X4597Y-246838D01*
X4535Y-246826D01*
X4474Y-246811D01*
X4413Y-246792D01*
X4354Y-246769D01*
X4297Y-246742D01*
X4241Y-246712D01*
X4187Y-246679D01*
X4135Y-246642D01*
X4086Y-246603D01*
X4039Y-246560D01*
X3995Y-246515D01*
X3954Y-246466D01*
X3916Y-246416D01*
X3881Y-246363D01*
X3849Y-246308D01*
X3821Y-246252D01*
X3796Y-246193D01*
X3775Y-246134D01*
X3758Y-246073D01*
X3745Y-246011D01*
X3735Y-245948D01*
X3729Y-245885D01*
X3727Y-245822D01*
X3728Y-245822D02*
X3728Y-244794D01*
X3730Y-244713D01*
X3736Y-244633D01*
X3746Y-244553D01*
X3760Y-244473D01*
X3777Y-244395D01*
X3799Y-244317D01*
X3824Y-244240D01*
X3853Y-244165D01*
X3886Y-244091D01*
X3922Y-244019D01*
X3962Y-243949D01*
X4005Y-243881D01*
X4052Y-243815D01*
X4101Y-243751D01*
X4154Y-243690D01*
X4210Y-243632D01*
X4268Y-243576D01*
X4329Y-243523D01*
X4393Y-243474D01*
X4459Y-243427D01*
X4527Y-243384D01*
X4597Y-243344D01*
X4669Y-243308D01*
X4743Y-243275D01*
X4818Y-243246D01*
X4895Y-243221D01*
X4973Y-243199D01*
X5051Y-243182D01*
X5131Y-243168D01*
X5211Y-243158D01*
X5291Y-243152D01*
X5372Y-243150D01*
D12*
X-8000Y-251000D02*
X-8000Y-253000D01*
X-8000Y-251000D02*
X28000Y-251000D01*
X28000Y-253000D01*
X28000Y-257000D02*
X28000Y-259000D01*
X-8000Y-259000D01*
X-8000Y-257000D01*
D13*
X150Y-256850D02*
X150Y-253150D01*
X1178Y-253150D01*
X1241Y-253152D01*
X1304Y-253158D01*
X1367Y-253168D01*
X1429Y-253181D01*
X1490Y-253198D01*
X1549Y-253219D01*
X1608Y-253244D01*
X1664Y-253272D01*
X1719Y-253304D01*
X1772Y-253339D01*
X1822Y-253377D01*
X1871Y-253418D01*
X1916Y-253462D01*
X1959Y-253509D01*
X1998Y-253558D01*
X2035Y-253610D01*
X2068Y-253664D01*
X2098Y-253720D01*
X2125Y-253777D01*
X2148Y-253836D01*
X2167Y-253897D01*
X2182Y-253958D01*
X2194Y-254020D01*
X2202Y-254083D01*
X2206Y-254146D01*
X2206Y-254210D01*
X2202Y-254273D01*
X2194Y-254336D01*
X2182Y-254398D01*
X2167Y-254459D01*
X2148Y-254520D01*
X2125Y-254579D01*
X2098Y-254636D01*
X2068Y-254692D01*
X2035Y-254746D01*
X1998Y-254798D01*
X1959Y-254847D01*
X1916Y-254894D01*
X1871Y-254938D01*
X1822Y-254979D01*
X1772Y-255017D01*
X1719Y-255052D01*
X1664Y-255084D01*
X1608Y-255112D01*
X1549Y-255137D01*
X1490Y-255158D01*
X1429Y-255175D01*
X1367Y-255188D01*
X1304Y-255198D01*
X1241Y-255204D01*
X1178Y-255206D01*
X150Y-255206D01*
X1383Y-255206D02*
X2206Y-256850D01*
X3728Y-253561D02*
X3728Y-253150D01*
X5783Y-253150D01*
X4755Y-256850D01*
D12*
X-8000Y-271000D02*
X-8000Y-273000D01*
X-8000Y-271000D02*
X28000Y-271000D01*
X28000Y-273000D01*
X28000Y-277000D02*
X28000Y-279000D01*
X-8000Y-279000D01*
X-8000Y-277000D01*
D13*
X150Y-276850D02*
X150Y-273150D01*
X1178Y-273150D01*
X1241Y-273152D01*
X1304Y-273158D01*
X1367Y-273168D01*
X1429Y-273181D01*
X1490Y-273198D01*
X1549Y-273219D01*
X1608Y-273244D01*
X1664Y-273272D01*
X1719Y-273304D01*
X1772Y-273339D01*
X1822Y-273377D01*
X1871Y-273418D01*
X1916Y-273462D01*
X1959Y-273509D01*
X1998Y-273558D01*
X2035Y-273610D01*
X2068Y-273664D01*
X2098Y-273720D01*
X2125Y-273777D01*
X2148Y-273836D01*
X2167Y-273897D01*
X2182Y-273958D01*
X2194Y-274020D01*
X2202Y-274083D01*
X2206Y-274146D01*
X2206Y-274210D01*
X2202Y-274273D01*
X2194Y-274336D01*
X2182Y-274398D01*
X2167Y-274459D01*
X2148Y-274520D01*
X2125Y-274579D01*
X2098Y-274636D01*
X2068Y-274692D01*
X2035Y-274746D01*
X1998Y-274798D01*
X1959Y-274847D01*
X1916Y-274894D01*
X1871Y-274938D01*
X1822Y-274979D01*
X1772Y-275017D01*
X1719Y-275052D01*
X1664Y-275084D01*
X1608Y-275112D01*
X1549Y-275137D01*
X1490Y-275158D01*
X1429Y-275175D01*
X1367Y-275188D01*
X1304Y-275198D01*
X1241Y-275204D01*
X1178Y-275206D01*
X150Y-275206D01*
X1383Y-275206D02*
X2206Y-276850D01*
X4550Y-275206D02*
X5783Y-275206D01*
X4550Y-275205D02*
X4494Y-275203D01*
X4438Y-275197D01*
X4383Y-275188D01*
X4328Y-275175D01*
X4275Y-275158D01*
X4223Y-275137D01*
X4172Y-275113D01*
X4123Y-275085D01*
X4076Y-275055D01*
X4031Y-275021D01*
X3989Y-274984D01*
X3949Y-274944D01*
X3912Y-274902D01*
X3878Y-274857D01*
X3848Y-274810D01*
X3820Y-274761D01*
X3796Y-274710D01*
X3775Y-274658D01*
X3758Y-274605D01*
X3745Y-274550D01*
X3736Y-274495D01*
X3730Y-274439D01*
X3728Y-274383D01*
X3728Y-274178D01*
X3727Y-274178D02*
X3729Y-274115D01*
X3735Y-274052D01*
X3745Y-273989D01*
X3758Y-273927D01*
X3775Y-273866D01*
X3796Y-273807D01*
X3821Y-273748D01*
X3849Y-273692D01*
X3881Y-273637D01*
X3916Y-273584D01*
X3954Y-273534D01*
X3995Y-273485D01*
X4039Y-273440D01*
X4086Y-273397D01*
X4135Y-273358D01*
X4187Y-273321D01*
X4241Y-273288D01*
X4297Y-273258D01*
X4354Y-273231D01*
X4413Y-273208D01*
X4474Y-273189D01*
X4535Y-273174D01*
X4597Y-273162D01*
X4660Y-273154D01*
X4723Y-273150D01*
X4787Y-273150D01*
X4850Y-273154D01*
X4913Y-273162D01*
X4975Y-273174D01*
X5036Y-273189D01*
X5097Y-273208D01*
X5156Y-273231D01*
X5213Y-273258D01*
X5269Y-273288D01*
X5323Y-273321D01*
X5375Y-273358D01*
X5424Y-273397D01*
X5471Y-273440D01*
X5515Y-273485D01*
X5556Y-273534D01*
X5594Y-273584D01*
X5629Y-273637D01*
X5661Y-273692D01*
X5689Y-273748D01*
X5714Y-273807D01*
X5735Y-273866D01*
X5752Y-273927D01*
X5765Y-273989D01*
X5775Y-274052D01*
X5781Y-274115D01*
X5783Y-274178D01*
X5783Y-275206D01*
X5781Y-275284D01*
X5776Y-275362D01*
X5766Y-275440D01*
X5753Y-275517D01*
X5737Y-275594D01*
X5716Y-275669D01*
X5693Y-275744D01*
X5665Y-275817D01*
X5634Y-275889D01*
X5600Y-275959D01*
X5563Y-276028D01*
X5522Y-276095D01*
X5478Y-276160D01*
X5431Y-276222D01*
X5381Y-276283D01*
X5329Y-276340D01*
X5273Y-276396D01*
X5216Y-276448D01*
X5155Y-276498D01*
X5093Y-276545D01*
X5028Y-276589D01*
X4961Y-276630D01*
X4892Y-276667D01*
X4822Y-276701D01*
X4750Y-276732D01*
X4677Y-276760D01*
X4602Y-276783D01*
X4527Y-276804D01*
X4450Y-276820D01*
X4373Y-276833D01*
X4295Y-276843D01*
X4217Y-276848D01*
X4139Y-276850D01*
D12*
X-47000Y-272586D02*
X-47000Y-249414D01*
X-47001Y-272586D02*
X-46985Y-272724D01*
X-46965Y-272861D01*
X-46941Y-272997D01*
X-46914Y-273133D01*
X-46882Y-273268D01*
X-46847Y-273402D01*
X-46809Y-273535D01*
X-46766Y-273667D01*
X-46720Y-273798D01*
X-46670Y-273927D01*
X-46617Y-274055D01*
X-46560Y-274181D01*
X-46499Y-274306D01*
X-46435Y-274429D01*
X-46368Y-274550D01*
X-46297Y-274669D01*
X-46223Y-274786D01*
X-46146Y-274901D01*
X-46065Y-275014D01*
X-45981Y-275124D01*
X-45895Y-275232D01*
X-45805Y-275338D01*
X-45712Y-275441D01*
X-45617Y-275541D01*
X-45518Y-275639D01*
X-45417Y-275734D01*
X-45314Y-275826D01*
X-45208Y-275915D01*
X-45099Y-276001D01*
X-44988Y-276084D01*
X-44875Y-276164D01*
X-44759Y-276240D01*
X-44642Y-276314D01*
X-44522Y-276384D01*
X-44401Y-276450D01*
X-44277Y-276513D01*
X-44152Y-276573D01*
X-44026Y-276629D01*
X-43897Y-276682D01*
X-43768Y-276731D01*
X-43637Y-276776D01*
X-43505Y-276818D01*
X-43372Y-276856D01*
X-43237Y-276890D01*
X-43102Y-276920D01*
X-42966Y-276947D01*
X-42829Y-276970D01*
X-42692Y-276989D01*
X-42554Y-277004D01*
X-42416Y-277015D01*
X-42278Y-277022D01*
X-42139Y-277026D01*
X-42001Y-277025D01*
X-41862Y-277021D01*
X-41724Y-277013D01*
X-41586Y-277001D01*
X-41586Y-277000D02*
X-18414Y-277000D01*
X-18270Y-276998D01*
X-18126Y-276992D01*
X-17982Y-276983D01*
X-17839Y-276969D01*
X-17695Y-276952D01*
X-17553Y-276931D01*
X-17411Y-276906D01*
X-17270Y-276878D01*
X-17129Y-276845D01*
X-16990Y-276809D01*
X-16851Y-276769D01*
X-16714Y-276726D01*
X-16577Y-276679D01*
X-16442Y-276628D01*
X-16309Y-276574D01*
X-16177Y-276516D01*
X-16046Y-276455D01*
X-15918Y-276390D01*
X-15791Y-276322D01*
X-15665Y-276250D01*
X-15542Y-276176D01*
X-15421Y-276098D01*
X-15302Y-276016D01*
X-15185Y-275932D01*
X-15071Y-275844D01*
X-14959Y-275754D01*
X-14849Y-275660D01*
X-14742Y-275564D01*
X-14637Y-275465D01*
X-14535Y-275363D01*
X-14436Y-275258D01*
X-14340Y-275151D01*
X-14246Y-275041D01*
X-14156Y-274929D01*
X-14068Y-274815D01*
X-13984Y-274698D01*
X-13902Y-274579D01*
X-13824Y-274458D01*
X-13750Y-274335D01*
X-13678Y-274209D01*
X-13610Y-274082D01*
X-13545Y-273954D01*
X-13484Y-273823D01*
X-13426Y-273691D01*
X-13372Y-273558D01*
X-13321Y-273423D01*
X-13274Y-273286D01*
X-13231Y-273149D01*
X-13191Y-273010D01*
X-13155Y-272871D01*
X-13122Y-272730D01*
X-13094Y-272589D01*
X-13069Y-272447D01*
X-13048Y-272305D01*
X-13031Y-272161D01*
X-13017Y-272018D01*
X-13008Y-271874D01*
X-13002Y-271730D01*
X-13000Y-271586D01*
X-13000Y-248414D01*
X-13002Y-248270D01*
X-13008Y-248126D01*
X-13017Y-247982D01*
X-13031Y-247839D01*
X-13048Y-247695D01*
X-13069Y-247553D01*
X-13094Y-247411D01*
X-13122Y-247270D01*
X-13155Y-247129D01*
X-13191Y-246990D01*
X-13231Y-246851D01*
X-13274Y-246714D01*
X-13321Y-246577D01*
X-13372Y-246442D01*
X-13426Y-246309D01*
X-13484Y-246177D01*
X-13545Y-246046D01*
X-13610Y-245918D01*
X-13678Y-245791D01*
X-13750Y-245665D01*
X-13824Y-245542D01*
X-13902Y-245421D01*
X-13984Y-245302D01*
X-14068Y-245185D01*
X-14156Y-245071D01*
X-14246Y-244959D01*
X-14340Y-244849D01*
X-14436Y-244742D01*
X-14535Y-244637D01*
X-14637Y-244535D01*
X-14742Y-244436D01*
X-14849Y-244340D01*
X-14959Y-244246D01*
X-15071Y-244156D01*
X-15185Y-244068D01*
X-15302Y-243984D01*
X-15421Y-243902D01*
X-15542Y-243824D01*
X-15665Y-243750D01*
X-15791Y-243678D01*
X-15918Y-243610D01*
X-16046Y-243545D01*
X-16177Y-243484D01*
X-16309Y-243426D01*
X-16442Y-243372D01*
X-16577Y-243321D01*
X-16714Y-243274D01*
X-16851Y-243231D01*
X-16990Y-243191D01*
X-17129Y-243155D01*
X-17270Y-243122D01*
X-17411Y-243094D01*
X-17553Y-243069D01*
X-17695Y-243048D01*
X-17839Y-243031D01*
X-17982Y-243017D01*
X-18126Y-243008D01*
X-18270Y-243002D01*
X-18414Y-243000D01*
X-41586Y-243000D01*
X-41738Y-243015D01*
X-41890Y-243034D01*
X-42041Y-243056D01*
X-42191Y-243083D01*
X-42341Y-243113D01*
X-42490Y-243147D01*
X-42638Y-243186D01*
X-42785Y-243227D01*
X-42931Y-243273D01*
X-43076Y-243322D01*
X-43219Y-243376D01*
X-43361Y-243432D01*
X-43501Y-243493D01*
X-43640Y-243557D01*
X-43777Y-243624D01*
X-43912Y-243695D01*
X-44046Y-243770D01*
X-44177Y-243848D01*
X-44307Y-243929D01*
X-44434Y-244013D01*
X-44559Y-244101D01*
X-44682Y-244192D01*
X-44802Y-244286D01*
X-44920Y-244384D01*
X-45036Y-244484D01*
X-45148Y-244587D01*
X-45258Y-244693D01*
X-45366Y-244802D01*
X-45470Y-244913D01*
X-45572Y-245028D01*
X-45670Y-245144D01*
X-45766Y-245264D01*
X-45858Y-245385D01*
X-45947Y-245510D01*
X-46033Y-245636D01*
X-46116Y-245764D01*
X-46196Y-245895D01*
X-46272Y-246027D01*
X-46344Y-246162D01*
X-46413Y-246298D01*
X-46479Y-246436D01*
X-46541Y-246576D01*
X-46599Y-246717D01*
X-46654Y-246860D01*
X-46705Y-247004D01*
X-46753Y-247149D01*
X-46796Y-247296D01*
X-46836Y-247443D01*
X-46872Y-247592D01*
X-46904Y-247741D01*
X-46932Y-247891D01*
X-46957Y-248042D01*
X-46977Y-248194D01*
X-46994Y-248346D01*
X-47006Y-248498D01*
X-47015Y-248650D01*
X-47020Y-248803D01*
X-47021Y-248956D01*
X-47018Y-249109D01*
X-47011Y-249262D01*
X-47000Y-249414D01*
X-40000Y-250000D02*
X-30000Y-250000D01*
X-20000Y-250000D01*
X-30000Y-250000D02*
X-30000Y-260000D01*
X-40000Y-270000D02*
X-20000Y-270000D01*
D13*
X-32992Y-266028D02*
X-32994Y-266084D01*
X-33000Y-266140D01*
X-33009Y-266195D01*
X-33022Y-266250D01*
X-33039Y-266303D01*
X-33060Y-266355D01*
X-33084Y-266406D01*
X-33112Y-266455D01*
X-33142Y-266502D01*
X-33176Y-266547D01*
X-33213Y-266589D01*
X-33253Y-266629D01*
X-33295Y-266666D01*
X-33340Y-266700D01*
X-33387Y-266730D01*
X-33436Y-266758D01*
X-33487Y-266782D01*
X-33539Y-266803D01*
X-33592Y-266820D01*
X-33647Y-266833D01*
X-33702Y-266842D01*
X-33758Y-266848D01*
X-33814Y-266850D01*
X-33895Y-266848D01*
X-33975Y-266843D01*
X-34055Y-266833D01*
X-34135Y-266820D01*
X-34214Y-266803D01*
X-34292Y-266783D01*
X-34369Y-266759D01*
X-34445Y-266731D01*
X-34519Y-266700D01*
X-34592Y-266666D01*
X-34663Y-266628D01*
X-34733Y-266587D01*
X-34800Y-266543D01*
X-34866Y-266496D01*
X-34929Y-266445D01*
X-34989Y-266392D01*
X-35047Y-266336D01*
X-34945Y-263972D02*
X-34943Y-263916D01*
X-34937Y-263860D01*
X-34928Y-263805D01*
X-34915Y-263750D01*
X-34898Y-263697D01*
X-34877Y-263645D01*
X-34853Y-263594D01*
X-34825Y-263545D01*
X-34795Y-263498D01*
X-34761Y-263453D01*
X-34724Y-263411D01*
X-34684Y-263371D01*
X-34642Y-263334D01*
X-34597Y-263300D01*
X-34550Y-263270D01*
X-34501Y-263242D01*
X-34450Y-263218D01*
X-34398Y-263197D01*
X-34345Y-263180D01*
X-34290Y-263167D01*
X-34235Y-263158D01*
X-34179Y-263152D01*
X-34123Y-263150D01*
X-34047Y-263152D01*
X-33971Y-263158D01*
X-33895Y-263167D01*
X-33820Y-263180D01*
X-33745Y-263197D01*
X-33672Y-263218D01*
X-33599Y-263242D01*
X-33528Y-263269D01*
X-33459Y-263301D01*
X-33390Y-263335D01*
X-33324Y-263373D01*
X-33260Y-263414D01*
X-33198Y-263458D01*
X-34534Y-264691D02*
X-34580Y-264662D01*
X-34623Y-264630D01*
X-34665Y-264596D01*
X-34704Y-264558D01*
X-34741Y-264519D01*
X-34775Y-264477D01*
X-34807Y-264432D01*
X-34835Y-264386D01*
X-34860Y-264338D01*
X-34883Y-264289D01*
X-34901Y-264238D01*
X-34917Y-264186D01*
X-34929Y-264134D01*
X-34938Y-264080D01*
X-34943Y-264026D01*
X-34945Y-263972D01*
X-33403Y-265309D02*
X-33357Y-265338D01*
X-33314Y-265370D01*
X-33272Y-265404D01*
X-33233Y-265442D01*
X-33196Y-265481D01*
X-33162Y-265523D01*
X-33130Y-265568D01*
X-33102Y-265614D01*
X-33077Y-265662D01*
X-33054Y-265711D01*
X-33036Y-265762D01*
X-33020Y-265814D01*
X-33008Y-265866D01*
X-32999Y-265920D01*
X-32994Y-265974D01*
X-32992Y-266028D01*
X-33403Y-265308D02*
X-34534Y-264692D01*
X-31704Y-263150D02*
X-30882Y-266850D01*
X-30060Y-264383D01*
X-29238Y-266850D01*
X-28416Y-263150D01*
X-27008Y-263972D02*
X-25980Y-263150D01*
X-25980Y-266850D01*
X-27008Y-266850D02*
X-24952Y-266850D01*
D12*
X-105000Y-271586D02*
X-105000Y-238414D01*
X-105000Y-271586D02*
X-104998Y-271700D01*
X-104992Y-271814D01*
X-104983Y-271928D01*
X-104970Y-272041D01*
X-104952Y-272154D01*
X-104932Y-272266D01*
X-104907Y-272377D01*
X-104879Y-272488D01*
X-104847Y-272597D01*
X-104811Y-272706D01*
X-104772Y-272813D01*
X-104729Y-272919D01*
X-104683Y-273023D01*
X-104633Y-273126D01*
X-104580Y-273227D01*
X-104523Y-273326D01*
X-104464Y-273423D01*
X-104401Y-273518D01*
X-104335Y-273611D01*
X-104265Y-273702D01*
X-104193Y-273790D01*
X-104118Y-273876D01*
X-104040Y-273959D01*
X-103959Y-274040D01*
X-103876Y-274118D01*
X-103790Y-274193D01*
X-103702Y-274265D01*
X-103611Y-274335D01*
X-103518Y-274401D01*
X-103423Y-274464D01*
X-103326Y-274523D01*
X-103227Y-274580D01*
X-103126Y-274633D01*
X-103023Y-274683D01*
X-102919Y-274729D01*
X-102813Y-274772D01*
X-102706Y-274811D01*
X-102597Y-274847D01*
X-102488Y-274879D01*
X-102377Y-274907D01*
X-102266Y-274932D01*
X-102154Y-274952D01*
X-102041Y-274970D01*
X-101928Y-274983D01*
X-101814Y-274992D01*
X-101700Y-274998D01*
X-101586Y-275000D01*
X-88414Y-275000D01*
X-88300Y-274998D01*
X-88186Y-274992D01*
X-88072Y-274983D01*
X-87959Y-274970D01*
X-87846Y-274952D01*
X-87734Y-274932D01*
X-87623Y-274907D01*
X-87512Y-274879D01*
X-87403Y-274847D01*
X-87294Y-274811D01*
X-87187Y-274772D01*
X-87081Y-274729D01*
X-86977Y-274683D01*
X-86874Y-274633D01*
X-86773Y-274580D01*
X-86674Y-274523D01*
X-86577Y-274464D01*
X-86482Y-274401D01*
X-86389Y-274335D01*
X-86298Y-274265D01*
X-86210Y-274193D01*
X-86124Y-274118D01*
X-86041Y-274040D01*
X-85960Y-273959D01*
X-85882Y-273876D01*
X-85807Y-273790D01*
X-85735Y-273702D01*
X-85665Y-273611D01*
X-85599Y-273518D01*
X-85536Y-273423D01*
X-85477Y-273326D01*
X-85420Y-273227D01*
X-85367Y-273126D01*
X-85317Y-273023D01*
X-85271Y-272919D01*
X-85228Y-272813D01*
X-85189Y-272706D01*
X-85153Y-272597D01*
X-85121Y-272488D01*
X-85093Y-272377D01*
X-85068Y-272266D01*
X-85048Y-272154D01*
X-85030Y-272041D01*
X-85017Y-271928D01*
X-85008Y-271814D01*
X-85002Y-271700D01*
X-85000Y-271586D01*
X-85000Y-238414D01*
X-85002Y-238300D01*
X-85008Y-238186D01*
X-85017Y-238072D01*
X-85030Y-237959D01*
X-85048Y-237846D01*
X-85068Y-237734D01*
X-85093Y-237623D01*
X-85121Y-237512D01*
X-85153Y-237403D01*
X-85189Y-237294D01*
X-85228Y-237187D01*
X-85271Y-237081D01*
X-85317Y-236977D01*
X-85367Y-236874D01*
X-85420Y-236773D01*
X-85477Y-236674D01*
X-85536Y-236577D01*
X-85599Y-236482D01*
X-85665Y-236389D01*
X-85735Y-236298D01*
X-85807Y-236210D01*
X-85882Y-236124D01*
X-85960Y-236041D01*
X-86041Y-235960D01*
X-86124Y-235882D01*
X-86210Y-235807D01*
X-86298Y-235735D01*
X-86389Y-235665D01*
X-86482Y-235599D01*
X-86577Y-235536D01*
X-86674Y-235477D01*
X-86773Y-235420D01*
X-86874Y-235367D01*
X-86977Y-235317D01*
X-87081Y-235271D01*
X-87187Y-235228D01*
X-87294Y-235189D01*
X-87403Y-235153D01*
X-87512Y-235121D01*
X-87623Y-235093D01*
X-87734Y-235068D01*
X-87846Y-235048D01*
X-87959Y-235030D01*
X-88072Y-235017D01*
X-88186Y-235008D01*
X-88300Y-235002D01*
X-88414Y-235000D01*
X-101586Y-235000D01*
X-101700Y-235002D01*
X-101814Y-235008D01*
X-101928Y-235017D01*
X-102041Y-235030D01*
X-102154Y-235048D01*
X-102266Y-235068D01*
X-102377Y-235093D01*
X-102488Y-235121D01*
X-102597Y-235153D01*
X-102706Y-235189D01*
X-102813Y-235228D01*
X-102919Y-235271D01*
X-103023Y-235317D01*
X-103126Y-235367D01*
X-103227Y-235420D01*
X-103326Y-235477D01*
X-103423Y-235536D01*
X-103518Y-235599D01*
X-103611Y-235665D01*
X-103702Y-235735D01*
X-103790Y-235807D01*
X-103876Y-235882D01*
X-103959Y-235960D01*
X-104040Y-236041D01*
X-104118Y-236124D01*
X-104193Y-236210D01*
X-104265Y-236298D01*
X-104335Y-236389D01*
X-104401Y-236482D01*
X-104464Y-236577D01*
X-104523Y-236674D01*
X-104580Y-236773D01*
X-104633Y-236874D01*
X-104683Y-236977D01*
X-104729Y-237081D01*
X-104772Y-237187D01*
X-104811Y-237294D01*
X-104847Y-237403D01*
X-104879Y-237512D01*
X-104907Y-237623D01*
X-104932Y-237734D01*
X-104952Y-237846D01*
X-104970Y-237959D01*
X-104983Y-238072D01*
X-104992Y-238186D01*
X-104998Y-238300D01*
X-105000Y-238414D01*
D13*
X-87972Y-257992D02*
X-87916Y-257994D01*
X-87860Y-258000D01*
X-87805Y-258009D01*
X-87750Y-258022D01*
X-87697Y-258039D01*
X-87645Y-258060D01*
X-87594Y-258084D01*
X-87545Y-258112D01*
X-87498Y-258142D01*
X-87453Y-258176D01*
X-87411Y-258213D01*
X-87371Y-258253D01*
X-87334Y-258295D01*
X-87300Y-258340D01*
X-87270Y-258387D01*
X-87242Y-258436D01*
X-87218Y-258487D01*
X-87197Y-258539D01*
X-87180Y-258592D01*
X-87167Y-258647D01*
X-87158Y-258702D01*
X-87152Y-258758D01*
X-87150Y-258814D01*
X-87152Y-258895D01*
X-87157Y-258975D01*
X-87167Y-259055D01*
X-87180Y-259135D01*
X-87197Y-259214D01*
X-87217Y-259292D01*
X-87241Y-259369D01*
X-87269Y-259445D01*
X-87300Y-259519D01*
X-87334Y-259592D01*
X-87372Y-259663D01*
X-87413Y-259733D01*
X-87457Y-259800D01*
X-87504Y-259866D01*
X-87555Y-259929D01*
X-87608Y-259989D01*
X-87664Y-260047D01*
X-90028Y-259945D02*
X-90084Y-259943D01*
X-90140Y-259937D01*
X-90195Y-259928D01*
X-90250Y-259915D01*
X-90303Y-259898D01*
X-90355Y-259877D01*
X-90406Y-259853D01*
X-90455Y-259825D01*
X-90502Y-259795D01*
X-90547Y-259761D01*
X-90589Y-259724D01*
X-90629Y-259684D01*
X-90666Y-259642D01*
X-90700Y-259597D01*
X-90730Y-259550D01*
X-90758Y-259501D01*
X-90782Y-259450D01*
X-90803Y-259398D01*
X-90820Y-259345D01*
X-90833Y-259290D01*
X-90842Y-259235D01*
X-90848Y-259179D01*
X-90850Y-259123D01*
X-90848Y-259047D01*
X-90842Y-258971D01*
X-90833Y-258895D01*
X-90820Y-258820D01*
X-90803Y-258745D01*
X-90782Y-258672D01*
X-90758Y-258599D01*
X-90731Y-258528D01*
X-90699Y-258459D01*
X-90665Y-258390D01*
X-90627Y-258324D01*
X-90586Y-258260D01*
X-90542Y-258198D01*
X-89309Y-259534D02*
X-89338Y-259580D01*
X-89370Y-259623D01*
X-89404Y-259665D01*
X-89442Y-259704D01*
X-89481Y-259741D01*
X-89523Y-259775D01*
X-89568Y-259807D01*
X-89614Y-259835D01*
X-89662Y-259860D01*
X-89711Y-259883D01*
X-89762Y-259901D01*
X-89814Y-259917D01*
X-89866Y-259929D01*
X-89920Y-259938D01*
X-89974Y-259943D01*
X-90028Y-259945D01*
X-88691Y-258403D02*
X-88662Y-258357D01*
X-88630Y-258314D01*
X-88596Y-258272D01*
X-88558Y-258233D01*
X-88519Y-258196D01*
X-88477Y-258162D01*
X-88432Y-258130D01*
X-88386Y-258102D01*
X-88338Y-258077D01*
X-88289Y-258054D01*
X-88238Y-258036D01*
X-88186Y-258020D01*
X-88134Y-258008D01*
X-88080Y-257999D01*
X-88026Y-257994D01*
X-87972Y-257992D01*
X-88692Y-258403D02*
X-89308Y-259534D01*
X-90850Y-256704D02*
X-87150Y-255882D01*
X-89617Y-255060D01*
X-87150Y-254238D01*
X-90850Y-253416D01*
X-87150Y-252008D02*
X-87150Y-250980D01*
X-87152Y-250917D01*
X-87158Y-250854D01*
X-87168Y-250791D01*
X-87181Y-250729D01*
X-87198Y-250668D01*
X-87219Y-250609D01*
X-87244Y-250550D01*
X-87272Y-250494D01*
X-87304Y-250439D01*
X-87339Y-250386D01*
X-87377Y-250336D01*
X-87418Y-250287D01*
X-87462Y-250242D01*
X-87509Y-250199D01*
X-87558Y-250160D01*
X-87610Y-250123D01*
X-87664Y-250090D01*
X-87720Y-250060D01*
X-87777Y-250033D01*
X-87836Y-250010D01*
X-87897Y-249991D01*
X-87958Y-249976D01*
X-88020Y-249964D01*
X-88083Y-249956D01*
X-88146Y-249952D01*
X-88210Y-249952D01*
X-88273Y-249956D01*
X-88336Y-249964D01*
X-88398Y-249976D01*
X-88459Y-249991D01*
X-88520Y-250010D01*
X-88579Y-250033D01*
X-88636Y-250060D01*
X-88692Y-250090D01*
X-88746Y-250123D01*
X-88798Y-250160D01*
X-88847Y-250199D01*
X-88894Y-250242D01*
X-88938Y-250287D01*
X-88979Y-250336D01*
X-89017Y-250386D01*
X-89052Y-250439D01*
X-89084Y-250494D01*
X-89112Y-250550D01*
X-89137Y-250609D01*
X-89158Y-250668D01*
X-89175Y-250729D01*
X-89188Y-250791D01*
X-89198Y-250854D01*
X-89204Y-250917D01*
X-89206Y-250980D01*
X-90850Y-250774D02*
X-90850Y-252008D01*
X-90850Y-250774D02*
X-90848Y-250718D01*
X-90842Y-250662D01*
X-90833Y-250607D01*
X-90820Y-250552D01*
X-90803Y-250499D01*
X-90782Y-250447D01*
X-90758Y-250396D01*
X-90730Y-250347D01*
X-90700Y-250300D01*
X-90666Y-250255D01*
X-90629Y-250213D01*
X-90589Y-250173D01*
X-90547Y-250136D01*
X-90502Y-250102D01*
X-90455Y-250072D01*
X-90406Y-250044D01*
X-90355Y-250020D01*
X-90303Y-249999D01*
X-90250Y-249982D01*
X-90195Y-249969D01*
X-90140Y-249960D01*
X-90084Y-249954D01*
X-90028Y-249952D01*
X-89972Y-249954D01*
X-89916Y-249960D01*
X-89861Y-249969D01*
X-89806Y-249982D01*
X-89753Y-249999D01*
X-89701Y-250020D01*
X-89650Y-250044D01*
X-89601Y-250072D01*
X-89554Y-250102D01*
X-89509Y-250136D01*
X-89467Y-250173D01*
X-89427Y-250213D01*
X-89390Y-250255D01*
X-89356Y-250300D01*
X-89326Y-250347D01*
X-89298Y-250396D01*
X-89274Y-250447D01*
X-89253Y-250499D01*
X-89236Y-250552D01*
X-89223Y-250607D01*
X-89214Y-250662D01*
X-89208Y-250718D01*
X-89206Y-250774D01*
X-89206Y-251597D01*
D10*
X205000Y-240000D02*
X205000Y-210000D01*
X235000Y-210000D01*
X235000Y-240000D01*
X205000Y-240000D01*
D11*
X216487Y-237300D02*
X216487Y-232700D01*
X217764Y-232700D01*
X217834Y-232702D01*
X217905Y-232708D01*
X217974Y-232717D01*
X218043Y-232731D01*
X218112Y-232748D01*
X218179Y-232769D01*
X218245Y-232794D01*
X218309Y-232822D01*
X218372Y-232854D01*
X218433Y-232889D01*
X218492Y-232928D01*
X218549Y-232969D01*
X218603Y-233014D01*
X218655Y-233062D01*
X218704Y-233112D01*
X218751Y-233166D01*
X218794Y-233221D01*
X218834Y-233279D01*
X218871Y-233339D01*
X218904Y-233401D01*
X218934Y-233465D01*
X218961Y-233530D01*
X218984Y-233596D01*
X219003Y-233664D01*
X219018Y-233733D01*
X219030Y-233802D01*
X219038Y-233872D01*
X219042Y-233943D01*
X219042Y-234013D01*
X219038Y-234084D01*
X219030Y-234154D01*
X219018Y-234223D01*
X219003Y-234292D01*
X218984Y-234360D01*
X218961Y-234426D01*
X218934Y-234491D01*
X218904Y-234555D01*
X218871Y-234617D01*
X218834Y-234677D01*
X218794Y-234735D01*
X218751Y-234790D01*
X218704Y-234844D01*
X218655Y-234894D01*
X218603Y-234942D01*
X218549Y-234987D01*
X218492Y-235028D01*
X218433Y-235067D01*
X218372Y-235102D01*
X218309Y-235134D01*
X218245Y-235162D01*
X218179Y-235187D01*
X218112Y-235208D01*
X218043Y-235225D01*
X217974Y-235239D01*
X217905Y-235248D01*
X217834Y-235254D01*
X217764Y-235256D01*
X216487Y-235256D01*
X218020Y-235256D02*
X219042Y-237300D01*
X220957Y-236022D02*
X220959Y-235952D01*
X220965Y-235881D01*
X220974Y-235812D01*
X220988Y-235743D01*
X221005Y-235674D01*
X221026Y-235607D01*
X221051Y-235541D01*
X221079Y-235477D01*
X221111Y-235414D01*
X221146Y-235353D01*
X221185Y-235294D01*
X221226Y-235237D01*
X221271Y-235183D01*
X221319Y-235131D01*
X221369Y-235082D01*
X221423Y-235035D01*
X221478Y-234992D01*
X221536Y-234952D01*
X221596Y-234915D01*
X221658Y-234882D01*
X221722Y-234852D01*
X221787Y-234825D01*
X221853Y-234802D01*
X221921Y-234783D01*
X221990Y-234768D01*
X222059Y-234756D01*
X222129Y-234748D01*
X222200Y-234744D01*
X222270Y-234744D01*
X222341Y-234748D01*
X222411Y-234756D01*
X222480Y-234768D01*
X222549Y-234783D01*
X222617Y-234802D01*
X222683Y-234825D01*
X222748Y-234852D01*
X222812Y-234882D01*
X222874Y-234915D01*
X222934Y-234952D01*
X222992Y-234992D01*
X223047Y-235035D01*
X223101Y-235082D01*
X223151Y-235131D01*
X223199Y-235183D01*
X223244Y-235237D01*
X223285Y-235294D01*
X223324Y-235353D01*
X223359Y-235414D01*
X223391Y-235477D01*
X223419Y-235541D01*
X223444Y-235607D01*
X223465Y-235674D01*
X223482Y-235743D01*
X223496Y-235812D01*
X223505Y-235881D01*
X223511Y-235952D01*
X223513Y-236022D01*
X223511Y-236092D01*
X223505Y-236163D01*
X223496Y-236232D01*
X223482Y-236301D01*
X223465Y-236370D01*
X223444Y-236437D01*
X223419Y-236503D01*
X223391Y-236567D01*
X223359Y-236630D01*
X223324Y-236691D01*
X223285Y-236750D01*
X223244Y-236807D01*
X223199Y-236861D01*
X223151Y-236913D01*
X223101Y-236962D01*
X223047Y-237009D01*
X222992Y-237052D01*
X222934Y-237092D01*
X222874Y-237129D01*
X222812Y-237162D01*
X222748Y-237192D01*
X222683Y-237219D01*
X222617Y-237242D01*
X222549Y-237261D01*
X222480Y-237276D01*
X222411Y-237288D01*
X222341Y-237296D01*
X222270Y-237300D01*
X222200Y-237300D01*
X222129Y-237296D01*
X222059Y-237288D01*
X221990Y-237276D01*
X221921Y-237261D01*
X221853Y-237242D01*
X221787Y-237219D01*
X221722Y-237192D01*
X221658Y-237162D01*
X221596Y-237129D01*
X221536Y-237092D01*
X221478Y-237052D01*
X221423Y-237009D01*
X221369Y-236962D01*
X221319Y-236913D01*
X221271Y-236861D01*
X221226Y-236807D01*
X221185Y-236750D01*
X221146Y-236691D01*
X221111Y-236630D01*
X221079Y-236567D01*
X221051Y-236503D01*
X221026Y-236437D01*
X221005Y-236370D01*
X220988Y-236301D01*
X220974Y-236232D01*
X220965Y-236163D01*
X220959Y-236092D01*
X220957Y-236022D01*
X221213Y-233722D02*
X221215Y-233659D01*
X221221Y-233596D01*
X221230Y-233534D01*
X221244Y-233473D01*
X221261Y-233412D01*
X221282Y-233353D01*
X221307Y-233295D01*
X221335Y-233238D01*
X221366Y-233184D01*
X221401Y-233132D01*
X221439Y-233081D01*
X221480Y-233033D01*
X221524Y-232988D01*
X221570Y-232946D01*
X221619Y-232906D01*
X221670Y-232870D01*
X221724Y-232837D01*
X221779Y-232807D01*
X221837Y-232781D01*
X221895Y-232758D01*
X221955Y-232739D01*
X222016Y-232724D01*
X222078Y-232712D01*
X222141Y-232704D01*
X222204Y-232700D01*
X222266Y-232700D01*
X222329Y-232704D01*
X222392Y-232712D01*
X222454Y-232724D01*
X222515Y-232739D01*
X222575Y-232758D01*
X222633Y-232781D01*
X222691Y-232807D01*
X222746Y-232837D01*
X222800Y-232870D01*
X222851Y-232906D01*
X222900Y-232946D01*
X222946Y-232988D01*
X222990Y-233033D01*
X223031Y-233081D01*
X223069Y-233132D01*
X223104Y-233184D01*
X223135Y-233238D01*
X223163Y-233295D01*
X223188Y-233353D01*
X223209Y-233412D01*
X223226Y-233473D01*
X223240Y-233534D01*
X223249Y-233596D01*
X223255Y-233659D01*
X223257Y-233722D01*
X223255Y-233785D01*
X223249Y-233848D01*
X223240Y-233910D01*
X223226Y-233971D01*
X223209Y-234032D01*
X223188Y-234091D01*
X223163Y-234149D01*
X223135Y-234206D01*
X223104Y-234260D01*
X223069Y-234312D01*
X223031Y-234363D01*
X222990Y-234411D01*
X222946Y-234456D01*
X222900Y-234498D01*
X222851Y-234538D01*
X222800Y-234574D01*
X222746Y-234607D01*
X222691Y-234637D01*
X222633Y-234663D01*
X222575Y-234686D01*
X222515Y-234705D01*
X222454Y-234720D01*
X222392Y-234732D01*
X222329Y-234740D01*
X222266Y-234744D01*
X222204Y-234744D01*
X222141Y-234740D01*
X222078Y-234732D01*
X222016Y-234720D01*
X221955Y-234705D01*
X221895Y-234686D01*
X221837Y-234663D01*
X221779Y-234637D01*
X221724Y-234607D01*
X221670Y-234574D01*
X221619Y-234538D01*
X221570Y-234498D01*
X221524Y-234456D01*
X221480Y-234411D01*
X221439Y-234363D01*
X221401Y-234312D01*
X221366Y-234260D01*
X221335Y-234206D01*
X221307Y-234149D01*
X221282Y-234091D01*
X221261Y-234032D01*
X221244Y-233971D01*
X221230Y-233910D01*
X221221Y-233848D01*
X221215Y-233785D01*
X221213Y-233722D01*
M02*
