M48
;GenerationSoftware,Autodesk,EAGLE,9.7.0*%
;CreationDate,2023-06-01T12:19:25Z*%
FMAT,2
ICI,OFF
INCH,TZ,000.00000
T2C0.03150
T1C0.03937
%
G90
M72
T1
X377500Y214531
X377500Y224531
X377500Y234531
X377500Y244531
X377500Y254531
X377500Y264531
X377500Y284531
X377500Y294531
X377500Y304531
X377500Y314531
X377500Y324531
X377500Y334531
X377500Y344531
X567500Y214531
X567500Y224531
X567500Y234531
X567500Y244531
X567500Y254531
X567500Y264531
X567500Y274531
X567500Y284531
X567500Y300531
X567500Y310531
X567500Y320531
X567500Y330531
X567500Y340531
X567500Y350531
X230000Y-225000
X210000Y-225000
X-95000Y-265000
X220000Y-215000
X-95000Y-255000
X-95000Y-245000
X-20000Y-270000
X-30000Y-270000
X-40000Y-270000
X-30000Y-260000
X-20000Y-250000
X-30000Y-250000
X-40000Y-250000
T2
X-5000Y-235000
X25000Y-235000
X-5000Y-245000
X25000Y-245000
X-5000Y-255000
X25000Y-255000
X-5000Y-275000
X25000Y-275000
X25000Y-225000
X-5000Y-225000
X25000Y-215000
X-5000Y-215000
X487500Y325000
X487500Y315000
X487500Y305000
X470000Y315000
X460000Y315000
X442500Y315000
X507500Y312500
X537500Y312500
X412500Y315000
M30