                                                                        S      1
,,9Hkadai1 v2,9Hkadai1 v2,7Hunknown,7Hunknown,32,38,7,99,15,,1.,2,2HMM, G      1
1,0.08,15H20230619.222312,0.01,10000.,7Hunknown,7Hunknown,11,0,15H202306G      2
19.132127;                                                              G      3
     186       1                                                00000000D      1
     186            -211       1       0                               0D      2
     514       2                                                00010000D      3
     514                       2       1                               0D      4
     510       4                                                00010000D      5
     510            -211       1       1                               0D      6
     510       5                                                00010000D      7
     510            -211       1       1                               0D      8
     510       6                                                00010000D      9
     510            -211       1       1                               0D     10
     510       7                                                00010000D     11
     510            -211       1       1                               0D     12
     510       8                                                00010000D     13
     510            -211       1       1                               0D     14
     510       9                                                00010000D     15
     510            -211       1       1                               0D     16
     510      10                                                00010000D     17
     510            -211       1       1                               0D     18
     510      11                                                00010000D     19
     510            -211       1       1                               0D     20
     510      12                                                00010000D     21
     510            -211       1       1                               0D     22
     510      13                                                00010000D     23
     510            -211       1       1                               0D     24
     510      14                                                00010000D     25
     510            -211       1       1                               0D     26
     510      15                                                00010000D     27
     510            -211       1       1                               0D     28
     510      16                                                00010000D     29
     510            -211       1       1                               0D     30
     510      17                                                00010000D     31
     510            -211       1       1                               0D     32
     510      18                                                00010000D     33
     510            -211       1       1                               0D     34
     510      19                                                00010000D     35
     510            -211       1       1                               0D     36
     510      20                                                00010000D     37
     510            -211       1       1                               0D     38
     510      21                                                00010000D     39
     510            -211       1       1                               0D     40
     508      22                                                00010000D     41
     508                       1       1                               0D     42
     508      23                                                00010000D     43
     508                       1       1                               0D     44
     508      24                                                00010000D     45
     508                       1       1                               0D     46
     508      25                                                00010000D     47
     508                       1       1                               0D     48
     508      26                                                00010000D     49
     508                       1       1                               0D     50
     508      27                                                00010000D     51
     508                       1       1                               0D     52
     508      28                                                00010000D     53
     508                       1       1                               0D     54
     508      29                                                00010000D     55
     508                       1       1                               0D     56
     508      30                                                00010000D     57
     508                       2       1                               0D     58
     508      32                                                00010000D     59
     508                       1       1                               0D     60
     508      33                                                00010000D     61
     508                       1       1                               0D     62
     508      34                                                00010000D     63
     508                       1       1                               0D     64
     508      35                                                00010000D     65
     508                       1       1                               0D     66
     508      36                                                00010000D     67
     508                       1       1                               0D     68
     508      37                                                00010000D     69
     508                       1       1                               0D     70
     508      38                                                00010000D     71
     508                       2       1                               0D     72
     508      40                                                00010000D     73
     508                       1       1                               0D     74
     508      41                                                00010000D     75
     508                       1       1                               0D     76
     508      42                                                00010000D     77
     508                       1       1                               0D     78
     508      43                                                00010000D     79
     508                       1       1                               0D     80
     508      44                                                00010000D     81
     508                       1       1                               0D     82
     508      45                                                00010000D     83
     508                       1       1                               0D     84
     126      46                                                00010000D     85
     126       0               2       0                               0D     86
     126      48                                                00010000D     87
     126       0               2       0                               0D     88
     126      50                                                00010000D     89
     126       0               2       0                               0D     90
     126      52                                                00010000D     91
     126       0               2       0                               0D     92
     126      54                                                00010000D     93
     126       0               2       0                               0D     94
     126      56                                                00010000D     95
     126       0               2       0                               0D     96
     126      58                                                00010000D     97
     126       0               2       0                               0D     98
     126      60                                                00010000D     99
     126       0               2       0                               0D    100
     126      62                                                00010000D    101
     126       0               2       0                               0D    102
     126      64                                                00010000D    103
     126       0               2       0                               0D    104
     126      66                                                00010000D    105
     126       0               2       0                               0D    106
     126      68                                                00010000D    107
     126       0               2       0                               0D    108
     126      70                                                00010000D    109
     126       0               2       0                               0D    110
     126      72                                                00010000D    111
     126       0               2       0                               0D    112
     126      74                                                00010000D    113
     126       0               2       0                               0D    114
     126      76                                                00010000D    115
     126       0               2       0                               0D    116
     126      78                                                00010000D    117
     126       0               2       0                               0D    118
     126      80                                                00010000D    119
     126       0               2       0                               0D    120
     126      82                                                00010000D    121
     126       0               2       0                               0D    122
     126      84                                                00010000D    123
     126       0               2       0                               0D    124
     126      86                                                00010000D    125
     126       0               2       0                               0D    126
     126      88                                                00010000D    127
     126       0               2       0                               0D    128
     126      90                                                00010000D    129
     126       0               2       0                               0D    130
     126      92                                                00010000D    131
     126       0               2       0                               0D    132
     126      94                                                00010000D    133
     126       0               2       0                               0D    134
     126      96                                                00010000D    135
     126       0               2       0                               0D    136
     126      98                                                00010000D    137
     126       0               2       0                               0D    138
     126     100                                                00010000D    139
     126       0               2       0                               0D    140
     126     102                                                00010000D    141
     126       0               2       0                               0D    142
     126     104                                                00010000D    143
     126       0               2       0                               0D    144
     126     106                                                00010000D    145
     126       0               2       0                               0D    146
     126     108                                                00010000D    147
     126       0               2       0                               0D    148
     126     110                                                00010000D    149
     126       0               2       0                               0D    150
     126     112                                                00010000D    151
     126       0               2       0                               0D    152
     126     114                                                00010000D    153
     126       0               2       0                               0D    154
     126     116                                                00010000D    155
     126       0               2       0                               0D    156
     126     118                                                00010000D    157
     126       0              10       0                               0D    158
     126     128                                                00010000D    159
     126       0              11       0                               0D    160
     126     139                                                00010000D    161
     126       0               4       0                               0D    162
     126     143                                                00010000D    163
     126       0              11       0                               0D    164
     126     154                                                00010000D    165
     126       0               2       0                               0D    166
     126     156                                                00010000D    167
     126       0               9       0                               0D    168
     128     165                                                00010000D    169
     128       0    -211       3       0                               0D    170
     128     168                                                00010000D    171
     128       0    -211       3       0                               0D    172
     128     171                                                00010000D    173
     128       0    -211       3       0                               0D    174
     128     174                                                00010000D    175
     128       0    -211       4       0                               0D    176
     128     178                                                00010000D    177
     128       0    -211       3       0                               0D    178
     128     181                                                00010000D    179
     128       0    -211       3       0                               0D    180
     128     184                                                00010000D    181
     128       0    -211       3       0                               0D    182
     128     187                                                00010000D    183
     128       0    -211       3       0                               0D    184
     128     190                                                00010000D    185
     128       0    -211       4       0                               0D    186
     128     194                                                00010000D    187
     128       0    -211       3       0                               0D    188
     128     197                                                00010000D    189
     128       0    -211       3       0                               0D    190
     128     200                                                00010000D    191
     128       0    -211       3       0                               0D    192
     128     203                                                00010000D    193
     128       0    -211       3       0                               0D    194
     128     206                                                00010000D    195
     128       0    -211       3       0                               0D    196
     128     209                                                00010000D    197
     128       0    -211       3       0                               0D    198
     128     212                                                00010000D    199
     128       0    -211      21       0                               0D    200
     128     233                                                00010000D    201
     128       0    -211      11       0                               0D    202
     128     244                                                00010000D    203
     128       0    -211       3       0                               0D    204
     502     247                                                00010000D    205
     502                       7       1                               0D    206
     504     254                                                00010001D    207
     504                      12       1                               0D    208
     406     266                                                00000000D    209
     406                       1      15                               0D    210
     314     267                                                00000200D    211
     314                       2       0                               0D    212
186,3,1,0,0,1,209;                                                     1P      1
514,18,5,1,7,1,9,1,11,1,13,1,15,1,17,1,19,1,21,1,23,1,25,1,27,1,       3P      2
29,1,31,1,33,1,35,1,37,1,39,1;                                         3P      3
510,169,1,1,41;                                                        5P      4
510,171,1,1,43;                                                        7P      5
510,173,1,1,45;                                                        9P      6
510,175,1,1,47;                                                       11P      7
510,177,1,1,49;                                                       13P      8
510,179,1,1,51;                                                       15P      9
510,181,1,1,53;                                                       17P     10
510,183,1,1,55;                                                       19P     11
510,185,1,1,57;                                                       21P     12
510,187,1,1,59;                                                       23P     13
510,189,1,1,61;                                                       25P     14
510,191,1,1,63;                                                       27P     15
510,193,1,1,65;                                                       29P     16
510,195,1,1,67;                                                       31P     17
510,197,4,1,69,71,73,75;                                              33P     18
510,199,1,1,77;                                                       35P     19
510,201,1,1,79;                                                       37P     20
510,203,2,1,81,83;                                                    39P     21
508,4,0,207,1,0,0,0,207,2,1,0,0,207,3,0,0,0,207,4,0,0;                41P     22
508,4,0,207,5,0,0,0,207,4,1,0,0,207,6,0,0,0,207,7,0,0;                43P     23
508,4,0,207,8,0,0,0,207,7,1,0,0,207,9,0,0,0,207,10,0,0;               45P     24
508,4,0,207,11,0,0,0,207,10,1,0,0,207,12,0,0,0,207,13,0,0;            47P     25
508,4,0,207,14,0,0,0,207,13,1,0,0,207,15,0,0,0,207,16,0,0;            49P     26
508,4,0,207,17,0,0,0,207,16,1,0,0,207,18,0,0,0,207,19,0,0;            51P     27
508,4,0,207,20,0,0,0,207,19,1,0,0,207,21,0,0,0,207,22,0,0;            53P     28
508,4,0,207,23,0,0,0,207,22,1,0,0,207,24,0,0,0,207,2,0,0;             55P     29
508,8,0,207,24,1,0,0,207,21,1,0,0,207,18,1,0,0,207,15,1,0,0,207,      57P     30
12,1,0,0,207,9,1,0,0,207,6,1,0,0,207,3,1,0;                           57P     31
508,4,0,207,25,0,0,0,207,26,1,0,0,207,27,0,0,0,207,28,0,0;            59P     32
508,4,0,207,29,0,0,0,207,28,1,0,0,207,30,0,0,0,207,31,0,0;            61P     33
508,4,0,207,32,0,0,0,207,31,1,0,0,207,33,0,0,0,207,34,0,0;            63P     34
508,4,0,207,35,0,0,0,207,34,1,0,0,207,36,0,0,0,207,26,0,0;            65P     35
508,4,0,207,36,1,0,0,207,33,1,0,0,207,30,1,0,0,207,27,1,0;            67P     36
508,1,0,207,37,1,0;                                                   69P     37
508,8,0,207,1,1,0,0,207,5,1,0,0,207,8,1,0,0,207,11,1,0,0,207,14,      71P     38
1,0,0,207,17,1,0,0,207,20,1,0,0,207,23,1,0;                           71P     39
508,4,0,207,25,1,0,0,207,29,1,0,0,207,32,1,0,0,207,35,1,0;            73P     40
508,1,0,207,38,1,0;                                                   75P     41
508,4,0,207,38,0,0,0,207,39,1,0,0,207,40,0,0,0,207,39,0,0;            77P     42
508,4,0,207,37,0,0,0,207,41,1,0,0,207,42,1,0,0,207,41,0,0;            79P     43
508,1,0,207,42,0,0;                                                   81P     44
508,1,0,207,40,1,0;                                                   83P     45
126,1,1,0,0,1,0,-3.125,-3.125,0.875,0.875,1.,1.,10.,-25.,20.,         85P     46
10.,15.,20.,-3.125,0.875,0.,0.,0.;                                    85P     47
126,1,1,0,0,1,0,0.,0.,1.,1.,1.,1.,10.,-25.,20.,10.,-25.,30.,0.,       87P     48
1.,0.,0.,0.;                                                          87P     49
126,1,1,0,0,1,0,-4.,-4.,0.,0.,1.,1.,10.,15.,30.,10.,-25.,30.,         89P     50
-4.,0.,0.,0.,0.;                                                      89P     51
126,1,1,0,0,1,0,0.,0.,1.,1.,1.,1.,10.,15.,20.,10.,15.,30.,0.,1.,      91P     52
0.,0.,0.;                                                             91P     53
126,1,1,0,0,1,0,-2.,-2.,-1.,-1.,1.,1.,10.,15.,20.,0.,15.,20.,         93P     54
-2.,-1.,0.,0.,0.;                                                     93P     55
126,1,1,0,0,1,0,-3.5,-3.5,-2.5,-2.5,1.,1.,0.,15.,30.,10.,15.,         95P     56
30.,-3.5,-2.5,0.,0.,0.;                                               95P     57
126,1,1,0,0,1,0,0.,0.,1.,1.,1.,1.,0.,15.,20.,0.,15.,30.,0.,1.,        97P     58
0.,0.,0.;                                                             97P     59
126,1,1,0,0,1,0,0.375,0.375,1.375,1.375,1.,1.,0.,15.,20.,0.,25.,      99P     60
20.,0.375,1.375,0.,0.,0.;                                             99P     61
126,1,1,0,0,1,0,-1.,-1.,0.,0.,1.,1.,0.,25.,30.,0.,15.,30.,-1.,       101P     62
0.,0.,0.,0.;                                                         101P     63
126,1,1,0,0,1,0,0.,0.,1.,1.,1.,1.,0.,25.,20.,0.,25.,30.,0.,1.,       103P     64
0.,0.,0.;                                                            103P     65
126,1,1,0,0,1,0,-0.75,-0.75,2.75,2.75,1.,1.,0.,25.,20.,35.,25.,      105P     66
20.,-0.75,2.75,0.,0.,0.;                                             105P     67
126,1,1,0,0,1,0,-3.5,-3.5,0.,0.,1.,1.,35.,25.,30.,0.,25.,30.,        107P     68
-3.5,0.,0.,0.,0.;                                                    107P     69
126,1,1,0,0,1,0,0.,0.,1.,1.,1.,1.,35.,25.,20.,35.,25.,30.,0.,1.,     109P     70
0.,0.,0.;                                                            109P     71
126,1,1,0,0,1,0,-1.875,-1.875,-0.875,-0.875,1.,1.,35.,25.,20.,       111P     72
35.,15.,20.,-1.875,-0.875,0.,0.,0.;                                  111P     73
126,1,1,0,0,1,0,-1.,-1.,0.,0.,1.,1.,35.,15.,30.,35.,25.,30.,-1.,     113P     74
0.,0.,0.,0.;                                                         113P     75
126,1,1,0,0,1,0,0.,0.,1.,1.,1.,1.,35.,15.,20.,35.,15.,30.,0.,1.,     115P     76
0.,0.,0.;                                                            115P     77
126,1,1,0,0,1,0,-3.25,-3.25,-2.25,-2.25,1.,1.,35.,15.,20.,25.,       117P     78
15.,20.,-3.25,-2.25,0.,0.,0.;                                        117P     79
126,1,1,0,0,1,0,-1.,-1.,0.,0.,1.,1.,25.,15.,30.,35.,15.,30.,-1.,     119P     80
0.,0.,0.,0.;                                                         119P     81
126,1,1,0,0,1,0,0.,0.,1.,1.,1.,1.,25.,15.,20.,25.,15.,30.,0.,1.,     121P     82
0.,0.,0.;                                                            121P     83
126,1,1,0,0,1,0,-2.875,-2.875,1.125,1.125,1.,1.,25.,15.,20.,25.,     123P     84
-25.,20.,-2.875,1.125,0.,0.,0.;                                      123P     85
126,1,1,0,0,1,0,-4.,-4.,0.,0.,1.,1.,25.,-25.,30.,25.,15.,30.,        125P     86
-4.,0.,0.,0.,0.;                                                     125P     87
126,1,1,0,0,1,0,0.,0.,1.,1.,1.,1.,25.,-25.,20.,25.,-25.,30.,0.,      127P     88
1.,0.,0.,0.;                                                         127P     89
126,1,1,0,0,1,0,-3.,-3.,-1.5,-1.5,1.,1.,25.,-25.,20.,10.,-25.,       129P     90
20.,-3.,-1.5,0.,0.,0.;                                               129P     91
126,1,1,0,0,1,0,-1.5,-1.5,0.,0.,1.,1.,10.,-25.,30.,25.,-25.,30.,     131P     92
-1.5,0.,0.,0.,0.;                                                    131P     93
126,1,1,0,0,1,0,-3.625,-3.625,1.375,1.375,1.,1.,-25.,-25.,20.,       133P     94
-25.,25.,20.,-3.625,1.375,0.,0.,0.;                                  133P     95
126,1,1,0,0,1,0,0.,0.,1.,1.,1.,1.,-25.,-25.,20.,-25.,-25.,30.,       135P     96
0.,1.,0.,0.,0.;                                                      135P     97
126,1,1,0,0,1,0,-5.,-5.,0.,0.,1.,1.,-25.,25.,30.,-25.,-25.,30.,      137P     98
-5.,0.,0.,0.,0.;                                                     137P     99
126,1,1,0,0,1,0,0.,0.,1.,1.,1.,1.,-25.,25.,20.,-25.,25.,30.,0.,      139P    100
1.,0.,0.,0.;                                                         139P    101
126,1,1,0,0,1,0,-0.75,-0.75,0.25,0.25,1.,1.,-25.,25.,20.,-15.,       141P    102
25.,20.,-0.75,0.25,0.,0.,0.;                                         141P    103
126,1,1,0,0,1,0,-1.,-1.,0.,0.,1.,1.,-15.,25.,30.,-25.,25.,30.,       143P    104
-1.,0.,0.,0.,0.;                                                     143P    105
126,1,1,0,0,1,0,0.,0.,1.,1.,1.,1.,-15.,25.,20.,-15.,25.,30.,0.,      145P    106
1.,0.,0.,0.;                                                         145P    107
126,1,1,0,0,1,0,-3.875,-3.875,1.125,1.125,1.,1.,-15.,25.,20.,        147P    108
-15.,-25.,20.,-3.875,1.125,0.,0.,0.;                                 147P    109
126,1,1,0,0,1,0,-5.,-5.,0.,0.,1.,1.,-15.,-25.,30.,-15.,25.,30.,      149P    110
-5.,0.,0.,0.,0.;                                                     149P    111
126,1,1,0,0,1,0,0.,0.,1.,1.,1.,1.,-15.,-25.,20.,-15.,-25.,30.,       151P    112
0.,1.,0.,0.,0.;                                                      151P    113
126,1,1,0,0,1,0,-0.75,-0.75,0.25,0.25,1.,1.,-15.,-25.,20.,-25.,      153P    114
-25.,20.,-0.75,0.25,0.,0.,0.;                                        153P    115
126,1,1,0,0,1,0,-1.,-1.,0.,0.,1.,1.,-25.,-25.,30.,-15.,-25.,30.,     155P    116
-1.,0.,0.,0.,0.;                                                     155P    117
126,8,2,0,1,0,0,-3.14159265358979,-3.14159265358979,                 157P    118
-3.14159265358979,-1.5707963267949,-1.5707963267949,0.,0.,           157P    119
1.5707963267949,1.5707963267949,3.14159265358979,                    157P    120
3.14159265358979,3.14159265358979,1.,0.707106781186548,1.,           157P    121
0.707106781186547,1.,0.707106781186547,1.,0.707106781186548,1.,      157P    122
-50.,-6.12323399573677D-15,20.,-50.,-50.,20.,                        157P    123
3.06161699786838D-15,-50.,20.,50.,-50.,20.,50.,0.,20.,50.,50.,       157P    124
20.,3.06161699786838D-15,50.,20.,-50.,50.,20.,-50.,                  157P    125
6.12323399573677D-15,20.,-3.14159265358979,3.14159265358979,0.,      157P    126
0.,0.;                                                               157P    127
126,8,2,0,1,0,0,-3.14159265358979,-3.14159265358979,                 159P    128
-3.14159265358979,-1.5707963267949,-1.5707963267949,0.,0.,           159P    129
1.5707963267949,1.5707963267949,3.14159265358979,                    159P    130
3.14159265358979,3.14159265358979,1.,0.707106781186545,1.,           159P    131
0.707106781186545,1.,0.707106781186547,1.,0.707106781186547,1.,      159P    132
-4.7499145119534,40.,20.,-4.7499145119534,44.7499145119534,20.,      159P    133
2.90848380164364D-16,44.7499145119534,20.,4.7499145119534,           159P    134
44.7499145119534,20.,4.7499145119534,40.,20.,4.7499145119534,        159P    135
35.2500854880466,20.,2.90848380164364D-16,35.2500854880466,20.,      159P    136
-4.7499145119534,35.2500854880466,20.,-4.7499145119534,40.,20.,      159P    137
-3.14159265358979,3.14159265358979,0.,0.,0.;                         159P    138
126,1,1,0,0,1,0,-2.1053010480156,-2.1053010480156,                   161P    139
2.1053010480156,2.1053010480156,1.,1.,-4.7499145119534,40.,20.,      161P    140
-4.7499145119534,40.,1.11022302462516D-15,-2.1053010480156,          161P    141
2.1053010480156,0.,0.,0.;                                            161P    142
126,8,2,0,1,0,0,-3.14159265358979,-3.14159265358979,                 163P    143
-3.14159265358979,-1.5707963267949,-1.5707963267949,0.,0.,           163P    144
1.5707963267949,1.5707963267949,3.14159265358979,                    163P    145
3.14159265358979,3.14159265358979,1.,0.707106781186548,1.,           163P    146
0.707106781186545,1.,0.707106781186545,1.,0.707106781186545,1.,      163P    147
-4.7499145119534,40.,0.,-4.7499145119534,35.2500854880466,0.,        163P    148
2.90848380164365D-16,35.2500854880466,0.,4.7499145119534,            163P    149
35.2500854880466,0.,4.7499145119534,40.,0.,4.7499145119534,          163P    150
44.7499145119534,0.,2.90848380164365D-16,44.7499145119534,0.,        163P    151
-4.7499145119534,44.7499145119534,0.,-4.7499145119534,40.,0.,        163P    152
-3.14159265358979,3.14159265358979,0.,0.,0.;                         163P    153
126,1,1,0,0,1,0,-0.4,-0.4,0.,0.,1.,1.,-50.,0.,20.,-50.,0.,0.,        165P    154
-0.4,0.,0.,0.,0.;                                                    165P    155
126,8,2,0,1,0,0,-3.14159265358979,-3.14159265358979,                 167P    156
-3.14159265358979,-1.5707963267949,-1.5707963267949,0.,0.,           167P    157
1.5707963267949,1.5707963267949,3.14159265358979,                    167P    158
3.14159265358979,3.14159265358979,1.,0.707106781186548,1.,           167P    159
0.707106781186547,1.,0.707106781186547,1.,0.707106781186548,1.,      167P    160
-50.,-6.12323399573677D-15,0.,-50.,-50.,0.,3.06161699786838D-15,     167P    161
-50.,0.,50.,-50.,0.,50.,0.,0.,50.,50.,0.,3.06161699786838D-15,       167P    162
50.,0.,-50.,50.,0.,-50.,6.12323399573677D-15,0.,                     167P    163
-3.14159265358979,3.14159265358979,0.,0.,0.;                         167P    164
128,1,1,1,1,0,0,1,0,0,-0.001,-0.001,4.001,4.001,-0.001,-0.001,       169P    165
1.001,1.001,1.,1.,1.,1.,10.,15.01,19.99,10.,-25.01,19.99,10.,        169P    166
15.01,30.01,10.,-25.01,30.01,-0.001,4.001,-0.001,1.001;              169P    167
128,1,1,1,1,0,0,1,0,0,-0.001,-0.001,1.001,1.001,-0.001,-0.001,       171P    168
1.001,1.001,1.,1.,1.,1.,-0.01,15.,19.99,10.01,15.,19.99,-0.01,       171P    169
15.,30.01,10.01,15.,30.01,-0.001,1.001,-0.001,1.001;                 171P    170
128,1,1,1,1,0,0,1,0,0,-0.001,-0.001,1.001,1.001,-0.001,-0.001,       173P    171
1.001,1.001,1.,1.,1.,1.,0.,25.01,19.99,0.,14.99,19.99,0.,25.01,      173P    172
30.01,0.,14.99,30.01,-0.001,1.001,-0.001,1.001;                      173P    173
128,1,1,1,1,0,0,1,0,0,-0.001,-0.001,3.501,3.501,-0.001,-0.001,       175P    174
1.001,1.001,1.,1.,1.,1.,35.01,25.,19.99,-0.0099999999999989,25.,     175P    175
19.99,35.01,25.,30.01,-0.0099999999999989,25.,30.01,-0.001,          175P    176
3.501,-0.001,1.001;                                                  175P    177
128,1,1,1,1,0,0,1,0,0,-0.001,-0.001,1.001,1.001,-0.001,-0.001,       177P    178
1.001,1.001,1.,1.,1.,1.,35.,14.99,19.99,35.,25.01,19.99,35.,         177P    179
14.99,30.01,35.,25.01,30.01,-0.001,1.001,-0.001,1.001;               177P    180
128,1,1,1,1,0,0,1,0,0,-0.001,-0.001,1.001,1.001,-0.001,-0.001,       179P    181
1.001,1.001,1.,1.,1.,1.,24.99,15.,19.99,35.01,15.,19.99,24.99,       179P    182
15.,30.01,35.01,15.,30.01,-0.001,1.001,-0.001,1.001;                 179P    183
128,1,1,1,1,0,0,1,0,0,-0.001,-0.001,4.001,4.001,-0.001,-0.001,       181P    184
1.001,1.001,1.,1.,1.,1.,25.,-25.01,19.99,25.,15.01,19.99,25.,        181P    185
-25.01,30.01,25.,15.01,30.01,-0.001,4.001,-0.001,1.001;              181P    186
128,1,1,1,1,0,0,1,0,0,-0.001,-0.001,1.501,1.501,-0.001,-0.001,       183P    187
1.001,1.001,1.,1.,1.,1.,9.99,-25.,19.99,25.01,-25.,19.99,9.99,       183P    188
-25.,30.01,25.01,-25.,30.01,-0.001,1.501,-0.001,1.001;               183P    189
128,1,1,1,1,0,0,1,0,0,-1.751,-1.751,1.751,1.751,-2.501,-2.501,       185P    190
2.501,2.501,1.,1.,1.,1.,-0.0099999999999989,-25.01,30.,35.01,        185P    191
-25.01,30.,-0.0099999999999989,25.01,30.,35.01,25.01,30.,-1.751,     185P    192
1.751,-2.501,2.501;                                                  185P    193
128,1,1,1,1,0,0,1,0,0,-0.001,-0.001,5.001,5.001,-0.001,-0.001,       187P    194
1.001,1.001,1.,1.,1.,1.,-25.,25.01,19.99,-25.,-25.01,19.99,-25.,     187P    195
25.01,30.01,-25.,-25.01,30.01,-0.001,5.001,-0.001,1.001;             187P    196
128,1,1,1,1,0,0,1,0,0,-0.001,-0.001,1.001,1.001,-0.001,-0.001,       189P    197
1.001,1.001,1.,1.,1.,1.,-14.99,25.,19.99,-25.01,25.,19.99,           189P    198
-14.99,25.,30.01,-25.01,25.,30.01,-0.001,1.001,-0.001,1.001;         189P    199
128,1,1,1,1,0,0,1,0,0,-0.001,-0.001,5.001,5.001,-0.001,-0.001,       191P    200
1.001,1.001,1.,1.,1.,1.,-15.,-25.01,19.99,-15.,25.01,19.99,-15.,     191P    201
-25.01,30.01,-15.,25.01,30.01,-0.001,5.001,-0.001,1.001;             191P    202
128,1,1,1,1,0,0,1,0,0,-0.001,-0.001,1.001,1.001,-0.001,-0.001,       193P    203
1.001,1.001,1.,1.,1.,1.,-25.01,-25.,19.99,-14.99,-25.,19.99,         193P    204
-25.01,-25.,30.01,-14.99,-25.,30.01,-0.001,1.001,-0.001,1.001;       193P    205
128,1,1,1,1,0,0,1,0,0,-0.501,-0.501,0.501,0.501,-2.501,-2.501,       195P    206
2.501,2.501,1.,1.,1.,1.,-25.01,-25.01,30.,-14.99,-25.01,30.,         195P    207
-25.01,25.01,30.,-14.99,25.01,30.,-0.501,0.501,-2.501,2.501;         195P    208
128,1,1,1,1,0,0,1,0,0,-3.001,-3.001,7.001,7.001,-4.751,-4.751,       197P    209
5.251,5.251,1.,1.,1.,1.,-50.01,-50.01,20.,50.01,-50.01,20.,          197P    210
-50.01,50.01,20.,50.01,50.01,20.,-3.001,7.001,-4.751,5.251;          197P    211
128,1,8,1,2,0,1,0,0,1,-2.1053010480156,-2.1053010480156,             199P    212
2.1053010480156,2.1053010480156,-3.14159265358979,                   199P    213
-3.14159265358979,-3.14159265358979,-1.5707963267949,                199P    214
-1.5707963267949,0.,0.,1.5707963267949,1.5707963267949,              199P    215
3.14159265358979,3.14159265358979,3.14159265358979,1.,1.,            199P    216
0.707106781186548,0.707106781186548,1.,1.,0.707106781186548,         199P    217
0.707106781186548,1.,1.,0.707106781186548,0.707106781186548,1.,      199P    218
1.,0.707106781186548,0.707106781186548,1.,1.,-4.7499145119534,       199P    219
40.,20.,-4.7499145119534,40.,1.11022302462516D-15,                   199P    220
-4.7499145119534,44.7499145119534,20.,-4.7499145119534,              199P    221
44.7499145119534,1.11022302462516D-15,0.,44.7499145119534,20.,       199P    222
0.,44.7499145119534,1.11022302462516D-15,4.7499145119534,            199P    223
44.7499145119534,20.,4.7499145119534,44.7499145119534,               199P    224
1.11022302462516D-15,4.7499145119534,40.,20.,4.7499145119534,        199P    225
40.,1.11022302462516D-15,4.7499145119534,35.2500854880466,20.,       199P    226
4.7499145119534,35.2500854880466,1.11022302462516D-15,0.,            199P    227
35.2500854880466,20.,0.,35.2500854880466,1.11022302462516D-15,       199P    228
-4.7499145119534,35.2500854880466,20.,-4.7499145119534,              199P    229
35.2500854880466,1.11022302462516D-15,-4.7499145119534,40.,20.,      199P    230
-4.7499145119534,40.,1.11022302462516D-15,-2.1053010480156,          199P    231
2.1053010480156,-3.14159265358979,3.14159265358979;                  199P    232
128,1,8,1,2,0,1,0,0,1,0.,0.,0.4,0.4,-3.14159265358979,               201P    233
-3.14159265358979,-3.14159265358979,-1.5707963267949,                201P    234
-1.5707963267949,0.,0.,1.5707963267949,1.5707963267949,              201P    235
3.14159265358979,3.14159265358979,3.14159265358979,1.,1.,            201P    236
0.707106781186548,0.707106781186548,1.,1.,0.707106781186548,         201P    237
0.707106781186548,1.,1.,0.707106781186548,0.707106781186548,1.,      201P    238
1.,0.707106781186548,0.707106781186548,1.,1.,-50.,0.,20.,-50.,       201P    239
0.,0.,-50.,-50.,20.,-50.,-50.,0.,0.,-50.,20.,0.,-50.,0.,50.,         201P    240
-50.,20.,50.,-50.,0.,50.,0.,20.,50.,0.,0.,50.,50.,20.,50.,50.,       201P    241
0.,0.,50.,20.,0.,50.,0.,-50.,50.,20.,-50.,50.,0.,-50.,0.,20.,        201P    242
-50.,0.,0.,0.,0.4,-3.14159265358979,3.14159265358979;                201P    243
128,1,1,1,1,0,0,1,0,0,-5.001,-5.001,5.001,5.001,-5.001,-5.001,       203P    244
5.001,5.001,1.,1.,1.,1.,50.01,-50.01,0.,-50.01,-50.01,0.,50.01,      203P    245
50.01,0.,-50.01,50.01,0.,-5.001,5.001,-5.001,5.001;                  203P    246
502,28,10.,-25.,20.,10.,15.,20.,10.,-25.,30.,10.,15.,30.,0.,15.,     205P    247
20.,0.,15.,30.,0.,25.,20.,0.,25.,30.,35.,25.,20.,35.,25.,30.,        205P    248
35.,15.,20.,35.,15.,30.,25.,15.,20.,25.,15.,30.,25.,-25.,20.,        205P    249
25.,-25.,30.,-25.,-25.,20.,-25.,25.,20.,-25.,-25.,30.,-25.,25.,      205P    250
30.,-15.,25.,20.,-15.,25.,30.,-15.,-25.,20.,-15.,-25.,30.,-50.,      205P    251
-8.88178419700125D-15,20.,-4.7499145119534,40.,20.,                  205P    252
-4.7499145119534,40.,0.,-50.,-6.12323399573677D-15,0.;               205P    253
504,42,85,205,1,205,2,87,205,1,205,3,89,205,4,205,3,91,205,2,        207P    254
205,4,93,205,2,205,5,95,205,6,205,4,97,205,5,205,6,99,205,5,205,     207P    255
7,101,205,8,205,6,103,205,7,205,8,105,205,7,205,9,107,205,10,        207P    256
205,8,109,205,9,205,10,111,205,9,205,11,113,205,12,205,10,115,       207P    257
205,11,205,12,117,205,11,205,13,119,205,14,205,12,121,205,13,        207P    258
205,14,123,205,13,205,15,125,205,16,205,14,127,205,15,205,16,        207P    259
129,205,15,205,1,131,205,3,205,16,133,205,17,205,18,135,205,17,      207P    260
205,19,137,205,20,205,19,139,205,18,205,20,141,205,18,205,21,        207P    261
143,205,22,205,20,145,205,21,205,22,147,205,21,205,23,149,205,       207P    262
24,205,22,151,205,23,205,24,153,205,23,205,17,155,205,19,205,24,     207P    263
157,205,25,205,25,159,205,26,205,26,161,205,26,205,27,163,205,       207P    264
27,205,27,165,205,25,205,28,167,205,28,205,28;                       207P    265
406,1,10Hボディ1;                                                 209P    266
314,62.7450980392157,62.7450980392157,62.7450980392157,15H鋼 -      211P    267
サテン;                                                           211P    268
S      1G      3D    212P    268                                        T      1
